<?xml version="1.0" encoding="UTF-8"?>
<svg id="b" data-name="Layer 2" xmlns="http://www.w3.org/2000/svg" width="688.5" height="1224" viewBox="0 0 688.5 1224">
  <g id="c" data-name="Layer 1">
    <rect width="688.5" height="1224" fill="#0e0e23"/>
    <g>
      <path d="M462.57,1224H225.93c0-247.86,0-495.72,0-743.58,0-1.36,.07-2.726-.039-4.077-.057-.707-.433-1.388-.666-2.081-.754,.253-1.668,.318-2.233,.795-1.878,1.586-3.499,3.497-5.456,4.966-7.199,5.404-14.385,10.837-21.778,15.969-13.608,9.447-27.351,18.701-41.056,28.01-5.401,3.669-10.801,7.183-15.164,12.288-7.439,8.704-15.403,16.96-23.19,25.365-11.422,12.329-22.889,24.615-34.321,36.935-3.637,3.919-7.26,7.852-10.814,11.846-2.53,2.844-2.36,4.774,.206,7.496,3.725,3.951,7.45,7.909,11.025,11.996,14.575,16.664,24.652,35.723,30.175,57.17,5.843,22.686,7.702,45.835,7.719,69.157,.058,83.13,.024,166.26-.012,249.39-.002,3.982,.866,7.503,3.508,10.614,.871,1.025,1.364,2.555,1.575,3.925,.958,6.22-.139,12.092-2.981,17.746-.947,1.884-1.501,4.184-1.504,6.295-.075,59.925-.057,119.85-.055,179.775H0C0,995.69,0,767.38,0,539.07c.632,.398,1.403,.675,1.876,1.213,5.828,6.62,11.643,13.252,17.402,19.932,10.135,11.755,20.241,23.535,30.329,35.331,1.246,1.457,2.256,1.769,3.688,.182,4.091-4.535,8.256-9.005,12.434-13.462,10.855-11.577,21.7-23.163,32.624-34.674,2.606-2.747,4.339-5.852,5.007-9.537,.4-2.211,.185-4.142-1.47-6.115-9.161-10.918-18.132-21.995-27.176-33.011-8.021-9.77-16.043-19.538-24.081-29.294-8.576-10.41-17.222-20.763-25.743-31.219C16.531,428.157,8.292,417.802,0,407.49,0,280.67,0,153.85,0,27.03c.756,.101,1.544,.098,2.262,.319,11.604,3.571,23.342,6.773,34.76,10.867,13.581,4.869,27.241,9.807,39.455,17.691,11.594,7.484,20.462,17.507,25.963,30.322,6.764,15.757,10.343,32.392,12.666,49.231,2.594,18.809,4.508,37.722,6.252,56.634,1.12,12.15,1.948,24.377,1.969,36.571,.16,95.958,.094,191.916,.097,287.874,0,1.147,0,2.295,0,3.903,.876-.586,1.277-.842,1.666-1.115,4.591-3.214,9.102-6.55,13.785-9.624,11.431-7.503,23.501-14.159,34.293-22.481,17.392-13.41,33.982-27.862,50.828-41.972,1.016-.851,1.816-2.561,1.849-3.893,.303-12.055,.493-24.114,.558-36.173,.089-16.488-.004-32.978,.073-49.466,.024-5.088,.347-10.174,.534-15.261,2.115,2.317,4.124,4.746,6.388,6.908,1.306,1.247,2.893,2.531,4.576,3.003,31.848,8.917,63.728,17.723,95.617,26.491,.786,.216,2.443-.099,2.52-.436,.235-1.024,.232-2.395-.303-3.234-.798-1.252-2.108-2.188-3.237-3.217-6.293-5.736-5.944-4.737-3.022-12.688,.823-2.239,2.483-4.384,.51-6.866-.21-.264,.063-.979,.213-1.452,1.082-3.413,2.281-4.175,6.53-4.203,4.106-.027,4.897-.813,4.897-4.909,0-75.796-.002-151.593-.006-227.389,0-4.469-1.317-5.26-5.156-3.089-15.956,9.021-31.918,18.031-47.84,27.111-1.193,.681-2.548,1.688-3.052,2.873-4.478,10.535-8.824,21.127-13.053,31.764-.339,.852,.203,2.91,.814,3.141,3.458,1.307,6.877,3.422,10.812,.748,1.332-.905,3.428-.907,5.179-.93,3.223-.042,6.448,.239,9.674,.318,1.595,.039,2.154,.825,1.857,2.286-1.006,4.944,1.597,10.132-1.016,14.972-.143,.265-.028,.67-.028,1.01,.015,24.047,.082,48.095,0,72.142-.016,4.752,.895,9.341,.339,14.294-.957,8.51,.182,17.254,.427,25.9,.029,1.005,.073,2.027-.07,3.015-.346,2.388-.8,4.76-1.208,7.14-.169,.984-.096,2.093-.538,2.931-1.861,3.525-3.811,7.009-5.858,10.43-1.328,2.22-2.298,2.04-4.004,.04-4.352-5.102-8.814-10.112-13.295-15.102-1.689-1.881-3.601-1.857-5.988-.901-4.054,1.623-8.289,3.816-12.477,3.88-10.077,.154-20.17-.786-30.257-1.285,.161-10.352,.358-20.704,.474-31.057,.204-18.337,.365-36.674,.53-55.011,.043-4.826,.867-9.446,3.248-13.722,2.602-4.671,5.119-9.391,7.733-14.055,4.039-7.207,6.517-14.621,6.484-23.181-.226-59.375-.116-118.751-.114-178.127h197.88c0,60.563-.002,121.126,.016,181.688,0,1.604,.059,3.236,.349,4.807,1.422,7.686,5.773,14.08,9.338,20.815,3.046,5.756,6.982,11.157,7.437,17.956,.334,4.989,.596,9.99,.668,14.989,.232,16.042,.392,32.085,.519,48.129,.071,8.918,.021,17.837,.025,26.756-8.219,.526-16.44,1.008-24.655,1.593-6.381,.454-12.267-1.083-17.895-3.989-3-1.549-4.313-1.383-6.537,1.073-4.445,4.909-8.78,9.918-13.089,14.946-1.516,1.77-2.458,1.898-3.703-.066-1.498-2.364-2.734-4.895-4.255-7.243-1.772-2.734-2.635-5.599-2.332-8.883,.104-1.121-.409-2.293-.6-3.448-.228-1.381-.699-2.795-.573-4.149,.914-9.795,1.588-19.572-.29-29.342-.188-.976-.035-2.032,.05-3.043,.291-3.458,.863-6.911,.895-10.37,.115-12.417,.055-24.836,.058-37.255,.002-9.435,.098-18.871-.057-28.303-.048-2.901-.823-5.785-1.187-8.687-.124-.99-.063-2.013,.006-3.015,.093-1.349,.416-2.694,.394-4.036-.104-6.303-.141-6.438,6.08-6.713,3.281-.145,7.003-.619,9.78,.666,3.712,1.718,6.766,1.291,10.175,.02,2.645-.986,3.005-1.719,1.923-4.353-4.097-9.963-8.109-19.963-12.352-29.863-.706-1.647-2.141-3.329-3.685-4.217-15.747-9.053-31.587-17.945-47.404-26.876-.662-.374-1.333-.759-2.044-1.018-2.122-.774-3.217-.05-3.418,2.231-.06,.675-.021,1.359-.021,2.039-.003,62.047-.005,124.094-.007,186.141,0,13.514,0,27.029,.002,40.543,0,4.497,.689,5.198,5.084,5.24,.849,.008,1.711-.032,2.545,.094,2.193,.33,4.905,4.274,3.837,5.961-1.185,1.872-.637,3.312,.088,4.989,.773,1.789,1.371,3.652,2.096,5.463,.937,2.34,.485,4.249-1.462,5.918-2.063,1.769-4.159,3.547-5.919,5.597-.711,.829-.57,2.39-.816,3.618,1.044,.135,2.182,.612,3.119,.355,28.462-7.814,56.931-15.602,85.336-23.618,13.946-3.936,10.23-.8,20.374-12.344,.109-.124,.264-.207,.397-.31,.188,4.407,.508,8.813,.537,13.221,.079,12.114-.025,24.229,.054,36.343,.111,16.957,.298,33.914,.542,50.869,.017,1.151,.466,2.603,1.247,3.382,2.932,2.924,6.007,5.718,9.169,8.395,8.991,7.613,18.152,15.026,27.056,22.738,10.108,8.754,21.071,16.294,32.251,23.563,9.387,6.103,18.732,12.269,28.093,18.411,1.391,.912,2.769,1.843,4.664,3.106,0-1.5,0-2.481,0-3.463-.001-19.631-.003-39.261-.004-58.892,0-7.384,.067-14.768-.027-22.151-.047-3.702-.635-7.406-.54-11.097,.19-7.351,.889-14.692,.981-22.041,.068-5.406-1.084-10.748-.534-16.253,.545-5.453,.12-11.002,.12-16.509,0-11.334,0-22.669,0-34.003,0-7.043-.003-14.086-.003-21.129,0-15.774-.064-31.548,.02-47.321,.086-16.221,.23-32.442,.521-48.66,.143-7.968,.417-15.952,1.09-23.89,1.11-13.091,2.531-26.156,3.93-39.221,2.073-19.362,5.34-38.497,10.791-57.237,6.265-21.537,18.828-37.851,39.231-47.623,16.42-7.865,33.416-14.327,50.811-19.686,5.586-1.721,11.342-2.889,17.021-4.31V407.49c-.707,.59-1.583,1.062-2.09,1.79-1.672,2.401-2.997,5.07-4.837,7.323-9.925,12.153-19.984,24.196-29.961,36.307-9.916,12.038-19.776,24.122-29.686,36.164-12.077,14.675-24.189,29.321-36.244,44.013-.547,.667-1.037,1.694-.966,2.502,.355,4.05,1.514,7.851,4.382,10.901,3.78,4.02,7.649,7.956,11.411,11.993,10.99,11.795,21.915,23.65,32.932,35.42,3.787,4.046,3.838,3.866,7.39-.365,6.761-8.054,13.646-16.005,20.511-23.972,7.197-8.354,14.39-16.712,21.679-24.985,1.625-1.845,3.643-3.344,5.479-5.002v684.42h-120.87c-.002-59.919,.006-119.839-.056-179.758-.002-1.881-.277-4.018-1.187-5.595-2.6-4.503-3.637-9.389-3.69-14.4-.028-2.665,.581-5.758,2.015-7.922,2.324-3.507,3.465-7.001,3.462-11.172-.053-63.659-.128-127.319,.01-190.978,.066-30.609-1.294-61.271,1.662-91.8,1.122-11.587,3.846-23.022,5.962-34.504,.328-1.783,1.403-3.415,1.967-5.17,1.648-5.126,2.831-10.436,4.879-15.392,7.337-17.75,18.368-33.026,31.986-46.496,6.026-5.96,5.918-7.497-.088-13.695-5.966-6.156-11.817-12.425-17.645-18.713-9.689-10.455-19.332-20.954-28.969-31.457-4.702-5.124-9.291-10.354-14.04-15.433-3.646-3.899-7.012-8.27-11.291-11.329-12.569-8.985-25.666-17.23-38.302-26.125-13.164-9.267-26.91-17.783-38.697-28.91-.464-.438-1.423-.675-2.032-.525-.429,.106-.783,.995-.939,1.595-.167,.64-.073,1.35-.073,2.03-.002,25.047-.002,50.095-.002,75.142,0,11.209,0,22.418,0,33.627,0,33.598-.002,67.195-.002,100.793,0,28.293,.006,56.585,.006,84.878,.002,150.436,.003,300.873,.004,451.309Zm-74.567-318.922c-.132-1.296-.264-2.593-.395-3.889,.095-2.633,.189-5.265,.284-7.898,.537-10.114,1.17-20.224,1.571-30.343,.214-5.393,.025-10.802,.019-16.203,.042-2.431,.084-4.862,.125-7.293-.016-1.843-.033-3.687-.049-5.53,.02-1.208,.04-2.416,.06-3.623,.019-2.904,.037-5.808,.056-8.712,.005-1.005,.01-2.011,.015-3.016-.029-3.904-.057-7.807-.086-11.711-.029-2.963-.058-5.926-.087-8.889-.004-15.957-.021-31.914,.009-47.87,.003-1.467-.448-2.196-1.995-2.25-3.156-.111-3.937-1.166-3.54-4.904,.646,.391,1.153,.812,1.735,1.025,.933,.342,2.027,.916,2.836,.672,.499-.151,.835-1.637,.835-2.524-.003-9.421-.104-18.842-.149-28.263-.098-20.796-.179-41.592-.267-62.387,.003-2.318,.005-4.636,.008-6.954-.043-9.294-.086-18.587-.129-27.881,1.199-1.224,1.226-2.437-.035-3.638-.075-13.342-.272-26.686-.161-40.027,.039-4.731,.271-9.592,1.387-14.157,2.561-10.477,5.705-20.812,8.658-31.192,.244-.859,1.123-1.587,1.217-2.43,.534-4.827,1.815-9.694,5.383-12.784,3.207-2.778,3.566-5.777,4.049-9.424,1.537-11.594,4.723-22.88,6.953-34.356,5.079-26.133,13.558-51.354,23.414-76.073,4.164-10.443,9.954-19.976,17.627-28.295,.925-1.002,1.545-2.286,2.306-3.439l-.429-.768c-.981,.169-2.024,.179-2.932,.535-3.71,1.455-7.319,3.19-11.084,4.477-2.618,.895-4.493,2.46-5.634,4.811-1.147,2.364-2.897,3.209-5.347,2.862-2.108-.299-3.739,.313-5.217,1.911-2.108,2.276-4.678,3.708-7.85,4.348-2.057,.415-4.222,1.474-5.794,2.862-2.821,2.49-5.942,4.14-9.482,5.245-1.231,.384-2.423,1.135-3.423,1.97-3.264,2.726-6.669,4.837-11.191,4.723-5.2-.131-9.8,1.86-13.166,5.706-5.358,6.122-10.415,12.515-15.418,18.935-4.749,6.095-4.868,12.697-1.802,19.656,1.267,2.875,3.462,5.577,2.733,9.072-.605,2.897-1.722,5.762-1.837,8.671-.245,6.212-.953,12.245-2.648,18.285-1.002,3.57-.486,7.581-.549,11.395-.169,10.33,1.252,8.192-8.064,12.309-2.46,1.087-3.747,2.822-3.727,5.502,.038,5.099-.073,10.208,.237,15.291,.097,1.592,.983,3.516,2.154,4.571,1.7,1.53,1.349,2.243-.281,3.167-1.752,.993-2.24,2.427-2.176,4.469,.176,5.604,.06,11.217,.066,16.826,.026,26.857,.055,53.714,.082,80.57-.007,5.152-.014,10.304-.021,15.457,.012,11.668,.024,23.337,.036,35.005-.016,5.312-.032,10.624-.048,15.936,.021,3.517,.042,7.033,.064,10.55,0,5.198,0,10.396,.001,15.595-.023,1.309-.047,2.619-.07,3.928,.01,.713,.02,1.425,.031,2.138,.018,1.443,.037,2.885,.055,4.328-.016,4.51-.032,9.02-.048,13.53,.014,7.391,.028,14.783,.041,22.174,.035,2.712,.071,5.423,.106,8.135-.069,.585-.197,1.17-.197,1.755-.009,13.258-.004,26.516-.002,39.773,.01,11.568,.019,23.136,.029,34.705,.008,.472,.015,.944,.023,1.416-.021,5.616-.043,11.232-.064,16.848,.014,3.572,.027,7.145,.041,10.717-.007,2.565-.013,5.13-.02,7.695,.041,5.561,.083,11.122,.124,16.682,.115,9.224,.231,18.448,.346,27.672,.028,1.658,.056,3.317,.084,4.975-.05,.506-.15,1.013-.144,1.518,.151,14.607,.211,29.215,.494,43.819,.466,24.108,.992,48.216,1.654,72.32,.54,19.687,1.319,39.367,1.985,59.051,.35,10.351,.682,20.702,1.045,31.053,.018,.502,.259,.997,.396,1.495,.952-1.233,1.46-2.483,1.592-3.771,.743-7.256,1.525-14.512,2.044-21.786,.598-8.379,.875-16.78,1.406-25.164,.637-10.078,1.819-20.139,2.014-30.223,.439-22.757,.443-45.522,.571-68.284,.079-14.101,.074-28.203,.082-42.304,.002-3.904-.08-7.808-.124-11.713,.019-1.571,.037-3.142,.056-4.713,0-8.766-.002-17.532-.003-26.298,.018-2.486,.036-4.971,.054-7.457,0-3.087,0-6.175,0-9.262-.009-4.039-.019-8.078-.028-12.117,.002-1.918,.005-3.836,.007-5.755-.026-9.936-.052-19.872-.079-29.808,.001-1.843,.002-3.686,.004-5.528-.009-15.151-.018-30.301-.026-45.452l.022-6.527c-.006-6.507-.012-13.013-.019-19.52,.003-3.697,.007-7.393,.01-11.089-.071-5.383-.142-10.766-.214-16.149,.014-5.599,.027-11.198,.041-16.796,0-5.808,0-11.616,0-17.424,.01-1.505,.02-3.011,.03-4.516-.028-5.446-.056-10.893-.085-16.339l-.103-6.638c-.019-11.69-.038-23.38-.058-35.071l.049-5.237c.031-.593,.089-1.185,.089-1.778-.022-23.178-.117-46.356-.035-69.533,.024-6.691,.278-13.408,.923-20.064,.727-7.496,2.007-14.939,3.075-22.402,.067-.471,.381-.906,.846-1.962,0,8.19,.167,15.655-.041,23.109-.283,10.173-1.147,20.339-1.118,30.506,.009,3.041,.002,6.065-.092,9.119-.239,7.803-.06,15.618-.049,23.428,.013,2.085,.025,4.171,.038,6.256-.023,15.72-.092,31.44-.028,47.16,.011,2.752,.648,5.496,.858,8.254,.095,1.248-.087,2.529-.25,3.781-.338,2.589-1.007,5.162-1.075,7.753-.157,6.029-.039,12.065-.032,18.099,.009,2.235,.018,4.469,.027,6.704,.137,12.953,.235,25.907,.469,38.859,.025,1.376,.898,2.725,1.288,4.111,.378,1.343,1.352,3.142,.836,4.009-2.763,4.643-2.09,9.634-2.075,14.585,.031,5.183,.063,10.365,.094,15.548,.006,1.254,.012,2.508,.018,3.762,.029,2.443,.059,4.886,.088,7.329,.021,.764,.054,1.528,.062,2.292,.206,20.481,.409,40.962,.612,61.443,.045,6.826,.091,13.653,.136,20.479,.004,2.688,.008,5.376,.011,8.062,.143,3.569,.287,7.138,.43,10.707,.148,5.779,.296,11.557,.444,17.336,.058,3.438,.116,6.876,.173,10.315,.024,1.272,.047,2.544,.071,3.816,.084,1.858,.202,3.715,.248,5.574,.535,21.655,1.06,43.31,1.587,64.965,.346,14.182,.682,28.364,1.061,42.545,.024,.893,.388,1.777,.594,2.665,.362,.043,.724,.087,1.085,.13,.789-2.251,2.084-4.46,2.279-6.761,.85-10.057,1.788-20.134,1.944-30.215,.336-21.668,.204-43.343,.276-65.014,.018-5.516,.08-11.032,.121-16.549,.026-2.215,.052-4.431,.078-6.646,.023-2.668,.045-5.335,.068-8.003-.011-3.461-.023-6.922-.034-10.383,.015-4.199,.029-8.399,.044-12.598-.02-1.725-.039-3.449-.059-5.174l.117-3.927c0-3.856,.001-7.711,.002-11.567-.008-1.443-.016-2.886-.024-4.33,.008-3.476,.016-6.951,.024-10.427,.016-3.276,.031-6.552,.047-9.828,.002-1.695,.005-3.389,.007-5.084l-.006-11.23c-.018-1.989-.036-3.979-.053-5.968,.013-3.457,.025-6.913,.038-10.37-.01-1.825-.019-3.649-.029-5.474-.003-1.599-.007-3.197-.01-4.796-.019-19.455-.039-38.909-.058-58.364,.014-5.012,.028-10.023,.042-15.035-.002-1.664-.005-3.328-.007-4.992,.006-1.048,.012-2.096,.018-3.143-.054-7.712-.13-15.423-.158-23.135-.08-21.699-.141-43.398-.209-65.097-.013-4.244-.025-8.488-.038-12.732,.024-.678,.048-1.355,.07-2.033,.766-23.364-1.74-46.794,1.442-70.114,.502-3.678,1.651-7.02,3.828-10.042,.269,.803,.287,1.534,.161,2.239-2.549,14.19-2.9,28.5-2.126,42.843,.151,2.794,.542,5.493-.601,8.143,.86,3.211,.995,6.41-.145,9.59,.343,2.588,.895,5.17,.971,7.766,.074,2.523-.507,5.06-.512,7.591-.046,24.54-.036,49.081-.013,73.621,0,.792,.306,1.583,.469,2.374-.011,2.829-.022,5.658-.033,8.487-.149,.373-.427,.746-.427,1.119,.009,8.45,.049,16.9,.082,25.35-.013,4.671-.025,9.342-.038,14.012,.035,21.153,.039,42.305,.14,63.457,.013,2.783,.522,5.563,.802,8.346,.021,2.076,.043,4.152,.064,6.227-.004,1.156-.009,2.312-.013,3.467-.1,1.272-.2,2.545-.3,3.817-.398,3.991-.796,7.982-1.194,11.973,.014,.394,.028,.789,.041,1.183,.006,.261,.012,.523,.019,.784,.051,1.083,.101,2.165,.152,3.248,.035,.326,.07,.653,.106,.979,.05,1.868,.099,3.736,.149,5.604,.038,3.206,.076,6.412,.114,9.617,.152,3.463,.305,6.925,.457,10.388,.005,1.979,.01,3.958,.015,5.937,.118,3.073,.237,6.145,.355,9.217,.043,1.677,.085,3.353,.128,5.03,.17,4.469,.34,8.938,.511,13.406-.024,1.167-.049,2.335-.073,3.502,.025,1.739,.05,3.479,.075,5.218,.12,3.361,.239,6.721,.359,10.083,.058,2.777,.117,5.554,.175,8.331,.148,2.607,.296,5.215,.444,7.822,.237,7.441,.346,14.889,.792,22.317,.128,2.132,1.23,4.205,1.886,6.305,.449-.044,.898-.087,1.347-.131,1.286-9.588,1.684-19.274,2.483-28.915,.184-2.505,.367-5.01,.551-7.515,.089-1.645,.177-3.291,.266-4.936,.082-3.974,.165-7.948,.247-11.922-.023-3.462-.047-6.924-.07-10.386Zm-64.187-35.464c.083-5.229,.166-10.458,.249-15.687,.014-2.707,.027-5.414,.041-8.121,.047-2.656,.093-5.313,.14-7.969,.01-3.676,.021-7.351,.031-11.027,.004-.735,.008-1.471,.012-2.206,.042-4.583,.152-9.167,.055-13.747-.015-.703-.848-1.776-1.531-2.009-2.356-.802-2.603-2.504-2.583-5.04,1.45,1.181,2.562,2.086,3.674,2.991,.237-.076,.474-.152,.712-.228,0-4.538,.161-9.084-.049-13.613-.18-3.894,1.265-7.95-1.012-11.687-.208-.341,.043-.98,.12-1.474,.371-2.373,.754-4.743,1.134-7.115-.007-1.394-.014-2.787-.021-4.181-.118-3.027,.178-6.15-.489-9.052-.513-2.232-1.317-4.131,.233-6.211,.352-.473,.322-1.289,.332-1.949,.084-5.855,.151-11.71,.181-17.566,.003-.631-.114-1.728-.423-1.825-3.681-1.161-2.911-4.711-4.121-7.251,1.212,1.438,2.183,3.189,4.59,1.765-.188-2.169-.563-4.387-.522-6.597,.046-2.419,.661-4.827,.705-7.246,.124-6.873,.262-13.754,.046-20.621-.161-5.125-.908-10.229-1.295-15.35-.099-1.318,.135-2.67,.297-3.996,.111-.91,.523-1.803,.527-2.704,.03-6.195-.012-12.389-.031-18.584,.011-1.713,.023-3.426,.034-5.139,.012-9.257,.027-18.515,.035-27.772,.006-6.625-.279-13.265,.086-19.87,.366-6.63-.702-13.172-.306-19.846,.521-8.77-.499-17.627-.762-26.45-.248-8.313-.375-16.629-.543-24.943-.005-.263,.112-.529,.172-.794,.224,0,.448,0,.671,.001,.318,2.71,.449,5.458,.986,8.123,2.222,11.022,3.3,22.13,3.263,33.381-.097,29.641-.072,59.283-.095,88.924-.015,4.053-.029,8.106-.044,12.159-.085,45.704-.171,91.409-.256,137.113-.008,3.797-.016,7.594-.024,11.391,.008,2.141,.016,4.281,.025,6.422,.002,.954,.003,1.908,.005,2.862-.009,4.497-.018,8.994-.027,13.49-.016,13.819-.033,27.639-.049,41.458,.014,7.766,.028,15.532,.042,23.298-.041,1.442-.122,2.885-.117,4.327,.161,41.462,.296,82.925,.519,124.387,.071,13.25,.089,26.512,.657,39.745,.691,16.108,1.864,32.197,2.975,48.284,.485,7.023,1.301,14.024,2.051,21.026,.133,1.244,.684,2.444,1.041,3.665,.216-.038,.431-.076,.647-.114,.1-.539,.267-1.075,.289-1.617,.329-8.314,.662-16.628,.949-24.944,.512-14.852,1.003-29.704,1.484-44.557,.715-22.067,1.584-44.132,2.068-66.204,.425-19.364,.418-38.737,.589-58.107,.127-14.44,.231-28.879,.346-43.319,.006-2.443,.013-4.887,.019-7.33,.02-2.655,.039-5.31,.059-7.965,.003-5.882,.007-11.765,.01-17.647,.002-3.294,.004-6.588,.006-9.881-.369-3.091-.777-6.178-1.083-9.276-.086-.874,.049-1.793,.225-2.663,.24-1.193,.886-2.357,.891-3.536,.062-15.773,.056-31.546,.038-47.319-.012-9.92-.073-19.839-.112-29.759,.013-2.975,.025-5.949,.038-8.924,.012-4.896,.023-9.792,.035-14.688-.008-1.564-.015-3.128-.023-4.693,.004-15.587,.007-31.174,.011-46.761l-.004-5.236c.012-16.993,.024-33.986,.036-50.979-.026-2.089-.052-4.179-.078-6.268,.031-.849,.088-1.697,.088-2.546,.009-33.658,.032-67.316-.026-100.974-.004-2.059-.717-4.11-.982-6.18-.113-.882,.012-1.813,.152-2.703,.169-1.075,.657-2.126,.681-3.195,.116-5.352,.152-10.707,.161-16.061,.004-2.572-1.281-4.296-3.677-5.264-1.807-.73-3.531-1.672-5.357-2.342-1.985-.728-2.713-2.105-2.697-4.102,.035-4.334,.155-8.673-.02-12.999-.095-2.344-.662-4.679-1.132-6.994-.385-1.898-1.123-3.736-1.384-5.645-.766-5.604-.412-11.318-2.252-16.841-.63-1.891-.101-4.368,.479-6.412,.687-2.419,2.289-4.578,2.983-6.996,1.382-4.816,1.751-9.636-1.041-14.254-4.817-7.97-10.515-15.234-17.114-21.788-3.848-3.823-8.497-5.81-13.981-5.757-1.088,.01-2.362,.093-3.238-.407-6.19-3.53-12.463-6.904-18.718-10.313-.434-.237-.705-.775-1.14-1.008-1.987-1.062-3.908-2.544-6.036-2.975-3.088-.626-5.622-1.966-7.663-4.172-1.611-1.742-3.366-2.375-5.661-2.087-2.338,.293-3.918-.652-5.138-2.837-.907-1.625-2.353-3.31-3.981-4.1-4.262-2.07-8.742-3.698-13.17-5.415-.744-.289-1.658-.139-3.33-.244,1.236,1.842,1.874,3.111,2.798,4.12,7.072,7.725,12.919,16.348,16.565,26.103,6.172,16.513,11.895,33.204,17.392,49.956,4.822,14.695,7.494,29.929,10.262,45.124,1.364,7.489,4.295,14.684,4.137,22.47-.014,.707,.573,1.708,1.184,2.101,3.602,2.319,5.294,5.879,6.539,9.724,2.221,6.857,4.329,13.752,6.555,20.607,3.37,10.378,6.017,20.901,6.037,31.891,.026,14.788-.093,29.577-.164,44.365-.177,36.29-.35,72.58-.582,108.87-.011,1.721,.666,2.503,2.178,2.84,1.158,.258,2.424,.292,3.447,.81,.671,.34,1.334,1.343,1.382,2.089,.051,.811-.614,1.668-.967,2.505-.723-.334-1.505-.58-2.154-1.022-1.116-.76-2.149-1.642-3.217-2.473-.392,6.183-2.194,12.477,4.742,16.07-1.384,2.106-2.615,3.983-5.518,2.948v29.275c-.046,2.106-.092,4.212-.137,6.317,.029,20.576,.057,41.153,.086,61.729-.005,5.407-.1,10.817,.006,16.222,.144,7.361,.442,14.719,.674,22.078,.396,2.707,.792,5.413,1.188,8.12-.151,4.151-.295,8.303-.454,12.454-.787,20.434,1.717,40.702,3.124,61.025,.055,.789,.582,1.545,.967,2.513,2.126-2.484,2.811-4.336,2.977-8.074,.245-5.514,.44-11.031,.63-16.548,.225-6.535,.449-13.071,.624-19.608,.284-10.61,.527-21.222,.787-31.833,.124-4.477,.248-8.954,.371-13.431,.225-9.291,.449-18.582,.674-27.873,.053-2.537,.106-5.074,.159-7.611,.103-1.386,.205-2.772,.308-4.157-.497-4.863-.995-9.725-1.492-14.588,.007-1.051,.014-2.101,.021-3.152,.29-4.995,.643-9.987,.822-14.985,.038-1.069-.246-2.421-.906-3.195-2.607-3.056-2.62-3.305,1.137-4.666,0-2.743,.002-5.538,0-8.334-.018-25.792-.036-51.585-.054-77.377,.002-2.925,.005-5.849,.007-8.774,.018-19.965-.136-39.932,.112-59.894,.172-13.791-.912-27.592,.346-41.371,.023-.252,.037-.519-.018-.762-.68-3.02-1.71-6.021-.073-9.084,.192-.359-.007-1.036-.212-1.479-1.125-2.432-.55-4.9-.432-7.42,.555-11.886,.673-23.772-1.05-35.599-.464-3.188-.817-6.393-1.222-9.59l.727-.22c.355,.685,.772,1.346,1.056,2.059,2.903,7.272,3.86,14.903,3.853,22.649-.034,43.073-.131,86.145-.216,129.218-.067,34.237-.164,68.474-.215,102.711-.026,17.5,.019,35,.032,52.5,.015,11.313,.03,22.626,.045,33.939-.01,1.786-.02,3.571-.03,5.357,.102,16.735,.135,33.47,.321,50.204,.368,33.202-.88,66.433,1.673,99.595,.225,2.917,1.149,5.794,1.917,8.645,.223,.828,1.033,1.497,1.574,2.239,.764-1.009,1.005-1.803,1.03-2.604,.332-10.44,.655-20.88,.937-31.321,.36-13.329,.712-26.658,1.013-39.988,.424-18.767,.797-37.535,1.201-56.303,.022-1.017,.167-2.032,.19-3.05,.202-9.168,.389-18.335,.58-27.503,.046-6.032,.092-12.065,.138-18.097ZM636.322,351.167c.341,.006,.681,.012,1.022,.017,.049-.788,.133-1.575,.142-2.363,.174-14.857,.334-29.715,.509-44.572,.167-14.177,.343-28.354,.522-42.531,.162-12.818,.354-25.636,.493-38.455,.195-18.086,.348-36.172,.54-54.258,.012-1.094-.111-2.344,.354-3.253,3.745-7.319,8.405-13.632,17.407-14.826,.639-.085,1.239-.461,1.857-.702,.084-.273,.168-.546,.252-.819-12.732-1.21-17.629-10.788-22.346-20.732-1.928,3.535-3.344,6.862-5.412,9.718-2.066,2.852-4.45,5.719-7.312,7.677-2.749,1.881-6.288,2.606-9.525,3.856,.24,.337,.31,.511,.44,.6,.204,.14,.445,.308,.675,.317,5.95,.216,10.277,3.487,13.648,7.904,2.045,2.68,4.311,5.886,4.639,9.046,.804,7.74,.573,15.589,.698,23.396,.196,12.223,.362,24.447,.504,36.672,.193,16.641,.379,33.283,.515,49.925,.082,10.025,.04,20.05,.099,30.075,.067,11.372,.189,22.743,.275,34.115,.023,3.064,.004,6.129,.004,9.194ZM29.056,149.366c.114,.332,.228,.664,.342,.995,.593,.195,1.173,.497,1.78,.57,9.17,1.11,13.775,7.553,17.506,14.991,.286,.569,.245,1.329,.263,2.002,.179,6.616,.393,13.231,.494,19.848,.207,13.582,.353,27.165,.522,40.748,.171,13.668,.379,27.335,.501,41.003,.212,23.863,.369,47.726,.548,71.589,.009,1.189-.03,2.381,.027,3.567,.023,.478,.247,.946,.38,1.418,.464-.646,.569-1.221,.577-1.797,.179-13.667,.345-27.335,.518-41.003,.165-12.988,.337-25.976,.503-38.964,.172-13.413,.365-26.825,.507-40.238,.198-18.595,.356-37.191,.542-55.786,.008-.759-.076-1.617,.233-2.261,3.576-7.453,8.216-13.729,17.168-15.093,.74-.113,1.453-.407,2.179-.618,.129-.313,.258-.625,.386-.938-12.875-1.057-17.664-10.727-22.575-20.692-4.798,10.068-9.604,19.605-22.402,20.657Zm303.823,245.418c-.683-1.096-1.314-2.223-2.054-3.273-3.559-5.055-9.689-6.919-13.919-11.167-1.303-1.309-2.8-2.509-4.406-3.401-.997-.554-2.367-.436-3.569-.619,.042,1.189-.113,2.43,.177,3.555,.333,1.292,1.007,2.51,1.626,3.713,2.206,4.288,4.338,8.621,6.725,12.807,1.459,2.558,3.122,5.069,5.078,7.257,2.26,2.528,6.482,2.284,7.619-.335,1.134-2.613,1.762-5.445,2.721-8.535Zm28.441,11.065c3.093-.502,4.996-1.478,7.022-5.065,3.87-6.849,7.413-13.883,11.085-20.844,.157-.298,.351-.63,.351-.946,0-.881,.177-1.949-.252-2.574-.257-.374-1.728-.367-2.299,.008-2.46,1.615-4.762,3.469-7.175,5.16-1.915,1.342-4.08,2.377-5.825,3.902-2.783,2.432-5.355,5.113-7.896,7.802-.41,.434-.394,1.502-.234,2.199,.567,2.469,1.036,5.012,2.038,7.31,.542,1.242,2.09,2.046,3.184,3.048Z" fill="#0e0e23"/>
      <path d="M299.021,778.535v-29.275c2.903,1.035,4.134-.842,5.518-2.948-6.936-3.593-5.134-9.887-4.742-16.07,1.068,.831,2.101,1.713,3.217,2.473,.649,.442,1.432,.688,2.154,1.022,.353-.837,1.018-1.693,.967-2.505-.047-.745-.711-1.749-1.382-2.089-1.023-.518-2.289-.552-3.447-.81-1.513-.337-2.189-1.119-2.178-2.84,.233-36.29,.406-72.58,.582-108.87,.072-14.788,.19-29.577,.164-44.365-.019-10.99-2.666-21.514-6.037-31.891-2.226-6.856-4.334-13.75-6.555-20.607-1.246-3.846-2.937-7.405-6.539-9.724-.611-.393-1.199-1.394-1.184-2.101,.158-7.786-2.773-14.982-4.137-22.47-2.768-15.196-5.44-30.429-10.262-45.124-5.497-16.752-11.221-33.443-17.392-49.956-3.646-9.755-9.493-18.378-16.565-26.103-.923-1.009-1.562-2.278-2.798-4.12,1.671,.105,2.585-.044,3.33,.244,4.427,1.717,8.907,3.345,13.17,5.415,1.628,.79,3.074,2.476,3.981,4.1,1.219,2.185,2.8,3.13,5.138,2.837,2.295-.287,4.05,.345,5.661,2.087,2.04,2.206,4.574,3.546,7.663,4.172,2.127,.431,4.049,1.913,6.036,2.975,.435,.233,.706,.771,1.14,1.008,6.255,3.409,12.528,6.783,18.718,10.313,.876,.499,2.15,.417,3.238,.407,5.485-.053,10.133,1.934,13.981,5.757,6.598,6.554,12.296,13.818,17.114,21.788,2.792,4.619,2.423,9.438,1.041,14.254-.694,2.418-2.297,4.577-2.983,6.996-.58,2.044-1.109,4.521-.479,6.412,1.84,5.523,1.487,11.237,2.252,16.841,.261,1.909,.999,3.747,1.384,5.645,.469,2.316,1.037,4.65,1.132,6.994,.175,4.326,.054,8.666,.02,12.999-.016,1.996,.712,3.374,2.697,4.102,1.826,.67,3.551,1.612,5.357,2.342,2.396,.968,3.681,2.691,3.677,5.264-.009,5.354-.045,10.709-.161,16.061-.023,1.069-.511,2.119-.681,3.195-.14,.889-.265,1.821-.152,2.703,.264,2.07,.978,4.121,.982,6.18,.059,33.658,.036,67.316,.026,100.974,0,.849-.057,1.697-.088,2.547-1.058,.492-2.195,.863-3.157,1.5-1.725,1.142-1.548,2.062,.327,2.964,1.022,.492,1.942,1.196,2.908,1.804-.012,16.993-.024,33.986-.036,50.979-1.49,.15-2.782,.09-3.652-1.533-.342-.638-1.45-.864-2.209-1.278-.371,.808-1.163,1.701-1.021,2.406,.251,1.245,.776,2.791,1.719,3.458,1.491,1.055,3.422,1.488,5.166,2.184-.004,15.587-.007,31.174-.011,46.761-3.936,.271-5.329,1.717-5.636,6.345,1.516-2.883,3.603-2.19,5.659-1.653-.012,4.896-.023,9.792-.035,14.688-2.133-.852-4.266-1.704-5.676-2.267,.228,1.502,.412,3.372,.827,5.191,.247,1.083,.649,2.261,1.351,3.078,.971,1.131,2.29,1.962,3.459,2.922,.039,9.92,.1,19.839,.112,29.759,.019,15.773,.024,31.546-.038,47.319-.005,1.178-.651,2.343-.891,3.536-.175,.87-.311,1.789-.225,2.663,.305,3.097,.714,6.184,1.083,9.276-.381,.556-.734,1.134-1.151,1.661-.736,.931-1.13,2.493-2.887,1.681-1.729-.8-2.358-2.054-1.734-3.928,.334-1.003,.508-2.059,.815-3.349-1.184,.337-1.966,.63-2.775,.777-2.694,.49-4.295-.636-4.698-3.243-.353-2.284,.766-3.384,3.626-3.733,.902-.11,1.769-.495,3.304-.945-7.012-1.96-7.493-1.67-6.7-7.124,.547,0,1.164,.133,1.688-.031,.827-.259,1.591-.717,2.382-1.092-.437-.751-.721-1.68-1.343-2.216-1.275-1.099-2.731-1.987-4.112-2.962,.009-4.497,.018-8.994,.027-13.491,1.373,.174,2.747,.488,4.119,.48,1.175-.007,2.348-.383,3.522-.595-.314-1.128-.353-2.487-1.039-3.303-.458-.544-1.858-.496-2.798-.386-1.289,.152-2.541,.614-3.809,.943-.008-2.141-.017-4.281-.025-6.421,.809-2.784,3.288-3.931,5.842-5.46-.786-.711-1.303-1.581-1.827-1.586-2.974-.028-3.442-2.189-3.99-4.344,.085-45.704,.171-91.409,.256-137.113,1.883-1.44,3.169-3.351,2.617-5.696-.525-2.233-1.69-4.316-2.573-6.464,.023-29.641-.003-59.283,.095-88.924,.037-11.251-1.041-22.359-3.263-33.381-.537-2.666-.668-5.413-.986-8.123-.224,0-.448,0-.671-.001-.06,.265-.178,.531-.172,.794,.169,8.315,.296,16.631,.543,24.943,.263,8.822,1.283,17.68,.762,26.45-.397,6.673,.671,13.215,.306,19.846-.364,6.605-.079,13.245-.086,19.87-.009,9.257-.023,18.515-.035,27.772-1.507,1.148-2.006,.019-2.593-1.096-.992-1.888-2.052-3.74-3.083-5.608-.323,.144-.647,.288-.97,.432,.304,2.131,.548,4.273,.925,6.391,.797,4.486,1.232,4.84,5.687,5.02,.019,6.195,.061,12.39,.031,18.584-.004,.902-.416,1.794-.527,2.704-.162,1.326-.397,2.678-.297,3.996,.386,5.121,1.134,10.225,1.295,15.35,.216,6.867,.077,13.748-.046,20.621-.043,2.419-.659,4.827-.705,7.246-.042,2.21,.334,4.428,.522,6.597-2.406,1.424-3.378-.327-4.59-1.765,1.211,2.541,.441,6.09,4.121,7.251,.308,.097,.426,1.194,.423,1.825-.03,5.855-.097,11.711-.181,17.566-.01,.66,.021,1.477-.332,1.949-1.55,2.079-.746,3.978-.233,6.211,.667,2.901,.371,6.024,.489,9.051-1.459,.482-2.917,.964-4.376,1.446-.096,.228-.192,.456-.288,.684,1.562,.684,3.123,1.367,4.685,2.051-.379,2.371-.763,4.742-1.134,7.115-.077,.494-.328,1.133-.12,1.474,2.277,3.737,.832,7.793,1.012,11.687,.21,4.529,.049,9.074,.049,13.613-.237,.076-.474,.152-.712,.228-1.112-.905-2.224-1.81-3.674-2.991-.02,2.536,.227,4.238,2.583,5.04,.683,.232,1.516,1.305,1.531,2.009,.097,4.58-.013,9.164-.055,13.747-1.437-.025-2.885-.162-4.307-.028-.747,.071-1.699,.449-2.079,1.012-.232,.344,.265,1.546,.765,1.919,.545,.406,1.507,.495,2.225,.369,1.155-.203,2.258-.696,3.383-1.066-.01,3.676-.021,7.351-.031,11.027-1.008,.413-2.082,.719-3.003,1.278-.656,.398-1.518,1.101-1.575,1.732-.269,2.977,1.24,4.551,4.438,4.96-.014,2.707-.027,5.414-.041,8.121-1.379,.669-2.401,.159-2.797-1.176-1.249-4.216-4.882-3.751-8.043-4.249-.013-17.5-.058-35-.032-52.5,.051-34.237,.148-68.474,.215-102.711,.085-43.073,.182-86.145,.216-129.218,.006-7.746-.95-15.377-3.853-22.649-.285-.713-.701-1.374-1.056-2.059l-.727,.22c.404,3.197,.757,6.402,1.222,9.59,1.722,11.827,1.605,23.713,1.05,35.599-.118,2.521-.693,4.988,.432,7.42,.205,.443,.404,1.12,.212,1.479-1.636,3.063-.607,6.064,.073,9.084,.055,.244,.041,.51,.018,.762-1.258,13.779-.174,27.581-.346,41.371-.248,19.962-.094,39.929-.112,59.894-.645,1.175-1.324,2.334-1.928,3.53q-1.891,3.74,1.921,5.244c.018,25.792,.036,51.585,.054,77.377,.002,2.795,0,5.591,0,8.334-3.757,1.361-3.744,1.61-1.137,4.666,.661,.774,.945,2.127,.906,3.195-.179,4.999-.532,9.991-.822,14.985-1.076-.133-2.152-.266-3.229-.398l-.468,.729c1.225,.94,2.45,1.881,3.675,2.821,.497,4.863,.995,9.725,1.492,14.588-.833-.376-1.799-.593-2.473-1.159-1.542-1.296-2.83-2.909-4.427-4.124-2.224-1.693-3.161-1.228-3.712,.938,2.333,2.063,4.383,3.944,6.511,5.73,1.197,1.004,2.524,1.853,3.792,2.772-.053,2.537-.106,5.074-.159,7.611-1.301-.386-2.669-.627-3.889-1.189-2.6-1.197-5.123-2.561-7.677-3.856-.029-20.576-.057-41.153-.086-61.728,1.938,1.486,3.695,3.339,6.828,3.337-1.479-4.005-3.778-7.034-6.69-9.655Zm10.367-304.55c.282-.099,.564-.197,.846-.296,.114-.384,.345-.773,.324-1.15-.408-7.623-.855-15.244-1.272-22.866-.171-3.123-.406-6.25-.388-9.374,.011-1.916,.5-3.824,.68-5.745,.207-2.204-1.038-3.157-3.065-3.628-1.531-.356-3.367-.692-4.394-1.713-6.321-6.287-12.474-12.744-18.606-19.217-.536-.565-.523-1.651-.765-2.494,.869-.083,1.823-.439,2.593-.202,4.292,1.319,8.536,2.794,12.806,4.186,.861,.281,1.762,.438,2.644,.652,.119-.234,.237-.469,.356-.703-1.215-1.119-2.283-2.48-3.668-3.316-9.077-5.477-18.221-10.843-27.349-16.236-.362-.214-.872-.568-1.156-.456-1.501,.592-3.121,1.11-4.315,2.112-.35,.293,.279,2.305,.939,3.16,4.4,5.706,9.295,11.064,13.35,16.998,12.034,17.609,20.894,36.861,28.486,56.73,.479,1.252,1.294,2.376,1.952,3.56Zm12.859,33.735c1.072,1.43,3.038,1.94,5.225,1.851,1.537-.063,1.982-1.207,1.386-2.291-.698-1.27-1.883-2.273-2.857-3.392-.239,.224-.488,.439-.716,.675-.963,.994-1.92,1.994-3.038,3.157Zm15.536,150.534c-1.044-1.137-1.848-2.013-2.652-2.889-.641,.787-1.978,1.939-1.793,2.294,.541,1.034,1.668,1.78,2.656,2.516,.061,.045,.914-.975,1.788-1.92Zm-20.076,46.832l.512,.807c.834-.305,2.322-.52,2.378-.931,.159-1.172-.264-2.422-.458-3.642-.303-.012-.607-.024-.91-.036-.507,1.267-1.015,2.534-1.522,3.801Zm19.05-117.753c-1.156-.898-1.812-1.407-2.468-1.916-.451,.632-1.112,1.219-1.263,1.916-.075,.343,.798,1.265,1.234,1.259,.648-.009,1.289-.607,2.497-1.259Zm-17.888,4.491c-.447,.163-.895,.326-1.342,.49,.309,1.093,.618,2.186,.927,3.279,.559-.247,1.623-.642,1.601-.717-.308-1.043-.765-2.042-1.186-3.051Zm1.371,211.77l-.165-.102-.015,.174,.18-.072Z" fill="#72a7e9"/>
      <path d="M388.98,651.469c.088,20.796,.169,41.592,.267,62.387,.044,9.421,.145,18.842,.149,28.263,0,.887-.336,2.373-.835,2.524-.809,.244-1.904-.33-2.836-.672-.583-.214-1.089-.634-1.735-1.025-.397,3.739,.384,4.794,3.54,4.904,1.547,.054,1.998,.783,1.995,2.25-.029,15.957-.013,31.913-.009,47.871-.446,.388-.874,.801-1.342,1.16-2.685,2.056-2.778,3.349-.434,5.65,.663,.651,1.244,1.383,1.863,2.079,.029,3.904,.057,7.807,.086,11.711-3.093-2.675-6.746-3.893-10.77-4.146-.279-2.782-.788-5.562-.801-8.345-.101-21.152-.106-42.305-.14-63.457,.544-1.143,1.038-2.312,1.64-3.423,2.307-4.258,1.872-7.224-1.602-10.59-.034-8.45-.073-16.9-.082-25.35,0-.373,.278-.746,.427-1.119,1.716,.375,3.432,.749,5.766,1.259-.377-1.442-.445-3.156-1.24-4.407-1.237-1.945-2.97-3.576-4.493-5.34-.163-.791-.469-1.583-.469-2.374-.023-24.54-.033-49.081,.013-73.621,.005-2.531,.586-5.068,.512-7.591-.076-2.596-.627-5.178-.971-7.765,2.041-1.433,4.082-2.866,6.021-4.229-2.078-1.897-3.977-3.63-5.876-5.363,1.144-2.65,.752-5.349,.601-8.143-.774-14.343-.423-28.653,2.126-42.843,.127-.705,.109-1.436-.161-2.239-2.177,3.022-3.326,6.364-3.828,10.042-3.182,23.319-.676,46.749-1.442,70.114-.022,.678-.047,1.355-.07,2.033-3.709,1.083-3.677,1.06-1.477,4.025,.321,.433,.411,1.317,.2,1.822-1.608,3.849-1.629,3.889,1.315,6.884,.068,21.699,.129,43.398,.209,65.097,.029,7.712,.104,15.423,.158,23.134-.006,1.047-.012,2.096-.018,3.145,.002,1.664,.005,3.328,.007,4.991-.242,1.4-.44,2.812-.741,4.2-.255,1.174-.266,2.769-1.028,3.391-1.679,1.373-1.333,2.816-.657,4.239,.56,1.18,1.572,2.145,2.384,3.205,.019,19.455,.039,38.909,.058,58.363-2.101-.806-4.201-1.613-6.564-2.52,.439,4.708,1.72,6.02,6.575,7.316,.01,1.825,.019,3.649,.029,5.474-4.64,1.248-4.27,1.278-4.64,5.878-.314,3.902,2.329,3.776,4.602,4.492,.018,1.989,.036,3.979,.053,5.968-1.325,1.19-2.631,2.402-3.98,3.564-1.693,1.457-1.797,3.176-.335,4.649,1.218,1.227,2.865,2.028,4.321,3.018-.002,1.695-.005,3.389-.007,5.084-.743,.148-1.481,.346-2.231,.436-3.556,.425-4.409,2.046-2.283,4.968,1.218,1.673,2.96,2.963,4.467,4.425-.008,3.476-.016,6.951-.024,10.427-3.289,2.373-3.286,2.84,.024,4.33,0,3.856-.001,7.711-.002,11.567-.299,.143-.619,.256-.894,.437-.702,.464-1.384,.958-2.074,1.441,.648,.544,1.282,1.107,1.952,1.623,.257,.198,.596,.288,.898,.427,.02,1.725,.039,3.449,.059,5.174-.587,.317-1.182,.621-1.759,.955-3.223,1.86-3.782,1.74-6.39-1.05-.658-.704-1.541-1.197-2.321-1.786-.004-2.688-.008-5.376-.011-8.065,1.815-.846,3.928-1.357,5.364-2.63,1.546-1.37,.877-8.465-.649-10.079-1.445-1.528-1.881-2.643-.063-4.407,1.034-1.004,1.147-2.957,1.674-4.483-1.763,.055-3.53,.054-5.284,.207-.416,.037-.787,.594-1.178,.912-.204-20.481-.407-40.962-.612-61.443-.008-.764-.041-1.528-.062-2.292,.468-.882,.788-1.895,1.43-2.623,2.324-2.633,2.359-2.623-.677-4.145-.299-.15-.562-.373-.842-.561-.006-1.254-.012-2.508-.018-3.762,.936-1.056,1.699-2.5,2.873-3.026,.741-.332,2.097,.706,3.465,1.243,.261-3.766,.153-7.005-3.009-9.53-1.385-1.106-2.296-2.806-3.422-4.236-.016-4.951-.688-9.942,2.075-14.585,.516-.867-.458-2.666-.836-4.009-.39-1.386-1.263-2.734-1.288-4.111-.234-12.951-.332-25.905-.469-38.858,1.087,.003,2.228,.201,3.237-.077,.462-.127,1.108-1.522,.917-1.775-1.281-1.702-2.764-3.252-4.182-4.851-.007-6.033-.125-12.07,.032-18.099,.068-2.592,.737-5.164,1.075-7.753,.163-1.252,.345-2.533,.25-3.781-.21-2.758-.846-5.502-.858-8.254-.064-15.72,.004-31.44,.028-47.16,1.466-.283,3.002-.38,4.376-.902,1.29-.49,1.464-1.433,.237-2.463-1.166-.979-2.157-2.165-3.319-3.149-.216-.183-.877,.158-1.333,.258-.011-7.81-.19-15.626,.049-23.428,.093-3.055,.1-6.078,.092-9.119-.029-10.167,.835-20.333,1.118-30.506,.208-7.454,.041-14.918,.041-23.109-.465,1.056-.778,1.491-.846,1.962-1.068,7.462-2.349,14.905-3.075,22.402-.645,6.657-.899,13.373-.923,20.064-.082,23.177,.012,46.355,.035,69.533,0,.593-.058,1.185-.089,1.778-1.463-1.333-2.926-2.667-4.541-4.139-.458,.735-.812,1.497-1.346,2.098-.411,.462-1.029,.981-1.588,1.022-1.408,.104-2.708-2.407-2.793-4.858-.063-1.829,.792-2.278,2.462-2.301,.866-.012,2.464-.684,2.46-1.044-.021-1.888-.448-3.772-.817-6.203-1.651,1.474-2.642,2.358-3.285,2.932-1.489-.334-2.612-.586-3.735-.838-.028-26.857-.056-53.714-.082-80.571-.006-5.609,.11-11.222-.066-16.826-.064-2.042,.424-3.475,2.176-4.469,1.63-.924,1.98-1.636,.281-3.167-1.171-1.055-2.057-2.979-2.154-4.571-.31-5.083-.199-10.192-.237-15.291-.02-2.68,1.268-4.415,3.727-5.502,9.317-4.116,7.896-1.978,8.064-12.309,.062-3.814-.453-7.826,.549-11.395,1.695-6.04,2.403-12.073,2.648-18.285,.115-2.91,1.232-5.774,1.837-8.671,.729-3.495-1.466-6.197-2.733-9.072-3.066-6.958-2.947-13.56,1.802-19.656,5.003-6.42,10.06-12.814,15.418-18.935,3.366-3.846,7.966-5.836,13.166-5.706,4.522,.114,7.927-1.997,11.191-4.723,1-.835,2.193-1.586,3.423-1.97,3.54-1.105,6.661-2.755,9.482-5.245,1.572-1.388,3.737-2.447,5.794-2.862,3.173-.639,5.743-2.071,7.85-4.348,1.479-1.597,3.11-2.209,5.217-1.911,2.449,.347,4.2-.498,5.347-2.862,1.141-2.351,3.016-3.917,5.634-4.811,3.764-1.287,7.374-3.022,11.084-4.477,.908-.356,1.951-.366,2.932-.535l.429,.768c-.761,1.153-1.381,2.437-2.306,3.439-7.674,8.319-13.463,17.852-17.627,28.295-9.856,24.719-18.334,49.94-23.414,76.073-2.231,11.476-5.416,22.762-6.953,34.356-.484,3.647-.842,6.646-4.049,9.424-3.568,3.09-4.849,7.957-5.383,12.784-.093,.843-.972,1.571-1.217,2.43-2.953,10.38-6.098,20.715-8.658,31.192-1.116,4.564-1.347,9.426-1.387,14.157-.111,13.341,.086,26.684,.161,40.026,.012,1.212,.023,2.426,.035,3.639,.043,9.294,.086,18.587,.129,27.881-.287,.418-.543,.862-.867,1.25-2.62,3.146-2.593,3.351,.859,5.704Zm-10.843-177.764c.28,.093,.561,.187,.841,.28,.681-1.123,1.483-2.19,2.023-3.376,5.894-12.957,11.354-26.13,17.722-38.848,6.395-12.771,14.243-24.7,24.187-35.12,.704-.737,1.312-2.642,.9-3.163-1.162-1.472-2.807-3.067-5.002-1.776-9.573,5.63-19.118,11.308-28.619,17.057-1.113,.673-1.893,1.895-2.827,2.863,.153,.2,.307,.401,.46,.601,.863-.252,1.735-.479,2.589-.759,4.185-1.375,8.347-2.822,12.561-4.1,.839-.255,1.869,.117,2.811,.2-.27,.842-.479,1.71-.834,2.514-.197,.446-.619,.803-.972,1.169-5.361,5.567-10.621,11.238-16.163,16.62-1.527,1.483-3.956,2.001-5.86,3.147-1.118,.673-2.523,1.54-2.889,2.626-.485,1.442-.131,3.185-.05,4.794,.14,2.755,.616,5.521,.477,8.258-.407,8.045-1.062,16.077-1.577,24.117-.061,.956,.14,1.929,.22,2.895Zm12.718,52.025c.086-1.49,.316-2.771,.19-4.016-.133-1.308-.374-2.716-1.018-3.818-.386-.661-1.723-1.24-2.469-1.083-.744,.157-1.856,1.309-1.821,1.973,.209,3.952,.579,7.909,1.224,11.81,.11,.665,1.774,1.289,2.799,1.458,.32,.053,1.197-1.42,1.288-2.253,.154-1.406-.116-2.858-.193-4.072Zm-20.736,173.898c1.074-2.288,.255-4.468-.464-6.557-.201-.585-1.701-1.364-1.895-1.202-.922,.768-2.366,1.974-2.218,2.761,.437,2.334,1.656,4.431,4.578,4.999Zm-3.737-186.27c-.492-1.245-.966-2.669-1.632-3.996-.202-.403-.984-.806-1.411-.727-.448,.083-1.119,.742-1.122,1.153-.016,1.998,.078,4.008,.326,5.989,.06,.476,.843,1.178,1.32,1.201,.526,.025,1.262-.498,1.583-.992,.439-.674,.573-1.547,.936-2.627Zm-9.453,78.829c-.869-.163-1.627-.306-2.362-.444-.168-1.755,.012-3.645-3.03-2.868,1.29,2.628,2.56,4.899,5.393,6.45v-3.139Zm31.012-98.98c-.683,1.381-1.228,2.482-1.773,3.583,.855,.035,1.931,.416,2.521,.038,1.536-.983,.786-2.084-.749-3.621Z" fill="#72a7e9"/>
      <path d="M461.541,315.141c3.544-.123,7.089-.256,10.634-.359,.673-.02,1.412-.08,2.011,.155,1.564,.613,4.25,1.254,4.342,2.112,.173,1.617-.825,3.664-1.932,5.061-4.924,6.216-10.059,12.266-15.117,18.376-.133,.102-.288,.186-.397,.31-10.144,11.543-6.428,8.408-20.374,12.344-28.405,8.016-56.875,15.804-85.336,23.618-.937,.257-2.075-.22-3.119-.355,.247-1.228,.105-2.789,.816-3.618,1.76-2.05,3.856-3.829,5.919-5.597,1.947-1.669,2.399-3.577,1.462-5.918-.725-1.81-1.322-3.674-2.096-5.463-.725-1.677-1.273-3.116-.088-4.989,1.068-1.687-1.644-5.631-3.837-5.961-.834-.126-1.696-.086-2.545-.094-4.395-.042-5.083-.743-5.084-5.24-.003-13.514-.002-27.029-.002-40.543,.002-62.047,.004-124.094,.007-186.141,0-.68-.038-1.364,.021-2.039,.201-2.281,1.296-3.005,3.418-2.231,.711,.259,1.381,.644,2.044,1.018,15.817,8.931,31.657,17.824,47.404,26.876,1.545,.888,2.979,2.569,3.685,4.217,4.243,9.9,8.255,19.9,12.352,29.863,1.083,2.633,.723,3.367-1.923,4.353-3.409,1.271-6.463,1.698-10.175-.02-2.777-1.285-6.499-.812-9.78-.666-6.221,.275-6.184,.41-6.08,6.713,.022,1.343-.301,2.688-.394,4.036-.069,1.002-.13,2.025-.006,3.015,.364,2.902,1.139,5.786,1.187,8.687,.155,9.432,.059,18.868,.057,28.303-.003,12.418,.057,24.837-.058,37.255-.032,3.459-.604,6.911-.895,10.37-.085,1.011-.237,2.067-.05,3.043,1.878,9.769,1.205,19.546,.29,29.342-.126,1.354,.344,2.768,.573,4.149,.191,1.155,.703,2.327,.6,3.448-.304,3.284,.56,6.149,2.332,8.883,1.521,2.347,2.757,4.879,4.255,7.243,1.244,1.963,2.186,1.836,3.703,.066,4.309-5.029,8.645-10.038,13.089-14.946,2.224-2.456,3.536-2.622,6.537-1.073,5.629,2.906,11.514,4.443,17.895,3.989,8.214-.584,16.436-1.067,24.655-1.593Zm-97.427,14.196c-2.234-46.805,.067-93.24-.633-139.774-3.259,1.085-4.963,3.304-4.95,6.152,.146,30.318,.213,60.636,.493,90.953,.094,10.164-.933,20.388,1.068,30.483,.81,4.086,1.252,8.318,4.021,12.186Zm13.48-149.57c-2.875,2.125-4.386,3.751-4.353,6.894,.168,16.062,.077,32.127,.076,48.191-.002,25.753,.058,51.507-.057,77.26-.025,5.689,3.536,9.344,6.455,13.475,.019-1.075-.32-2.028-.489-3.01-.642-3.735-1.731-7.476-1.756-11.221-.161-24.061-.155-48.123-.063-72.185,.07-18.351,.354-36.701,.518-55.052,.011-1.223-.181-2.448-.332-4.352Z" fill="#72a7e9"/>
      <path d="M227.01,340.456c-5.018-6.072-10.037-12.143-15.053-18.216-.539-.652-1.152-1.262-1.582-1.981-1.623-2.716-.787-4.719,2.374-5.046,3.102-.32,6.252-.197,9.381-.215,1.608-.009,3.217,.099,4.826,.155,10.087,.499,20.18,1.439,30.257,1.285,4.188-.064,8.423-2.257,12.477-3.88,2.387-.955,4.298-.98,5.988,.901,4.481,4.99,8.943,10,13.295,15.102,1.706,2,2.676,2.18,4.004-.04,2.047-3.421,3.996-6.905,5.858-10.43,.443-.838,.369-1.948,.538-2.931,.408-2.379,.862-4.751,1.208-7.14,.143-.988,.098-2.01,.07-3.015-.245-8.646-1.384-17.391-.427-25.9,.557-4.952-.355-9.542-.339-14.294,.083-24.047,.015-48.095,0-72.142,0-.34-.115-.745,.028-1.01,2.614-4.841,.01-10.029,1.016-14.972,.297-1.461-.262-2.247-1.857-2.286-3.226-.079-6.452-.36-9.674-.318-1.752,.023-3.847,.024-5.179,.93-3.934,2.674-7.353,.559-10.812-.748-.611-.231-1.152-2.289-.814-3.141,4.229-10.637,8.575-21.229,13.053-31.764,.504-1.185,1.858-2.192,3.052-2.873,15.922-9.08,31.884-18.09,47.84-27.111,3.839-2.17,5.155-1.38,5.156,3.089,.004,75.796,.006,151.593,.006,227.389,0,4.096-.791,4.882-4.897,4.909-4.249,.028-5.449,.791-6.53,4.203-.15,.474-.423,1.188-.213,1.452,1.973,2.483,.313,4.628-.51,6.866-2.923,7.95-3.271,6.952,3.022,12.688,1.129,1.029,2.439,1.965,3.237,3.217,.535,.838,.537,2.21,.303,3.234-.077,.336-1.734,.652-2.52,.436-31.89-8.769-63.769-17.574-95.617-26.491-1.683-.471-3.271-1.755-4.576-3.003-2.264-2.162-4.272-4.591-6.388-6.908Zm97.994-150.893c-.65,46.631,1.61,93.017-.637,140.18,.887-1.753,1.7-2.786,1.944-3.938,1.135-5.381,2.952-10.786,3.013-16.2,.426-38.046,.479-76.095,.646-114.144,.012-2.626-1.777-4.851-4.966-5.898Zm-13.911-9.526c-.213,1.296-.518,2.239-.496,3.175,.122,5.091,.463,10.179,.477,15.269,.057,20.965,.024,41.93,.024,62.896,0,16.313-.035,32.626,.028,48.938,.017,4.369-.21,8.646-1.983,12.722-.335,.77-.404,1.656-.595,2.488l.642,.21c2.491-4.462,6.106-8.188,6.084-14.053-.152-41.546-.123-83.093-.018-124.639,.008-3.142-1.113-5.127-4.163-7.006Z" fill="#72a7e9"/>
      <path d="M341.531,907.693c-.114,14.44-.219,28.879-.346,43.319-.17,19.369-.164,38.743-.589,58.107-.484,22.073-1.353,44.137-2.068,66.204-.481,14.853-.972,29.705-1.484,44.557-.286,8.316-.62,16.63-.949,24.944-.021,.542-.189,1.078-.289,1.617-.216,.038-.431,.076-.647,.114-.358-1.22-.908-2.42-1.041-3.665-.75-7.002-1.566-14.003-2.051-21.026-1.111-16.087-2.285-32.176-2.975-48.284-.568-13.234-.586-26.495-.657-39.745-.223-41.462-.358-82.924-.519-124.387-.006-1.442,.076-2.885,.117-4.327,1.966,2.508,3.69,2.663,6.038,.158,1.258-1.342,2.076-1.11,3.077,.041,.556,.639,1.133,1.272,1.603,1.973,.806,1.205,1.721,1.189,2.78,.398Z" fill="#232a77"/>
      <path d="M347.304,932.262c-.115-9.224-.231-18.448-.346-27.672,.405,.541,.9,1.037,1.2,1.631,.995,1.97,1.834,4.021,2.888,5.956,2.332,4.284,5.765,4.565,8.709,.791,.207-.265,.466-.488,.7-.731,0,8.766,.002,17.532,.003,26.298-4.896-4.883-5.478-4.845-7.399,.488-.024,.067,.025,.16-.019-.076,1.278,1.207,2.598,2.075,3.387,3.288,1.122,1.725,2.274,2.137,3.975,1.013,.044,3.904,.127,7.808,.124,11.713-.009,14.101-.003,28.203-.082,42.304-.128,22.762-.132,45.527-.571,68.284-.195,10.083-1.376,20.145-2.014,30.223-.53,8.384-.807,16.785-1.406,25.164-.52,7.274-1.301,14.53-2.044,21.786-.132,1.288-.64,2.538-1.592,3.771-.137-.498-.378-.993-.396-1.495-.363-10.351-.695-20.702-1.045-31.053-.666-19.684-1.445-39.364-1.985-59.051-.662-24.104-1.187-48.212-1.654-72.32-.282-14.604-.343-29.212-.494-43.819-.005-.506,.094-1.012,.145-1.518,.842,.615,1.685,1.23,2.506,1.829,3.446-3.966,3.191-5.017-1.368-6.561-.39-.132-.814-.164-1.222-.243Z" fill="#232a77"/>
      <path d="M323.678,887.711c-.192,9.168-.379,18.336-.581,27.503-.022,1.017-.168,2.032-.19,3.05-.404,18.768-.776,37.536-1.201,56.303-.301,13.33-.653,26.66-1.013,39.988-.282,10.441-.605,20.881-.937,31.321-.025,.801-.267,1.595-1.03,2.604-.541-.742-1.351-1.411-1.574-2.239-.768-2.85-1.693-5.728-1.917-8.645-2.553-33.161-1.305-66.392-1.673-99.595-.185-16.734-.219-33.469-.321-50.204,.387-.522,.774-1.045,1.276-1.721,1.277,1.006,2.465,1.825,3.512,2.796,1.377,1.275,2.673,1.265,4.059,.087,.513-.436,1.059-.834,1.59-1.249Z" fill="#232a77"/>
      <path d="M360.39,770.812c.006,6.507,.012,13.013,.019,19.52q-3.219,2.849-.361,6.154c.11,.127,.226,.249,.339,.373,.009,15.151,.018,30.301,.026,45.452-1.129,1.61-2.476,2.21-4.314,1.06-1.489-.932-2.357,.079-3.147,1.155-1.215,1.655-2.916,1.217-4.068,.371-.696-.511-.869-2.15-.756-3.226,.108-1.028,.761-2.082,1.407-2.953,1.567-2.112,1.511-3.766-.443-5.78-2.427-2.503-1.821-4.53,.718-6.832,.982-.89,1.801-3.072,1.381-4.158-.79-2.041-2.531-3.716-3.896-5.527-.04-.053-.309,.067-.47,.107-.002-13.258-.007-26.516,.002-39.774,0-.585,.128-1.17,.198-1.756,1.149-.507,2.373-.897,3.42-1.565,.638-.407,1.152-1.19,1.404-1.915,.082-.236-.845-.817-1.305-1.247-1.21-1.134-2.417-2.272-3.625-3.408-.014-7.391-.028-14.783-.041-22.174,.449-.378,.913-.741,1.345-1.137,3.755-3.437,4.033-3.419,7.144,.465,.087,.108,.304,.111,.46,.163,.003-.202,.006-.404,.009-.606h4.351c.071,5.383,.142,10.766,.213,16.148-.848,.662-1.678,1.349-2.547,1.981-1.669,1.213-1.846,2.905-.598,4.534,1.122,1.466,2.096,3.045,3.135,4.574Z" fill="#72a7e9"/>
      <path d="M360.012,646.79c.019,11.69,.038,23.38,.058,35.071-2.735,1.869-3.088,3.184-1.361,5.311,.41,.505,.972,.887,1.463,1.326,.028,5.446,.056,10.893,.085,16.339-2.93,2.434-3.919-2.556-6.417-1.809-1.04,5.447,1.1,7.599,6.134,6.321,.079-.02,.168,.002,.252,.005,0,5.808,0,11.616,0,17.424-1.102-1.04-2.533-1.893-3.249-3.153-3.462-6.091-6.733-12.292-10.071-18.454-.021-3.517-.042-7.033-.064-10.549,.29-.607,.708-1.186,.848-1.827,.496-2.267,1.593-2.981,3.779-1.829,.763,.402,1.73,.418,2.279,.538-2.289-4.278-4.573-8.549-6.858-12.819-.012-11.668-.024-23.337-.036-35.005,1.698,.849,2.804,3.212,5.429,1.424,3.419-2.328,3.532-2.156,6.576,.724,.363,.343,.766,.643,1.15,.963Z" fill="#72a7e9"/>
      <path d="M375.051,929.978c-.042,5.516-.103,11.032-.121,16.549-.071,21.672,.06,43.347-.276,65.014-.156,10.081-1.094,20.158-1.944,30.215-.195,2.301-1.49,4.51-2.279,6.761-.362-.043-.724-.087-1.085-.13-.206-.888-.57-1.772-.594-2.665-.38-14.181-.716-28.363-1.061-42.545-.528-21.655-1.052-43.31-1.587-64.965-.046-1.859-.164-3.716-.248-5.574,2.344,2.175,4.882,2.33,5.455,.156,.575-2.183,1.87-2.709,3.741-2.816Z" fill="#232a77"/>
      <path d="M360.455,912.238c-.235,.243-.494,.466-.7,.731-2.944,3.773-6.376,3.492-8.709-.791-1.054-1.936-1.894-3.987-2.888-5.956-.3-.594-.794-1.09-1.2-1.631-.041-5.561-.083-11.122-.124-16.682,1.919,2.241,3.761,4.556,5.801,6.68,.645,.67,1.822,.829,2.755,1.222,.228-.999,.839-2.09,.622-2.98-1.32-5.422-4.541-9.546-9.159-12.617-.014-3.572-.027-7.145-.041-10.716,2.876-.05,5.085,.839,6.212,3.806,.393,1.035,1.468,1.812,2.494,3.015,1.974-4.502-.322-7.89-1.055-11.432-.047-.229-1.016-.427-1.522-.365-.743,.091-1.47,.656-2.178,.612-1.096-.068-2.17-.48-3.253-.746,.293-.918,.426-1.938,.926-2.724,.477-.75,1.358-1.234,2.022-1.875,.784-.757,1.71-1.449,2.246-2.362,1.156-1.969,.565-3.151-1.633-3.713-1.398-.358-2.797-.709-4.196-1.064-.008-.472-.015-.944-.023-1.416,.885-.677,1.682-1.561,2.675-1.987,1.915-.821,4.12-1.083,5.876-2.129,2.082-1.241,3.548-1.001,5.004,.724,.026,9.936,.052,19.872,.079,29.808-3.097,1.72-3.193,2.224-.906,4.867,.275,.318,.598,.593,.899,.888,.009,4.039,.019,8.078,.028,12.117-.258,.435-.623,.84-.757,1.31-.832,2.918-2.01,5.372-5.683,5.328-.375-.004-1.204,1.192-1.071,1.558,.715,1.968,1.667,3.85,2.538,5.762,.351-.053,.701-.106,1.052-.159,.646-1.91,1.292-3.819,2.053-6.07,.76,.624,1.313,1.078,1.867,1.533-.018,2.486-.036,4.971-.054,7.457Z" fill="#72a7e9"/>
      <path d="M309.49,892.93c-.26,10.611-.503,21.222-.787,31.833-.175,6.537-.399,13.073-.624,19.608-.19,5.517-.384,11.034-.63,16.548-.166,3.738-.851,5.59-2.977,8.074-.385-.968-.912-1.724-.967-2.513-1.406-20.322-3.91-40.59-3.124-61.025,.16-4.151,.303-8.302,.455-12.453,1.177,.385,2.354,.768,3.531,1.153,1.959,.642,3.776,.692,5.122-1.225Z" fill="#232a77"/>
      <path d="M389.481,846.744c.007,5.402,.195,10.81-.018,16.203-.401,10.119-1.034,20.229-1.571,30.343q-4.176,2.142-7.458-1.279c-.249-.257-.94-.086-1.425-.114-.043-1.677-.085-3.353-.128-5.03,1.279-.825,2.683-1.515,3.782-2.534,.513-.476,.874-1.979,.549-2.344-1.41-1.582-3.099-2.916-4.686-4.34-.005-1.979-.01-3.958-.015-5.937,.602-3.488,4.204-3.375,6.914-5.039-2.775-1.8-6.054-2.354-5.77-6.06-.716,.318-1.158,.515-1.601,.711-.038-3.206-.076-6.412-.114-9.617,.858-.676,1.726-1.34,2.572-2.032,.941-.771,1.753-1.988,2.815-2.262,1.978-.51,4.095-.478,6.154-.671Z" fill="#72a7e9"/>
      <path d="M341.531,907.693c-1.059,.791-1.974,.806-2.78-.398-.469-.701-1.047-1.334-1.603-1.973-1.001-1.151-1.819-1.383-3.077-.041-2.348,2.505-4.072,2.35-6.038-.158-.014-7.766-.028-15.532-.042-23.298,2.485-.52,4.181-1.885,5.156-4.312,.489-1.216,1.395-2.299,2.25-3.328,3.319-3.992,3.745-3.938,6.221,.566-.003,5.882-.007,11.765-.01,17.647-1.208,.832-2.363,1.759-3.638,2.472-1.852,1.035-1.953,1.76-.177,3.007,1.229,.862,2.503,1.659,3.756,2.486-.006,2.443-.013,4.887-.019,7.33Zm-6.307-24.252c-1.898,3.633-1.043,5.166,2.114,4.849-.735-1.687-1.424-3.268-2.114-4.849Z" fill="#72a7e9"/>
      <path d="M298.969,846.581c2.554,1.295,5.077,2.659,7.677,3.856,1.22,.562,2.588,.803,3.889,1.189-.225,9.291-.449,18.582-.674,27.872-1.762-1.506-3.472-1.076-4.999,.301-1.8,1.625-3.481,3.382-5.214,5.082-.232-7.359-.529-14.717-.674-22.078-.106-5.405-.011-10.814-.006-16.222Z" fill="#232a77"/>
      <path d="M332.879,394.783c-.96,3.09-1.587,5.923-2.721,8.535-1.137,2.619-5.358,2.864-7.619,.335-1.956-2.188-3.619-4.698-5.078-7.257-2.387-4.186-4.519-8.519-6.725-12.807-.619-1.203-1.293-2.421-1.626-3.713-.29-1.125-.135-2.366-.177-3.555,1.202,.184,2.572,.066,3.569,.619,1.606,.892,3.103,2.092,4.406,3.401,4.23,4.248,10.36,6.113,13.919,11.167,.74,1.05,1.37,2.177,2.054,3.273Z" fill="#72a7e9"/>
      <path d="M361.32,405.849c-1.094-1.002-2.642-1.805-3.184-3.048-1.002-2.298-1.471-4.841-2.038-7.31-.16-.697-.175-1.765,.234-2.199,2.541-2.689,5.113-5.371,7.896-7.802,1.745-1.525,3.91-2.559,5.825-3.902,2.413-1.691,4.715-3.545,7.175-5.16,.571-.375,2.042-.382,2.299-.008,.43,.625,.252,1.693,.252,2.574,0,.316-.194,.648-.351,.946-3.672,6.961-7.216,13.994-11.085,20.844-2.026,3.587-3.93,4.563-7.022,5.065Z" fill="#72a7e9"/>
      <path d="M346.908,705.17c3.338,6.162,6.608,12.363,10.071,18.454,.716,1.26,2.147,2.113,3.249,3.153-.014,5.599-.027,11.197-.041,16.796-1.45,0-2.901,0-4.351,0-.003,.202-.006,.404-.009,.606-.156-.052-.374-.055-.46-.163-3.111-3.885-3.39-3.903-7.144-.465-.433,.396-.896,.759-1.345,1.137,.016-4.51,.032-9.02,.048-13.53,1.256,.358,2.512,.715,3.786,1.078,.546-3.72,.518-3.734-2.635-4.549-.446-.115-.806-.563-1.206-.857-.01-.713-.02-1.425-.031-2.138,.901-.187,1.801-.378,2.703-.558,.912-.181,1.937-.159,2.698-.598,.44-.254,.833-1.468,.597-1.862-.967-1.623-2.184-3.097-3.308-4.626-.548,.668-1.129,1.312-1.632,2.013-.381,.531-.663,1.133-.988,1.704,0-5.198,0-10.396-.001-15.595Z" fill="#232a77"/>
      <path d="M313.226,848.503c3.161,.498,6.794,.032,8.043,4.249,.395,1.335,1.418,1.845,2.797,1.176-.083,5.229-.166,10.458-.249,15.686-2.661-.622-5.039,.81-5.445,3.71-.527,3.769-2.724,6.46-5.1,9.118-.015-11.313-.03-22.626-.045-33.939Z" fill="#232a77"/>
      <path d="M341.618,874.751c-2.477-4.504-2.903-4.558-6.221-.566-.855,1.029-1.761,2.111-2.25,3.328-.975,2.427-2.67,3.792-5.156,4.312,.017-13.82,.033-27.639,.049-41.458,1.381,.975,2.837,1.863,4.112,2.962,.622,.536,.906,1.465,1.343,2.216-.791,.374-1.555,.833-2.382,1.092-.524,.164-1.141,.031-1.688,.031-.794,5.455-.312,5.164,6.7,7.124-1.534,.45-2.402,.835-3.304,.945-2.86,.35-3.979,1.449-3.626,3.733,.403,2.607,2.004,3.733,4.698,3.243,.809-.147,1.591-.44,2.775-.777-.308,1.29-.482,2.346-.815,3.349-.624,1.874,.005,3.128,1.734,3.928,1.757,.812,2.15-.75,2.887-1.681,.417-.527,.769-1.106,1.151-1.661-.002,3.294-.004,6.587-.006,9.881Z" fill="#232a77"/>
      <path d="M375.162,904.946c.011,3.461,.023,6.922,.034,10.382-1.408-.404-2.816-.807-4.39-1.257,.122,.399,.192,.787,.354,1.132,1.015,2.161,.138,3.809-1.581,5.006-2.07,1.441-2.892-.545-3.969-1.703-.148-5.779-.296-11.557-.444-17.336,.695-.253,1.417-.779,2.079-.712,3.264,.333,5.66,2.312,7.916,4.487Z" fill="#72a7e9"/>
      <path d="M313.271,882.441c2.376-2.658,4.573-5.349,5.1-9.118,.405-2.899,2.784-4.332,5.445-3.71-.046,6.033-.092,12.065-.138,18.097-.531,.415-1.077,.812-1.59,1.249-1.386,1.178-2.682,1.188-4.059-.087-1.047-.97-2.235-1.789-3.512-2.796-.502,.676-.889,1.198-1.276,1.721,.01-1.785,.02-3.571,.03-5.356Z" fill="#72a7e9"/>
      <path d="M387.009,939.836c-.799,9.642-1.197,19.328-2.483,28.915-.449,.044-.898,.087-1.347,.131-.655-2.1-1.757-4.174-1.886-6.305-.446-7.428-.555-14.876-.792-22.316,2.256,1.181,4.402,.682,6.508-.425Z" fill="#232a77"/>
      <path d="M360.012,646.79c-.384-.32-.788-.62-1.15-.963-3.044-2.88-3.157-3.052-6.576-.724-2.625,1.787-3.732-.575-5.429-1.424,.007-5.152,.014-10.305,.021-15.457,1.123,.252,2.246,.504,3.735,.838,.643-.574,1.634-1.458,3.285-2.932,.369,2.432,.797,4.315,.817,6.203,.004,.36-1.594,1.032-2.46,1.044-1.67,.024-2.526,.472-2.462,2.301,.085,2.451,1.384,4.962,2.793,4.858,.559-.041,1.178-.56,1.588-1.022,.534-.601,.887-1.362,1.346-2.098,1.615,1.472,3.078,2.805,4.541,4.139-.016,1.745-.032,3.491-.048,5.236Z" fill="#232a77"/>
      <path d="M377.475,839.911c.398-3.991,.796-7.982,1.194-11.972,.941,.263,1.994,.338,2.803,.822,2.742,1.642,5.398,3.43,8.087,5.162,.016,1.843,.033,3.687,.049,5.53-1.135-1.013-2.27-2.025-3.428-3.059-2.493,2.527-.29,8.96-6.731,7.214-.565,.852-1.11,1.675-1.656,2.497-.035-.326-.07-.653-.106-.98-.051-1.083-.101-2.165-.152-3.247-.006-.261-.012-.523-.019-.784-.014-.394-.028-.789-.041-1.184Z" fill="#72a7e9"/>
      <path d="M299.649,884.881c1.733-1.7,3.413-3.457,5.214-5.082,1.526-1.377,3.236-1.807,4.999-.301-.124,4.478-.247,8.955-.371,13.432-1.347,1.917-3.163,1.867-5.122,1.225-1.176-.386-2.353-.769-3.531-1.153-.396-2.707-.792-5.414-1.188-8.12Z" fill="#72a7e9"/>
      <path d="M360.409,847.839c-1.456-1.725-2.922-1.965-5.004-.724-1.755,1.046-3.96,1.308-5.876,2.129-.993,.426-1.79,1.31-2.675,1.987-.01-11.568-.019-23.137-.029-34.704,.162-.039,.431-.159,.471-.106,1.366,1.812,3.107,3.486,3.896,5.527,.42,1.085-.399,3.267-1.381,4.158-2.539,2.302-3.145,4.329-.718,6.832,1.954,2.015,2.01,3.669,.443,5.78-.646,.87-1.299,1.925-1.407,2.953-.114,1.077,.06,2.715,.756,3.226,1.152,.846,2.852,1.284,4.068-.371,.79-1.076,1.657-2.086,3.147-1.155,1.837,1.149,3.185,.55,4.314-1.06-.001,1.842-.002,3.685-.004,5.528Z" fill="#232a77"/>
      <path d="M388.073,915.463c-.082,3.974-.165,7.948-.247,11.923-3.637,1.665-5.151,1.174-7.204-2.314-.204-.347-.492-.645-.741-.966-.12-3.361-.239-6.721-.359-10.082,4.328-2.106,4.917-2.091,7.291,.198,.424,.409,.84,.827,1.26,1.241Z" fill="#72a7e9"/>
      <path d="M364.59,861.922c.392-.318,.762-.876,1.178-.912,1.754-.154,3.522-.152,5.284-.207-.528,1.526-.64,3.479-1.674,4.483-1.818,1.765-1.383,2.879,.063,4.407,1.526,1.614,2.195,8.709,.649,10.079-1.436,1.273-3.549,1.784-5.364,2.63-.045-6.826-.091-13.653-.136-20.479Z" fill="#232a77"/>
      <path d="M346.877,852.648c1.399,.354,2.798,.706,4.196,1.064,2.197,.562,2.788,1.745,1.633,3.713-.536,.913-1.463,1.605-2.246,2.362-.664,.642-1.546,1.125-2.022,1.875-.5,.786-.633,1.806-.926,2.724,1.083,.266,2.158,.678,3.253,.746,.708,.044,1.435-.521,2.178-.612,.506-.062,1.475,.136,1.522,.365,.733,3.542,3.029,6.929,1.055,11.432-1.026-1.203-2.101-1.979-2.494-3.015-1.127-2.967-3.336-3.855-6.212-3.806,.021-5.617,.043-11.233,.064-16.849Z" fill="#232a77"/>
      <path d="M375.162,904.946c-2.257-2.175-4.652-4.154-7.916-4.487-.662-.068-1.385,.459-2.079,.712-.143-3.569-.287-7.138-.43-10.706,.78,.591,1.663,1.084,2.321,1.788,2.607,2.79,3.167,2.91,6.39,1.05,.578-.333,1.173-.637,1.759-.955-.015,4.2-.029,8.399-.044,12.599Z" fill="#232a77"/>
      <path d="M389.674,821.587c-.019,2.904-.037,5.808-.056,8.712-1.395-.715-2.829-1.364-4.177-2.159-2.187-1.29-4.318-2.674-6.472-4.019,.004-1.156,.009-2.312,.013-3.467,1.074-3.015,1.675-3.174,4.407-1.299,.53,.364,1.214,.514,1.838,.73,1.478,.512,2.964,1.004,4.446,1.503Z" fill="#72a7e9"/>
      <path d="M377.792,846.105c.545-.823,1.091-1.645,1.656-2.497,6.441,1.745,4.239-4.688,6.731-7.214,1.158,1.033,2.293,2.046,3.428,3.059-.042,2.431-.084,4.862-.126,7.293-2.059,.193-4.177,.16-6.154,.67-1.061,.274-1.873,1.491-2.815,2.262-.845,.692-1.714,1.356-2.572,2.032-.049-1.868-.099-3.736-.149-5.604Z" fill="#232a77"/>
      <path d="M375.051,929.978c-1.87,.107-3.165,.632-3.741,2.816-.573,2.174-3.111,2.019-5.455-.156-.024-1.272-.047-2.544-.071-3.816,1.337-1.528,2.565-3.174,4.042-4.552,1.48-1.381,3.256-2.22,5.302-.938-.026,2.215-.052,4.431-.078,6.646Z" fill="#72a7e9"/>
      <path d="M346.853,880.213c4.618,3.071,7.838,7.195,9.159,12.617,.217,.89-.394,1.982-.622,2.98-.933-.393-2.111-.552-2.755-1.222-2.041-2.124-3.883-4.438-5.801-6.68,.007-2.566,.013-5.131,.02-7.696Z" fill="#232a77"/>
      <path d="M387.009,939.836c-2.106,1.106-4.252,1.605-6.508,.425-.149-2.608-.297-5.215-.445-7.823,.94-.34,1.891-.984,2.819-.952,1.569,.054,3.124,.535,4.685,.836-.184,2.505-.367,5.01-.551,7.515Z" fill="#72a7e9"/>
      <path d="M375.129,923.332c-2.046-1.282-3.822-.443-5.302,.938-1.477,1.378-2.705,3.024-4.042,4.552-.058-3.438-.116-6.877-.173-10.315,1.077,1.158,1.899,3.144,3.969,1.703,1.719-1.197,2.596-2.845,1.581-5.006-.162-.345-.232-.733-.354-1.132,1.573,.45,2.982,.853,4.39,1.257-.023,2.668-.045,5.336-.068,8.003Z" fill="#232a77"/>
      <path d="M379.009,891.898c.485,.028,1.176-.143,1.425,.114q3.298,3.406,7.458,1.279c-.095,2.633-.19,5.265-.284,7.898-3.271-2.855-5.021-2.424-6.868,1.671-.374,.83-.812,1.631-1.22,2.445-.17-4.469-.34-8.938-.51-13.407Z" fill="#232a77"/>
      <path d="M363.715,771.548c1.126,1.43,2.037,3.129,3.422,4.236,3.161,2.525,3.269,5.764,3.009,9.53-1.368-.537-2.724-1.575-3.465-1.243-1.174,.526-1.936,1.97-2.873,3.026-.031-5.183-.063-10.365-.094-15.548Z" fill="#232a77"/>
      <path d="M388.073,915.463c-.42-.414-.836-.832-1.26-1.241-2.375-2.289-2.964-2.305-7.291-.198-.025-1.739-.05-3.479-.075-5.218,1.461-.623,2.926-1.238,4.383-1.873,1.396-.608,2.783-1.236,4.174-1.856,.023,3.462,.047,6.924,.07,10.386Z" fill="#232a77"/>
      <path d="M388.003,905.078c-1.391,.619-2.778,1.248-4.174,1.856-1.456,.634-2.921,1.249-4.383,1.873,.024-1.167,.049-2.335,.073-3.501,.408-.814,.845-1.615,1.22-2.445,1.847-4.095,3.598-4.526,6.868-1.671,.132,1.296,.264,2.593,.395,3.889Z" fill="#72a7e9"/>
      <path d="M360.508,904.781c-.554-.455-1.108-.909-1.867-1.533-.761,2.25-1.407,4.16-2.053,6.07-.351,.053-.701,.106-1.052,.159-.87-1.912-1.823-3.793-2.538-5.762-.133-.366,.696-1.563,1.071-1.558,3.673,.044,4.851-2.41,5.683-5.328,.134-.47,.499-.875,.757-1.31,0,3.088,0,6.175,0,9.262Z" fill="#232a77"/>
      <path d="M346.892,678.684c2.285,4.27,4.569,8.541,6.858,12.819-.549-.121-1.516-.136-2.279-.538-2.186-1.152-3.283-.438-3.779,1.829-.14,.64-.558,1.22-.848,1.827,.016-5.313,.032-10.625,.049-15.937Z" fill="#232a77"/>
      <path d="M360.401,943.249c-1.701,1.125-2.853,.713-3.975-1.013-.789-1.213-2.109-2.082-3.387-3.288,.044,.236-.005,.143,.019,.076,1.921-5.333,2.503-5.371,7.399-.488-.019,1.571-.037,3.142-.056,4.713Z" fill="#72a7e9"/>
      <path d="M389.674,821.587c-1.483-.5-2.968-.992-4.446-1.503-.624-.216-1.307-.366-1.838-.73-2.732-1.875-3.333-1.717-4.407,1.299-.021-2.076-.043-4.152-.064-6.228,4.024,.253,7.678,1.471,10.77,4.146-.005,1.005-.01,2.011-.015,3.016Z" fill="#232a77"/>
      <path d="M324.82,651.314c-4.455-.18-4.89-.533-5.687-5.02-.376-2.118-.621-4.26-.925-6.391,.323-.144,.647-.288,.97-.432,1.031,1.867,2.09,3.72,3.083,5.608,.587,1.116,1.086,2.244,2.593,1.096-.011,1.713-.023,3.426-.034,5.139Z" fill="#232a77"/>
      <path d="M375.262,824.812c-2.274-.716-4.916-.59-4.602-4.492,.37-4.601,0-4.631,4.64-5.878-.013,3.457-.025,6.914-.038,10.37Z" fill="#232a77"/>
      <path d="M310.694,844.015c-1.268-.919-2.595-1.768-3.792-2.772-2.128-1.786-4.178-3.667-6.511-5.73,.551-2.167,1.488-2.631,3.712-.938,1.596,1.215,2.884,2.828,4.427,4.124,.673,.566,1.64,.783,2.473,1.159-.103,1.386-.205,2.772-.308,4.157Z" fill="#232a77"/>
      <path d="M341.583,772.318c-1.17-.96-2.489-1.791-3.459-2.922-.702-.818-1.104-1.995-1.351-3.078-.414-1.818-.599-3.689-.827-5.191,1.409,.563,3.543,1.415,5.676,2.267-.013,2.975-.026,5.949-.038,8.924Z" fill="#232a77"/>
      <path d="M375.321,842.011c-1.457-.99-3.103-1.791-4.321-3.018-1.462-1.473-1.358-3.192,.335-4.649,1.35-1.161,2.655-2.374,3.98-3.564,.002,3.744,.004,7.487,.006,11.231Z" fill="#232a77"/>
      <path d="M375.267,856.923c-1.506-1.462-3.249-2.753-4.467-4.425-2.127-2.921-1.273-4.542,2.283-4.968,.75-.09,1.488-.288,2.231-.436-.016,3.276-.032,6.552-.047,9.829Z" fill="#232a77"/>
      <path d="M387.56,932.322c-1.561-.301-3.116-.782-4.685-.836-.928-.032-1.878,.612-2.819,.952-.059-2.777-.117-5.554-.176-8.331,.249,.32,.537,.619,.741,.966,2.053,3.487,3.567,3.979,7.204,2.314-.089,1.645-.177,3.29-.266,4.936Z" fill="#232a77"/>
      <path d="M360.227,709.353c-.084-.002-.174-.024-.252-.005-5.035,1.278-7.175-.875-6.134-6.321,2.498-.747,3.487,4.243,6.417,1.809-.01,1.505-.02,3.011-.03,4.516Z" fill="#232a77"/>
      <path d="M341.643,697.253c-1.745-.696-3.675-1.129-5.166-2.184-.943-.667-1.468-2.213-1.719-3.458-.142-.705,.65-1.598,1.021-2.406,.759,.414,1.867,.641,2.209,1.278,.87,1.624,2.162,1.684,3.652,1.533,.001,1.745,.003,3.491,.004,5.236Z" fill="#232a77"/>
      <path d="M378.391,693.654c1.523,1.764,3.255,3.394,4.493,5.34,.796,1.25,.863,2.964,1.24,4.407-2.333-.51-4.05-.884-5.766-1.259,.011-2.829,.022-5.658,.033-8.487Z" fill="#232a77"/>
      <path d="M378.969,824.12c2.154,1.345,4.285,2.73,6.472,4.019,1.348,.795,2.782,1.444,4.177,2.159-.02,1.208-.04,2.416-.06,3.623-2.689-1.732-5.344-3.519-8.087-5.162-.808-.484-1.862-.559-2.803-.822,.1-1.273,.2-2.546,.301-3.818Z" fill="#232a77"/>
      <path d="M299.021,778.535c2.912,2.621,5.211,5.65,6.69,9.655-3.132,.001-4.89-1.851-6.828-3.337,.046-2.106,.092-4.212,.138-6.318Z" fill="#232a77"/>
      <path d="M378.054,861.326c.443-.197,.885-.393,1.601-.711-.284,3.706,2.995,4.26,5.77,6.06-2.71,1.664-6.312,1.551-6.914,5.039-.152-3.462-.305-6.925-.457-10.388Z" fill="#232a77"/>
      <path d="M346.909,720.765c.326-.571,.607-1.173,.988-1.704,.503-.7,1.084-1.344,1.632-2.013,1.125,1.529,2.341,3.003,3.308,4.626,.235,.395-.157,1.608-.597,1.862-.761,.439-1.786,.417-2.698,.598-.902,.179-1.802,.371-2.703,.558,.023-1.309,.047-2.618,.07-3.928Z" fill="#72a7e9"/>
      <path d="M378.526,877.651c1.587,1.424,3.276,2.758,4.686,4.34,.325,.365-.037,1.868-.549,2.344-1.099,1.019-2.503,1.71-3.782,2.534-.118-3.073-.237-6.145-.355-9.218Z" fill="#232a77"/>
      <path d="M375.27,808.968c-4.855-1.296-6.136-2.608-6.575-7.316,2.363,.907,4.464,1.713,6.564,2.52,.003,1.599,.007,3.197,.01,4.796Z" fill="#232a77"/>
      <path d="M378.014,728.61c3.474,3.366,3.909,6.331,1.602,10.59-.602,1.111-1.096,2.28-1.64,3.423,.013-4.671,.025-9.342,.038-14.013Z" fill="#232a77"/>
      <path d="M328.062,824.014c1.268-.329,2.52-.791,3.809-.943,.94-.111,2.34-.158,2.798,.386,.686,.815,.725,2.175,1.039,3.303-1.174,.213-2.347,.589-3.522,.595-1.372,.008-2.746-.305-4.119-.48-.002-.954-.003-1.908-.005-2.862Z" fill="#232a77"/>
      <path d="M324.107,845.806c-3.198-.409-4.707-1.983-4.438-4.96,.057-.631,.919-1.333,1.575-1.732,.92-.559,1.994-.864,3.003-1.278-.047,2.657-.093,5.313-.14,7.969Z" fill="#232a77"/>
      <path d="M360.39,770.812c-1.039-1.529-2.013-3.109-3.135-4.574-1.247-1.629-1.07-3.322,.598-4.534,.87-.632,1.699-1.319,2.547-1.981-.003,3.696-.007,7.393-.01,11.089Z" fill="#232a77"/>
      <path d="M328.062,806.202c.548,2.156,1.016,4.316,3.99,4.344,.525,.005,1.041,.875,1.827,1.586-2.554,1.529-5.033,2.677-5.842,5.46,.008-3.797,.016-7.594,.024-11.391Z" fill="#232a77"/>
      <path d="M374.887,634.407c-2.944-2.995-2.922-3.035-1.315-6.884,.211-.505,.121-1.389-.2-1.822-2.201-2.965-2.233-2.942,1.477-4.025,.013,4.244,.025,8.488,.038,12.731Z" fill="#232a77"/>
      <path d="M375.201,745.809c-.812-1.06-1.823-2.026-2.384-3.205-.676-1.422-1.022-2.866,.657-4.239,.761-.623,.773-2.217,1.028-3.391,.302-1.389,.499-2.8,.741-4.2-.014,5.012-.028,10.024-.042,15.036Z" fill="#232a77"/>
      <path d="M377.621,592.711c1.899,1.733,3.798,3.466,5.876,5.363-1.939,1.362-3.98,2.796-6.021,4.229,1.14-3.181,1.005-6.381,.145-9.592Z" fill="#232a77"/>
      <path d="M347.304,932.262c.408,.079,.832,.111,1.222,.243,4.559,1.544,4.814,2.595,1.368,6.561-.821-.599-1.663-1.214-2.506-1.829-.028-1.659-.056-3.317-.084-4.975Z" fill="#72a7e9"/>
      <path d="M363.659,611.977c.456-.099,1.116-.441,1.333-.258,1.162,.984,2.153,2.17,3.319,3.149,1.226,1.029,1.052,1.973-.237,2.463-1.374,.522-2.91,.62-4.376,.902-.013-2.085-.025-4.171-.038-6.256Z" fill="#232a77"/>
      <path d="M346.918,766.863c1.208,1.136,2.415,2.274,3.625,3.408,.459,.43,1.387,1.011,1.305,1.247-.252,.725-.766,1.508-1.404,1.915-1.046,.668-2.27,1.058-3.42,1.565-.036-2.711-.071-5.423-.107-8.135Z" fill="#232a77"/>
      <path d="M341.55,900.362c-1.254-.826-2.528-1.624-3.756-2.486-1.776-1.247-1.675-1.972,.177-3.007,1.275-.712,2.43-1.64,3.638-2.472-.02,2.655-.039,5.31-.059,7.965Z" fill="#232a77"/>
      <path d="M328.362,656.929c.883,2.149,2.048,4.231,2.573,6.464,.551,2.344-.734,4.256-2.617,5.696,.015-4.053,.029-8.107,.044-12.16Z" fill="#232a77"/>
      <path d="M341.656,748.706c-2.056-.537-4.143-1.23-5.659,1.653,.307-4.629,1.699-6.074,5.636-6.345,.008,1.564,.015,3.128,.023,4.693Z" fill="#232a77"/>
      <path d="M389.602,806.86c-.619-.695-1.201-1.428-1.863-2.079-2.344-2.301-2.251-3.594,.434-5.65,.469-.359,.896-.772,1.342-1.16,.029,2.963,.058,5.926,.087,8.889Z" fill="#232a77"/>
      <path d="M324.278,826.81c-1.125,.37-2.229,.864-3.383,1.066-.718,.126-1.68,.037-2.225-.369-.5-.373-.997-1.575-.765-1.919,.38-.563,1.332-.941,2.079-1.012,1.422-.135,2.87,.003,4.307,.028-.004,.736-.008,1.471-.013,2.206Z" fill="#232a77"/>
      <path d="M310.53,713.56q-3.801-1.498-1.921-5.244c.605-1.196,1.284-2.355,1.928-3.53-.002,2.925-.005,5.849-.007,8.774Z" fill="#232a77"/>
      <path d="M363.169,703.281c1.418,1.599,2.901,3.149,4.182,4.851,.191,.253-.455,1.648-.917,1.775-1.01,.278-2.15,.081-3.237,.077-.009-2.235-.018-4.47-.027-6.704Z" fill="#232a77"/>
      <path d="M341.675,641.038c-.966-.608-1.886-1.313-2.908-1.804-1.875-.902-2.052-1.821-.327-2.964,.962-.637,2.099-1.008,3.157-1.5,.026,2.089,.052,4.178,.079,6.268Z" fill="#232a77"/>
      <path d="M346.87,726.831c.4,.294,.76,.742,1.206,.857,3.153,.815,3.181,.829,2.635,4.549-1.274-.363-2.53-.72-3.786-1.078-.018-1.443-.037-2.885-.055-4.328Z" fill="#72a7e9"/>
      <path d="M360.173,688.498c-.492-.439-1.053-.821-1.463-1.326-1.727-2.127-1.375-3.442,1.361-5.311,.034,2.212,.069,4.425,.103,6.637Z" fill="#232a77"/>
      <path d="M363.828,790.858c.28,.189,.542,.411,.842,.561,3.036,1.521,3.001,1.512,.677,4.145-.643,.728-.962,1.741-1.43,2.623-.029-2.443-.059-4.886-.088-7.329Z" fill="#232a77"/>
      <path d="M388.98,651.469c-3.452-2.353-3.479-2.558-.859-5.704,.323-.388,.58-.832,.867-1.25-.003,2.318-.005,4.636-.008,6.954Z" fill="#232a77"/>
      <path d="M360.387,796.859c-.113-.124-.229-.246-.339-.373q-2.858-3.305,.361-6.154c-.007,2.176-.015,4.352-.022,6.527Z" fill="#232a77"/>
      <path d="M324.81,772.682c-1.562-.684-3.123-1.367-4.685-2.051,.096-.228,.192-.456,.288-.684,1.459-.482,2.917-.964,4.376-1.446,.007,1.394,.014,2.788,.021,4.181Z" fill="#232a77"/>
      <path d="M360.481,883.402c-.301-.295-.624-.57-.899-.888-2.287-2.643-2.19-3.147,.906-4.867-.002,1.918-.005,3.837-.007,5.755Z" fill="#232a77"/>
      <path d="M309.51,825.269c-1.225-.94-2.45-1.881-3.675-2.821l.468-.729c1.076,.133,2.152,.265,3.229,.398-.007,1.051-.014,2.102-.021,3.152Z" fill="#232a77"/>
      <path d="M375.148,887.174c-.302-.139-.642-.229-.898-.427-.67-.516-1.304-1.079-1.952-1.623,.69-.482,1.372-.977,2.074-1.441,.274-.181,.595-.294,.894-.437-.039,1.309-.078,2.618-.117,3.927Z" fill="#232a77"/>
      <path d="M375.266,871.68c-3.31-1.489-3.312-1.957-.024-4.33,.008,1.443,.016,2.886,.024,4.33Z" fill="#232a77"/>
      <path d="M388.859,616.634c-.012-1.213-.023-2.426-.035-3.639,1.261,1.201,1.234,2.415,.035,3.639Z" fill="#232a77"/>
      <path d="M375.236,725.782c.006-1.049,.012-2.097,.018-3.145-.006,1.049-.012,2.097-.018,3.145Z" fill="#232a77"/>
      <path d="M377.535,841.878c.051,1.082,.101,2.165,.152,3.247-.051-1.082-.101-2.165-.152-3.247Z" fill="#232a77"/>
      <path d="M377.475,839.911c.014,.395,.028,.789,.041,1.184-.014-.395-.028-.789-.041-1.184Z" fill="#232a77"/>
      <path d="M309.388,473.985c-.659-1.184-1.474-2.307-1.952-3.56-7.592-19.869-16.453-39.121-28.486-56.73-4.056-5.934-8.95-11.292-13.35-16.998-.659-.855-1.288-2.867-.939-3.16,1.194-1.002,2.814-1.52,4.315-2.112,.283-.112,.794,.242,1.156,.456,9.128,5.393,18.272,10.758,27.349,16.236,1.385,.836,2.453,2.198,3.668,3.316-.119,.234-.237,.469-.356,.703-.883-.214-1.784-.371-2.644-.652-4.27-1.393-8.514-2.867-12.806-4.186-.771-.237-1.724,.12-2.593,.202,.242,.844,.229,1.929,.765,2.494,6.133,6.473,12.285,12.931,18.606,19.217,1.027,1.021,2.863,1.357,4.394,1.713,2.027,.471,3.272,1.424,3.065,3.628-.18,1.921-.669,3.829-.68,5.745-.018,3.124,.217,6.25,.388,9.374,.417,7.622,.863,15.243,1.272,22.866,.02,.376-.211,.766-.324,1.15-.282,.099-.564,.197-.846,.296Z" fill="#0e0e23"/>
      <path d="M322.247,507.72c1.118-1.163,2.075-2.163,3.038-3.157,.228-.235,.477-.45,.716-.675,.974,1.119,2.158,2.122,2.857,3.392,.596,1.084,.152,2.228-1.386,2.291-2.187,.089-4.153-.421-5.225-1.851Z" fill="#232a77"/>
      <path d="M337.783,658.254c-.874,.945-1.727,1.965-1.788,1.92-.989-.736-2.116-1.482-2.656-2.516-.186-.355,1.151-1.506,1.793-2.294,.804,.876,1.608,1.752,2.652,2.889Z" fill="#232a77"/>
      <path d="M317.707,705.087c.507-1.267,1.015-2.534,1.522-3.801,.303,.012,.607,.024,.91,.036,.194,1.22,.617,2.47,.458,3.642-.056,.41-1.544,.626-2.378,.931l-.512-.807Z" fill="#232a77"/>
      <path d="M336.757,587.334c-1.208,.652-1.849,1.25-2.497,1.259-.435,.006-1.308-.915-1.234-1.259,.151-.697,.812-1.284,1.263-1.916,.656,.509,1.312,1.018,2.468,1.916Z" fill="#232a77"/>
      <path d="M318.869,591.825c.421,1.01,.878,2.008,1.186,3.051,.022,.075-1.042,.47-1.601,.717-.309-1.093-.618-2.186-.927-3.279,.447-.163,.895-.326,1.342-.49Z" fill="#232a77"/>
      <polygon points="320.239 803.595 320.059 803.667 320.074 803.493 320.239 803.595" fill="#0e0e23"/>
      <path d="M378.137,473.705c-.08-.965-.281-1.938-.22-2.895,.515-8.04,1.17-16.072,1.577-24.117,.139-2.737-.337-5.503-.477-8.258-.082-1.609-.435-3.352,.05-4.794,.366-1.086,1.771-1.953,2.889-2.626,1.904-1.146,4.332-1.664,5.86-3.147,5.541-5.382,10.801-11.053,16.163-16.62,.353-.366,.775-.723,.972-1.169,.355-.804,.564-1.673,.834-2.514-.942-.083-1.971-.455-2.811-.2-4.214,1.278-8.377,2.725-12.561,4.1-.854,.281-1.725,.508-2.589,.759-.153-.2-.307-.401-.46-.601,.934-.968,1.715-2.19,2.827-2.863,9.501-5.749,19.046-11.427,28.619-17.057,2.195-1.291,3.839,.304,5.002,1.776,.412,.521-.197,2.426-.9,3.163-9.944,10.42-17.792,22.349-24.187,35.12-6.368,12.718-11.828,25.891-17.722,38.848-.54,1.187-1.343,2.254-2.023,3.376-.28-.093-.561-.187-.841-.28Z" fill="#0e0e23"/>
      <path d="M390.855,525.73c.077,1.213,.347,2.666,.193,4.072-.091,.833-.969,2.305-1.288,2.253-1.024-.169-2.689-.793-2.799-1.458-.645-3.901-1.015-7.858-1.224-11.81-.035-.664,1.077-1.816,1.821-1.973,.746-.157,2.083,.422,2.469,1.083,.644,1.102,.885,2.51,1.018,3.818,.126,1.245-.103,2.526-.19,4.016Z" fill="#232a77"/>
      <path d="M370.119,699.629c-2.921-.567-4.14-2.665-4.578-4.999-.147-.787,1.296-1.993,2.218-2.761,.194-.162,1.694,.617,1.895,1.202,.719,2.09,1.538,4.269,.464,6.557Z" fill="#232a77"/>
      <path d="M366.382,513.359c-.363,1.08-.497,1.953-.936,2.627-.322,.494-1.057,1.017-1.583,.992-.477-.022-1.26-.725-1.32-1.201-.248-1.981-.342-3.991-.326-5.989,.003-.412,.674-1.07,1.122-1.153,.427-.079,1.208,.324,1.411,.727,.666,1.328,1.141,2.752,1.632,3.996Z" fill="#232a77"/>
      <path d="M356.929,592.189v3.139c-2.832-1.551-4.103-3.822-5.393-6.45,3.042-.777,2.862,1.113,3.03,2.868,.735,.138,1.494,.28,2.362,.444Z" fill="#232a77"/>
      <path d="M387.941,493.208c1.534,1.537,2.285,2.638,.749,3.621-.59,.378-1.666-.003-2.521-.038,.545-1.101,1.089-2.202,1.773-3.583Z" fill="#232a77"/>
      <path d="M364.114,329.338c-2.769-3.868-3.211-8.1-4.021-12.186-2.002-10.095-.974-20.319-1.068-30.483-.281-30.317-.348-60.635-.493-90.953-.014-2.847,1.691-5.067,4.95-6.152,.7,46.534-1.601,92.969,.633,139.774Z" fill="#0e0e23"/>
      <path d="M377.594,179.768c.152,1.905,.343,3.129,.332,4.352-.165,18.351-.448,36.701-.518,55.052-.092,24.061-.098,48.124,.063,72.185,.025,3.745,1.113,7.486,1.756,11.221,.169,.982,.508,1.935,.489,3.01-2.919-4.131-6.48-7.786-6.455-13.475,.115-25.753,.055-51.507,.057-77.26,.001-16.064,.092-32.129-.076-48.191-.033-3.143,1.478-4.769,4.353-6.894Z" fill="#0e0e23"/>
      <path d="M325.004,189.563c3.188,1.047,4.977,3.273,4.966,5.898-.167,38.048-.22,76.098-.646,114.144-.061,5.413-1.877,10.819-3.013,16.2-.243,1.153-1.056,2.185-1.944,3.938,2.247-47.163-.013-93.549,.637-140.18Z" fill="#0e0e23"/>
      <path d="M311.093,180.037c3.05,1.879,4.171,3.864,4.163,7.006-.104,41.546-.133,83.093,.018,124.639,.021,5.865-3.593,9.591-6.084,14.053l-.642-.21c.192-.832,.26-1.718,.595-2.488,1.773-4.077,2-8.353,1.983-12.722-.063-16.312-.028-32.625-.028-48.938,0-20.965,.033-41.931-.024-62.896-.014-5.09-.355-10.178-.477-15.269-.023-.935,.283-1.879,.496-3.175Z" fill="#0e0e23"/>
      <path d="M335.224,883.441c.689,1.581,1.378,3.162,2.114,4.849-3.157,.317-4.011-1.215-2.114-4.849Z" fill="#232a77"/>
    </g>
  </g>
</svg>