<?xml version="1.0" encoding="UTF-8"?>
<svg id="b" data-name="Layer 2" xmlns="http://www.w3.org/2000/svg" width="326.675" height="359.804" viewBox="0 0 326.675 359.804">
  <g id="c" data-name="Layer 1">
    <path d="M175.712,8.663c.035,95.734,.027,191.468,.044,287.202,0,1.804-.305,3.64,.389,5.859,2.147-.83,3.312-2.641,4.653-4.146,12.896-14.476,18.447-31.738,19.019-50.811,.205-6.82,.093-13.652,.016-20.477-.042-3.734,1.066-6.856,3.869-9.348,.248-.221,.465-.477,.701-.711,32.043-31.758,62.996-64.593,95.109-96.285,4.623-4.562,9.313-7.283,15.842-6.476,1.64,.203,3.326,.043,4.991,.027,6.303-.06,7.395-1.558,5.464-7.481-2.948-9.04-11.591-15.778-21.232-16.539-1.661-.131-3.33-.139-4.992-.121-3.953,.043-5.742-1.871-5.757-5.804-.031-7.992,.028-15.983-.033-23.975-.044-5.81-.353-6.134-6.325-6.153-12.321-.039-24.647-.217-36.963,.041-15.245,.319-28.665,5.386-39.564,16.378-1.758,1.773-3.469,3.599-5.359,5.234-1.116,.966-2.319,2.306-3.898,1.732-.148-.054-.261-.129-.383-.198-.136,.083-.261,.171-.402,.252,0-.179,0-.356,0-.535-1.003-.903-.854-2.488-.983-3.813-.145-1.49-.067-2.995-.067-4.493-.002-12.487-.019-24.974,.004-37.461,.023-12.587-4.603-22.323-16.672-27.619-1.283-.563-2.978-.935-2.884-2.942h-5.997c2.111,2.617,1.409,5.733,1.41,8.663Zm28.133,104.03c8.592-8.351,17.121-16.777,25.433-25.406,8.802-9.137,19.793-9.371,31.046-7.746,5.463,.789,8.582,5.342,9.167,11.05,1.469,14.334-1.823,26.537-12.941,36.94-17.37,16.252-33.815,33.494-50.612,50.356-1.278,1.283-2.237,2.885-3.735,4.85-1.692-2.714-1.277-4.232-1.28-5.665-.032-18.973,.035-37.947-.079-56.92-.018-3.047,.767-5.288,3.001-7.459ZM143.416,2.913c-11.854,4.931-16.45,14.457-16.609,26.58-.177,13.484,.006,26.972-.084,40.458-.016,2.376,.939,5.685-1.777,6.722-.044,.017-.085,.024-.128,.038-.159,.241-.337,.488-.554,.747-.168-.2-.326-.393-.491-.591-2-.079-3.496-2.336-4.837-3.836-12.889-14.419-29.106-20.347-48.208-19.687-10.644,.368-21.311,.028-31.967,.083-5.536,.029-5.9,.424-5.938,6.019-.047,6.826,0,13.653-.015,20.479-.021,8.995-.314,9.315-9.149,9.464-10.659,.179-17.82,5.52-22.218,14.963-.634,1.36-1.043,2.804-1.304,4.29-.539,3.066,.454,4.828,3.838,4.839,3.829,.012,7.66,.043,11.488,.022,3.36-.018,6.149,1.106,8.501,3.508,20.726,21.173,42.315,41.487,62.484,63.222,11.209,12.079,23.125,23.495,34.914,35.013,3.873,3.784,5.562,7.823,5.506,13.242-.105,10.133-.65,20.286,.935,30.406,2.419,15.443,8.838,28.863,19.464,40.287,.875,.941,1.602,2.13,3.101,2.496,1.042-1.693,.476-3.555,.476-5.303,.032-95.902,.023-191.803,.058-287.705,.001-2.932-.7-6.05,1.411-8.668h-5.997c.088,2.013-1.603,2.374-2.9,2.913Zm-17.707,178.406c-.574,.357-1.148,.713-1.721,1.07-1.996-2.407-3.819-4.985-6.015-7.194-16.787-16.885-33.412-33.942-50.567-50.446-10.813-10.403-11.487-23.083-9.924-36.45,.624-5.335,5.803-8.826,11.49-9.361,12.697-1.194,23.465,1.878,32.175,12.008,6.711,7.805,14.487,14.694,21.784,21.996,1.398,1.399,2.824,2.66,2.817,5.004-.065,21.124-.038,42.248-.038,63.373Zm102.566,178.484h-1c1.213-1.726,1.381-3.699,1.383-5.723,.003-3.329,.004-6.659,.005-9.988,.001-38.287,.005-76.575-.008-114.862-.001-3.203,.055-6.287,2.569-8.806,9.288-9.31,18.596-18.601,27.894-27.901,2.258-2.259,4.245-2.073,6.405,.114,3.159,3.197,6.306,6.409,9.545,9.524,12.198,11.73,19.307,26.1,22.2,42.658,.756,4.328,.928,8.667,.056,13.649-12.482-12.475-24.449-24.5-36.501-36.439-1.321-1.308-2.615-3.394-4.324-3.92-.356-.356-.706-.707-1.063-1.063-.281,.391-.509,.761-.701,1.116-.086,.03-.171,.052-.259,.09-2.468,1.079-1.564,4.459-1.569,6.878-.055,23.638-.224,47.279,.024,70.914,.238,22.679-6.42,42.569-22.363,59.04-1.258,1.3-2.663,2.597-2.292,4.719Zm-128.937,0h-1c.368-2.558-1.534-3.912-2.984-5.443-14.828-15.66-21.702-34.36-21.633-55.815,.078-23.981,.05-47.963-.024-71.944-.008-2.741,1.151-6.629-1.2-8.073v-.358c-.078,.078-.155,.156-.233,.234-.061-.031-.113-.067-.179-.095-3.275-1.388-5.229,2.709-7.365,4.81-10.803,10.629-21.46,21.405-32.212,32.085-.977,.97-1.64,2.502-3.568,2.568-.948-10.428,1.422-20.187,4.93-29.785,5.226-14.295,15.933-24.374,26.471-34.586,3.661-3.548,4.425-3.553,8.155,.138,8.05,7.965,15.868,16.173,24.107,23.936,3.972,3.742,5.467,7.773,5.442,13.201-.181,40.301-.104,80.603-.088,120.905,.001,2.805-.387,5.702,1.378,8.223Z" fill="#f5f5f5"/>
  </g>
</svg>