<?xml version="1.0" encoding="UTF-8"?>
<svg id="b" data-name="Layer 2" xmlns="http://www.w3.org/2000/svg" width="356.44" height="359.804" viewBox="0 0 356.44 359.804">
  <g id="c" data-name="Layer 1">
    <path d="M179.162,0c10.107,11.485,21.458,21.748,32.12,32.689,6.193,6.355,6.26,6.289,.108,12.441-10.123,10.122-20.32,20.172-30.313,30.422-2.288,2.347-3.538,2.342-5.83,0-11.058-11.303-22.221-22.508-33.557-33.532-2.616-2.544-2.273-3.844,.134-6.194,10.837-10.582,21.491-21.352,32.172-32.093,1.143-1.15,2.663-2.024,3.166-3.733h1.999Zm177.112,252.359c-.038,2.345-1.149,2.539-3.065,2.71-20.729,1.849-39.086-2.464-52.59-19.796-1.222-1.568-2.887-2.798-4.07-4.39-4.838-6.51-10.93-9.58-19.254-8.275-3.901,.612-8.003,.388-11.968,.028-4.285-.389-4.856,1.076-3.876,4.94,5.392,21.262,10.493,42.599,15.912,63.854,.796,3.123,.255,5.242-1.645,7.712-6.796,8.838-13.456,17.785-19.98,26.826-8.161,11.308-17.088,22.059-24.602,33.835h-2.999c-6.123-4.038-13.259-5.759-19.89-8.631-8.374-3.627-13.791-9.601-16.072-18.439-1.662-6.438-3.209-12.911-5.121-19.275-.867-2.887-.719-4.618,1.977-6.635,5.579-4.175,7.58-10.312,5.804-16.895-.989-3.667,.383-4.184,3.077-4.864,10.374-2.618,19.498-7.603,27.229-14.991,8.465-8.088,13.688-17.865,15.009-29.625,.299-2.66-.207-3.813-3.289-3.806-39.145,.097-78.29,.095-117.435,.004-3.073-.007-3.599,1.114-3.303,3.832,.773,7.081,2.986,13.628,6.828,19.6,8.428,13.098,20.586,20.97,35.422,24.989,2.639,.715,4.017,1.192,3.075,4.874-1.726,6.751,.296,12.965,6.175,17.22,2.181,1.578,2.355,2.988,1.658,5.354-1.83,6.218-3.538,12.482-4.989,18.798-2.316,10.082-8.268,16.734-17.893,20.433-6.479,2.49-13.095,4.695-19.215,8.057h-1.999c-.89-1.382-1.705-2.821-2.683-4.138-13.986-18.844-27.949-37.707-42.049-56.466-1.994-2.653-2.537-4.983-1.566-8.23,1.903-6.362,3.276-12.883,4.888-19.333,4.025-16.105,8.06-32.207,12.204-48.759-8.44,0-16.418,.095-24.391-.055-2.549-.048-4.371,.702-6.106,2.552-5.011,5.341-10.202,10.512-15.284,15.788-6.286,6.525-13.751,10.899-22.652,12.836-8.25,1.795-16.596,.669-24.891,1.042-2.955,.133-2.57-1.838-2.571-3.643-.004-10.991-.217-21.987,.035-32.973,.948-41.232,14.858-77.651,40.925-109.545,2.083-2.549,3.441-2.533,5.237-.056,.386,.532,.932,.948,1.404,1.418,21.118,21.038,42.28,42.032,63.294,63.173,2.456,2.47,3.881,2.691,6.197,.005,2.819-3.271,5.863-6.419,9.186-9.164,3.061-2.528,2.439-4.026-.107-6.535-21.581-21.278-42.979-42.742-64.56-64.02-2.511-2.475-2.564-3.709,.168-6.015,16.179-13.658,34.16-24.145,53.909-31.746,3.387-1.303,5.34-.569,7.749,1.867,16.978,17.171,34.176,34.125,51.105,51.344,2.82,2.869,4.244,2.619,6.918-.084,17.102-17.28,34.403-34.363,51.591-51.56,1.874-1.875,3.362-3.022,6.413-1.888,20.333,7.557,38.698,18.363,55.259,32.347,2.373,2.004,2.455,3.109,.199,5.335-21.097,20.821-42.055,41.783-63.096,62.661-4.958,4.919-5.031,4.846-.263,9.613,2.473,2.473,5.15,4.778,7.365,7.464,2.476,3.003,4.106,2.875,6.896,.064,21.118-21.271,42.489-42.29,63.597-63.57,2.957-2.981,4.277-2.547,6.682,.449,11.749,14.639,20.919,30.689,28.098,48.036,12.587,30.413,12.5,62.319,11.985,94.341Zm-156.963-68.021c-.081-11.744-9.625-21.057-21.434-20.918-11.806,.14-21.003,9.594-20.867,21.45,.131,11.399,9.786,20.931,21.116,20.846,11.606-.087,21.265-9.834,21.185-21.379Z" fill="#f5f5f5"/>
  </g>
</svg>