<?xml version="1.0" encoding="UTF-8"?>
<svg id="b" data-name="Layer 2" xmlns="http://www.w3.org/2000/svg" width="688.5" height="1224" viewBox="0 0 688.5 1224">
  <g id="c" data-name="Layer 1">
    <rect x="0" width="688.5" height="1224" fill="#1f2b27"/>
    <circle cx="344.25" cy="612" r="316.141" fill="#0d1613"/>
    <g>
      <path d="M629.826,568.11c-.674,.689-1.348,1.377-2.022,2.066-8.032,8.023-15.946,16.169-24.158,24.002-2.922,2.787-4.086,5.835-3.873,9.658-.147,.862-.293,1.724-.44,2.586-.2,1.52-.399,3.04-.599,4.561-.237,1.31-.473,2.621-.709,3.931-.304,1.581-.607,3.162-.911,4.743-.18,.821-.36,1.641-.54,2.462-.408,1.538-.842,3.069-1.218,4.614-1.248,5.128-2.476,10.261-3.712,15.39,0,0-.033-.028-.033-.028,5.352-6.633,10.703-13.267,16.054-19.9,.807-.816,1.614-1.633,2.421-2.45,1.706-1.554,3.413-3.109,5.119-4.663,1.695-1.334,3.39-2.669,5.084-4.003,2.373-1.558,4.746-3.115,7.119-4.673,1.32-.696,2.639-1.393,3.959-2.089,8.574-3.036,17.409-4.379,26.496-4.097,9.4,.483,18.618,2.051,27.668,4.634,.961,.274,1.978,.349,2.97,.517v6.63c-6.572,2.461-13.152,4.902-19.714,7.391-3.162,1.2-6.29,2.49-9.434,3.739-.166,.038-.339,.056-.496,.116-22.815,8.804-45.636,17.592-68.416,26.483-.993,.388-1.995,1.596-2.354,2.641-5.283,15.388-11.918,30.157-19.926,44.317-.446,.789-.676,1.7-1.006,2.554,0,0-.135,.019-.135,.019l.095-.07c.941-.718,1.907-1.405,2.82-2.157,8.833-7.281,18.251-13.664,28.939-17.882,3.342-1.319,7.003-2.184,10.582-2.478,9.264-.762,18.03,1.788,26.56,5.07,5.141,1.978,10.132,4.344,15.191,6.536,2.522,1.52,5.077,2.988,7.544,4.592,.691,.449,1.123,1.298,1.674,1.963-.759,.461-1.469,1.181-2.286,1.336-3.301,.627-6.636,1.079-9.958,1.596-14.264,1.248-28.521,2.576-42.794,3.722-13.081,1.05-26.178,1.905-39.268,2.846-1.062,.465-2.124,.929-3.185,1.394-.35,.476-.74,.929-1.045,1.433-6.333,10.455-12.998,20.674-21.033,29.934-.225,.259-.277,.667-.528,1.308,4.807-2.428,9.207-4.78,13.715-6.902,9.931-4.675,20.116-7.251,30.958-3.147,2.378,.971,4.756,1.943,7.134,2.914,6.68,3.938,13.605,7.52,19.363,12.796l-.213,.807c-1.283,.099-2.566,.197-3.85,.296-1.384,.065-2.769,.129-4.153,.194-5.594,.079-11.188,.157-16.782,.236-1.364,.026-2.728,.053-4.092,.079-4.983-.188-9.972-.269-14.946-.585-9.814-.624-19.618-1.429-29.434-2.011-1.133-.067-2.611,.506-3.433,1.297-3.112,3-5.905,6.332-9.029,9.319-6.679,6.387-13.49,12.635-20.247,18.941-.213,.132-.441,.245-.638,.399-3.916,3.067-2.98,2.478-5.914-.382,.73-.958,1.459-1.916,2.189-2.875,1.154-.901,2.308-1.802,3.461-2.703,4.776-4.18,9.528-8.388,14.343-12.522,1.248-1.071,1.351-2.087,.706-3.54-5.078-11.45-10.097-22.927-15.134-34.395-1.025-2.053-2.05-4.105-3.076-6.158-.377-1.011-.815-2.005-1.119-3.038-.649-2.201-1.228-4.422-1.836-6.635,.96,.304,2.013,.448,2.864,.941,2.495,1.446,4.909,3.031,7.355,4.561,.16,.113,.319,.227,.479,.34,.06,.15,.171,.235,.332,.256,.967,.826,1.949,1.635,2.899,2.48,5.402,4.806,9.864,10.361,10.355,17.805,.455,6.896,.008,13.852-.062,20.781-.008,.772-.149,1.542-.253,2.553,.623-.254,.914-.285,1.063-.446,4.708-5.112,9.449-10.195,14.042-15.409,.601-.682,.8-2.136,.557-3.07-1.043-4.016-2.321-7.97-3.513-11.947-.268-1.011-.535-2.021-.803-3.032-.184-.825-.358-1.652-.555-2.474-2.52-10.535-5.161-21.043-7.52-31.614-1.362-6.103-2.27-12.307-3.382-18.466-.062-1.321-.124-2.642-.185-3.963v-7.485c1.288,.974,1.933,1.352,2.441,1.865,3.636,3.67,7.376,7.249,10.833,11.083,5.487,6.087,10.206,12.681,12.1,20.879l.463,4.167c-.29,4.386-.124,8.861-.967,13.138-1.681,8.529-3.916,16.948-5.921,25.413-.004,.194-.009,.386-.015,.579,.092-.119,.184-.237,.276-.356,5.948-9.183,11.896-18.366,17.843-27.549,.642-1.048,1.283-2.095,1.925-3.143,2.736-5.082,5.521-10.139,8.163-15.269,.457-.887,.698-2.22,.382-3.115-2.098-5.925-4.369-11.766-8.524-16.678-5.209-6.159-10.258-12.453-15.419-18.652-6.354-7.631-12.753-15.225-19.132-22.835-.691-.826-1.382-1.651-2.073-2.477-2.647-3.327-5.294-6.654-7.941-9.982,4.661-3.538,9.322-7.076,13.983-10.614,3.732,1.799,7.465,3.598,11.197,5.396,.989,.653,1.979,1.306,2.968,1.959,2.064,1.538,4.127,3.076,6.191,4.615,1.535,1.347,3.071,2.693,4.606,4.04,1.381,1.524,2.763,3.049,4.144,4.573,.817,1.044,1.635,2.088,2.452,3.132,4.925,7.213,8.326,15.149,9.094,23.803,.808,9.109,.655,18.303,.903,27.461,.025,.926-.077,1.856-.12,2.784,2.657-4.566,4.782-9.186,6.714-13.885,5.434-13.212,10.097-26.677,12.988-40.703,.182-.864,.364-1.729,.546-2.593,.314-1.509,.628-3.017,.941-4.526l-5.301-4.155c-2.061-1.553-4.123-3.107-6.184-4.66-1.241-.982-2.482-1.964-3.722-2.945-6.773-5.124-13.526-10.275-20.327-15.362-3.937-2.945-7.951-5.785-11.931-8.673-.113-.403-.235-.804-.337-1.209-1.131-4.498-2.122-9.037-3.435-13.48-.851-2.88-1.925-3.059-4.452-1.602-2.554,1.472-5.206,2.773-7.815,4.15-8.348-6.337-16.695-12.674-25.043-19.012-1.148-.904-2.295-1.808-3.443-2.713-.071-.774-.143-1.547-.214-2.321,1.018,.189,2.036,.378,3.053,.567,1.842,.14,3.683,.375,5.527,.402,4.834,.07,9.7-.292,14.5,.124,21.314,1.846,39.002,10.414,51.559,28.324,6.333,9.032,11.232,18.792,15.264,29.02,1.005,2.548,1.981,5.108,2.971,7.662,1.087-4.785,1.725-9.484,2.135-14.204,1.854-21.331-.254-42.221-6.975-62.616-.846-2.566-2.216-3.956-4.825-4.521-8.05-1.741-16.067-3.636-24.108-5.419-11.687-2.591-23.384-5.136-35.077-7.701-1.277-.239-2.554-.478-3.831-.718-5.701-1.336-11.403-2.671-17.104-4.007-1.032-.168-2.063-.335-3.095-.503-6.106-1.467-12.211-2.933-18.317-4.4l-3.611-.705c-.313-.119-.636-.217-.938-.36-1.366-.644-2.725-1.301-4.087-1.953,1.167-.95,2.335-1.9,3.502-2.85,1.04-.421,2.081-.841,3.121-1.262,6.806-2.256,13.612-4.512,20.417-6.768,1.004-.223,2.007-.446,3.011-.668,.667-.094,1.339-.16,2-.285,14.848-2.817,29.565-3.323,43.934,2.446,2.852,1.529,5.704,3.057,8.556,4.586,9.85,6.893,17.96,15.535,25.184,25.064,.418,.551,.691,1.212,1.031,1.822,.269-.254,.539-.509,.808-.763-4.646-11.149-10.468-21.639-17.787-31.288-.801-1.063-1.601-2.126-2.402-3.188-6.65-8.622-13.205-17.339-23.75-21.715-1.325-.55-2.533-1.383-3.8-2.076-6.628-3.626-13.258-7.25-19.887-10.874-5.652-3.2-11.303-6.401-16.955-9.601-1.303-.795-2.604-1.592-3.909-2.383-14.675-8.892-29.351-17.783-44.027-26.674-.501-.64-1.002-1.28-1.792-2.29,1.191-.365,2.014-.617,2.837-.869,4.89-.216,9.779-.433,14.669-.649,1.394-.064,2.788-.127,4.183-.191,9.336,.809,18.671,1.618,28.007,2.427,.998,.231,1.996,.462,2.994,.694,13.384,3.3,24.419,10.507,33.291,20.853,4.169,4.862,7.473,10.466,11.169,15.734,.648,1.212,1.296,2.425,1.943,3.637,2.385,5.165,4.762,10.333,7.164,15.491,.463,.995,.881,2.061,1.564,2.895,3.66,4.464,7.396,8.864,11.107,13.287,.705,1.003,1.409,2.007,2.114,3.01,4.708,8.486,9.414,16.973,14.131,25.454,.198,.356,.502,.653,.756,.977,.106,.198,.211,.396,.317,.594-.119-.188-.237-.377-.356-.565-.083-1.002-.14-2.008-.252-3.007-1.105-9.877-2.219-19.752-3.33-29.628,.004-1.196,.007-2.392,.011-3.588,.019-.928-.05-1.868,.072-2.782,1.049-7.895,2.517-15.675,6.548-22.712,.598-.962,1.195-1.924,1.793-2.886,4.675-5.337,9.351-10.673,14.026-16.01,7.394-6.446,15.199-12.302,23.763-17.073,.204,.129,.407,.258,.611,.388-.249,.985-.42,1.997-.758,2.95-4.868,13.735-9.763,27.461-14.634,41.195-.309,.87-.467,1.794-.695,2.692-.476,1.085-1.021,2.146-1.417,3.259-6.741,18.968-13.432,37.955-20.234,56.901-.779,2.17-.877,4.083,.236,6.066,.456,1.538,.913,3.076,1.369,4.614,3.478,13.353,5.863,26.88,6.463,40.69,.052,1.188,.132,2.376,.16,3.565,.028,1.179,.006,2.358,.006,3.148,3.565-10.249,7.185-20.66,10.806-31.07,.472-.692,.944-1.384,1.416-2.075,7.697-12.675,18.154-21.972,32.474-26.553,.627-.201,1.188-.607,1.779-.918,9.331-2.136,18.663-4.271,27.994-6.406,.165-.038,.342-.107,.5-.08,1.096,.187,2.188,.395,3.281,.596-.523,.915-.881,1.99-1.594,2.719-8.185,8.364-16.425,16.676-24.65,25.002-7.639,7.661-15.277,15.322-22.916,22.984Z" fill="#53655b"/>
      <path d="M0,605.37c1.075-.177,2.153-.338,3.224-.533,8.454-1.54,16.907-3.086,25.361-4.63,9.751-.265,19.32,.732,28.545,4.114,1.317,.695,2.633,1.391,3.95,2.086,2.375,1.559,4.75,3.118,7.125,4.677,1.693,1.333,3.386,2.666,5.08,4,1.708,1.556,3.416,3.112,5.124,4.668,.816,.817,1.632,1.633,2.449,2.45,5.274,6.373,10.548,12.746,16.121,19.48-1.758-6.818-3.402-13.192-5.046-19.566-.178-.819-.356-1.638-.534-2.457-.253-1.517-.506-3.035-.759-4.552-.288-1.373-.576-2.747-.864-4.12-.202-1.522-.403-3.044-.605-4.565-.147-.861-.294-1.723-.441-2.584,.208-3.822-1-6.83-3.871-9.663-14.901-14.705-29.584-29.63-44.352-44.469-1.552-1.559-3.16-3.062-4.743-4.592-8.002-8.098-16.006-16.194-24.004-24.296-.656-.664-1.36-1.308-1.882-2.07-.798-1.167-.411-2.019,1.012-2.039,1.262-.018,2.561,.108,3.788,.404,8.898,2.15,17.781,4.359,26.669,6.55,19.282,5.909,31.8,18.922,38.965,37.401,1.776,4.58,2.989,9.381,4.397,14.099,.912,3.056,1.708,6.148,2.556,9.223,.382-.37,.453-.684,.459-.998,.321-18.126,3.142-35.838,8.644-53.128,.369-1.161,.155-2.691-.257-3.887-3.015-8.752-6.124-17.472-9.258-26.183-2.068-5.749-4.226-11.466-6.344-17.197-.817-2.387-1.634-4.775-2.451-7.162-2.509-7.048-5.018-14.095-7.527-21.143l-12.309-35.468c.235-.199,.471-.398,.706-.597,8.645,4.548,16.26,10.6,23.698,16.91,4.675,5.335,9.351,10.67,14.027,16.005,.6,.957,1.2,1.915,1.799,2.872,3.182,6.052,5.337,12.421,5.949,19.266,.231,2.586,.451,5.173,.675,7.759-.045,.815-.09,1.629-.135,2.444-.128,.821-.319,1.637-.374,2.463-.321,4.811-.429,9.645-.96,14.432-.59,5.318-1.557,10.594-2.434,16.379,2.199-4.455,4.032-8.544,6.193-12.453,2.823-5.108,5.905-10.074,8.875-15.1,.536-.671,1.072-1.342,1.607-2.012,3.824-4.626,7.658-9.243,11.462-13.886,.528-.645,.995-1.371,1.347-2.126,2.575-5.516,5.113-11.05,7.662-16.578,.645-1.215,1.29-2.43,1.935-3.645,.289-.417,.612-.813,.861-1.253,8.91-15.718,21.243-27.56,38.405-33.939,1.024-.314,2.048-.627,3.072-.941,18.022-4.027,36.173-4.001,54.545-1.866-.997,1.499-2.053,2.691-3.344,3.513-7.09,4.511-14.167,9.051-21.382,13.355-9.912,5.913-19.944,11.626-29.925,17.424-3.929,2.216-7.859,4.432-11.788,6.647-.466,.201-.953,.363-1.395,.607-10.093,5.582-20.183,11.168-30.262,16.775-.733,.408-1.499,.872-2.04,1.493-4.897,5.621-9.747,11.283-14.611,16.933-.564,.792-1.128,1.583-1.692,2.375-7.376,9.544-12.985,20.065-17.339,31.35,7.685-9.789,15.976-18.89,26.177-26.069l2.065-1.429c.542-.24,1.111-.433,1.621-.729,7.802-4.53,16.249-7.028,25.228-7.071,7.018-.034,14.04,.672,21.06,1.049,1.019,.184,2.039,.368,3.058,.552,.566,.171,1.136,.329,1.697,.514,9.104,2.988,18.221,5.937,27.291,9.025,1.154,.393,2.06,1.517,3.081,2.302-1.172,.654-2.271,1.612-3.527,1.915-9.493,2.282-19.016,4.434-28.53,6.627-1.033,.204-2.065,.408-3.098,.612-4.56,1.01-9.12,2.021-13.68,3.031-1.04,.303-2.079,.606-3.119,.91-.59,.043-1.197,.012-1.769,.141-11.973,2.7-23.942,5.418-35.912,8.132-1.038,.306-2.076,.612-3.114,.918-6.137,1.318-12.267,2.668-18.414,3.936-1.998,.412-2.907,1.593-3.546,3.475-7.483,22.035-9.322,44.635-6.895,67.668,.347,3.289,.896,6.556,1.433,10.414,2.515-6.052,4.606-11.513,7.024-16.824,9.057-19.895,21.237-36.833,42.943-44.562,1.163-.412,2.325-.823,3.488-1.235,10.339-2.802,20.871-3.659,31.54-3.123,1.049,.028,2.098,.055,3.147,.083,1.605-.264,3.21-.528,4.815-.792l.483,.513c-.589,.885-1.054,1.895-1.795,2.626-1.07,1.056-2.339,1.911-3.523,2.851-1.024,.786-2.047,1.571-3.071,2.357-5.085,3.815-10.17,7.63-15.256,11.445-.861,.674-1.722,1.348-2.584,2.022-1.21,.864-2.421,1.727-3.631,2.591-2.525-1.827-5.05-3.654-8.172-5.913-3.496,6.759-6.862,13.265-10.227,19.771-9.651,7.263-19.302,14.526-28.954,21.789-1.245,.978-2.49,1.956-3.735,2.934-2.063,1.556-4.125,3.112-6.187,4.668-1.764,1.385-3.529,2.769-5.294,4.154,.314,1.511,.627,3.021,.941,4.532,.18,.862,.359,1.723,.539,2.585,.055,.42,.076,.847,.171,1.257,4.233,18.195,10.629,35.624,18.586,52.501,.16,.34,.437,.624,1.013,1.426,0-8.234-.139-15.859,.033-23.478,.254-11.302,3.409-21.753,9.804-31.154,.813-1.046,1.626-2.092,2.44-3.138l4.146-4.574c1.532-1.349,3.063-2.698,4.595-4.048,2.07-1.535,4.14-3.07,6.21-4.605,.99-.648,1.979-1.296,2.969-1.944,4.067-1.959,8.134-3.917,12.201-5.876,4.569,3.549,9.138,7.097,13.708,10.647-1.585,1.886-3.172,3.772-4.758,5.658-1.308,1.582-2.615,3.163-3.923,4.745-.695,.826-1.39,1.651-2.086,2.477-.522,.554-1.076,1.081-1.56,1.666-10.289,12.41-20.462,24.917-30.902,37.198-4.597,5.407-7.815,11.444-10.264,18.012-.672,1.803-.699,3.358,.284,5.069,5.535,9.631,10.837,19.4,16.556,28.919,3.395,5.652,7.409,10.931,11.145,16.378,.089,.12,.178,.24,.268,.361-.008-.191-.015-.383-.023-.574-.289-1.063-.632-2.115-.859-3.191-1.925-9.12-4.179-18.188-5.638-27.383-1.418-8.936,.109-17.655,5.908-24.855,5.523-6.858,11.702-13.187,17.623-19.721,.348-.384,.966-.524,1.849-.979,.112,1.301,.352,2.282,.253,3.228-.537,5.15-.767,10.372-1.822,15.419-3.039,14.54-6.423,29.008-9.671,43.503-.353,1.323-.706,2.646-1.06,3.969-1.177,3.989-2.514,7.941-3.438,11.987-.291,1.274,.087,3.178,.914,4.149,4.072,4.778,8.39,9.347,12.645,13.967,.431,.468,1.02,.79,1.82,1.395,0-.917,.022-1.468-.003-2.016-.263-5.755-.842-11.516-.716-17.263,.132-6.024,1.623-11.848,5.77-16.511,2.64-2.968,5.635-5.619,8.471-8.412,3.379-1.925,6.758-3.849,10.137-5.774-.266,1.823-.196,3.779-.86,5.443-2.095,5.25-4.465,10.391-6.728,15.574-1.044,2.21-2.088,4.42-3.132,6.63-3.369,7.663-6.779,15.308-10.04,23.016-.324,.765-.083,2.285,.49,2.83,3.244,3.081,6.669,5.972,10.032,8.928,.99,.851,1.98,1.702,2.97,2.553,1.579,1.363,3.204,2.676,4.719,4.107,.928,.877,1.686,1.934,2.52,2.91-.681,.851-1.362,1.702-2.043,2.553-.51-.003-1.02-.006-1.53-.009-2.195-1.894-4.39-3.787-6.585-5.68-8.735-8.613-17.459-17.239-26.237-25.808-.51-.498-1.493-.81-2.213-.743-3.115,.289-6.214,.751-9.319,1.151-1.378,.123-2.756,.245-4.135,.368-10.524,.371-21.048,.741-31.572,1.112-2.212-.035-4.424-.07-6.636-.105-7.402-.176-14.804-.351-22.206-.527-.338-.519-.675-1.038-1.013-1.557,.88-.363,1.824-.619,2.63-1.104,6.317-3.802,12.446-7.953,18.952-11.394,6.515-3.445,13.56-5.409,21.11-4.446,1.852,.385,3.704,.771,5.557,1.157,7.869,3.404,15.739,6.808,23.684,10.245-.489-.638-.99-1.297-1.496-1.952-3.013-3.895-6.217-7.66-8.997-11.715-4.032-5.883-7.719-12.001-11.659-17.949-.577-.871-1.695-1.863-2.631-1.939-7.619-.611-15.254-1.016-22.884-1.484-1.561-.098-3.122-.197-4.682-.295-18.499-1.587-36.997-3.175-55.496-4.762-3.246-.5-6.507-.919-9.727-1.552-.865-.17-1.602-.989-2.399-1.509,.581-.661,1.053-1.49,1.763-1.953,2.399-1.561,4.883-2.991,7.335-4.472,.404-.119,.839-.178,1.206-.367,9.843-5.076,20.114-8.939,31.021-11.016,1.322-.126,2.644-.252,3.966-.378,8.655-.771,16.569,1.77,23.737,6.216,7.981,4.951,15.566,10.541,23.324,15.853,.28,.202,.561,.404,.841,.606,0,0,.118,.08,.118,.08l-.155-.036c-.116-.388-.233-.777-.349-1.165-.172-.387-.313-.791-.52-1.158-8.086-14.311-14.818-29.224-20.149-44.781-.386-1.126-1.779-2.237-2.962-2.708-9.941-3.958-19.939-7.775-29.926-11.617-12.759-4.908-25.525-9.799-38.287-14.697-9.147-3.565-18.293-7.135-27.445-10.687-.544-.211-1.14-.288-1.712-.427,0-2.21,0-4.42,0-6.63Z" fill="#53655b"/>
      <path d="M172.834,609.236c-4.569-3.549-9.138-7.097-13.707-10.645-5.327-4.269-10.702-8.482-15.949-12.848-1.38-1.149-2.363-2.776-3.529-4.183,3.366-6.506,6.731-13.012,10.227-19.771,3.123,2.259,5.648,4.086,8.172,5.913,5.276,3.606,10.552,7.213,15.828,10.82,.176,.109,.352,.218,.528,.327,.337,.212,.674,.424,1.011,.636,3.909,2.54,7.819,5.081,11.728,7.621,5.317,4.564,10.789,8.962,15.882,13.763,2.411,2.274,4.875,3.49,8.097,3.35,1.533,.889,3.065,1.777,4.598,2.666,1.842,1.382,3.683,2.763,5.525,4.145,1.897,1.515,3.794,3.03,5.691,4.544,1.697,1.364,3.395,2.728,5.092,4.091,1.196,1.007,2.392,2.014,3.588,3.021,2.541,3.273,4.979,6.635,7.671,9.778,1.216,1.419,2.941,2.402,4.903,3.953-.441-3.345-.375-3.324,.661-6.505,.351-1.079,.388-2.296,.374-3.448-.017-1.423-.238-2.843-.371-4.264,.342-.85,.685-1.701,1.027-2.551,.462-1.522,.924-3.045,1.385-4.567,.045-1.368,.09-2.736,.135-4.104-.046-1.52-.092-3.04-.138-4.56-.119-.859-.237-1.717-.356-2.576-.384-5.639-.981-11.273-1.102-16.918-.17-7.95,.013-15.908,.046-23.863,.027-.849,.054-1.698,.08-2.546-.009-2.86,.08-5.724-.052-8.579-.172-3.73,.747-7.053,2.787-10.209,2.007-3.104,3.695-6.414,5.523-9.633,.639-1.062,1.278-2.124,1.917-3.186,1.25-2.082,2.491-4.169,3.752-6.244,8.639-14.209,16.828-28.661,23.663-43.844,3.527-7.834,6.719-15.772,7.672-24.414,.104-.978,.209-1.956,.313-2.934,.398-4.284,.797-8.569,1.195-12.853,.146-1.193,.293-2.386,.439-3.58,.075-1.016,.253-2.035,.209-3.046-.402-9.243-.961-18.481-1.231-27.728-.2-6.856-.039-13.722-.039-20.584,.334,.16,.667,.321,1.001,.481,.933-.866,1.861-1.735,2.799-2.595,.574-.527,1.162-1.038,1.743-1.557,.491,.624,1.022,1.221,1.463,1.879,.561,.835,.878,2.244,1.604,2.482,2.18,.714,2.241,2.03,2.038,3.947-.705,6.665-1.846,13.361-1.702,20.022,.273,12.647,1.32,25.278,2.045,37.915,.027,2.718,.053,5.435,.08,8.153-1.032,15.333-2.06,30.665-3.112,45.997-.051,.736-.071,1.742-.527,2.14-3.842,3.349-4.967,8.236-7.188,12.483-4.993,9.547-9.837,19.172-14.769,28.751-1.098,2.133-.679,2.888,1.753,2.923,1.443,.021,2.971-.222,4.296,.187,.811,.25,1.615,1.433,1.849,2.343,.178,.697-.543,1.625-.864,2.449-.719-.408-1.395-.959-2.168-1.189-1.053-.313-2.179-.382-3.273-.555-.059,.844-.318,1.736-.129,2.52,.274,1.14,.846,2.213,1.334,3.296,1.121,2.484,1.774,2.491,3.882,.768,9.078-7.42,18.892-13.581,30.334-16.669,2.607-.703,5.402-.709,8.473-1.08v33.367c-1.003-.356-1.617-.625-2.257-.792-2.217-.578-6.565,2.004-6.175,3.867,.461,2.203-.579,3.055-2.189,3.943-1.482,.818-2.855,1.837-4.258,2.793-4.474,3.048-8.424,6.516-10.632,11.696-.666,1.562-2.262,2.704-3.283,4.143-1.396,1.97-2.65,4.041-3.965,6.069-.254,.806-.507,1.612-.761,2.419-.182,1.564-.363,3.129-.544,4.693-.007,1.367-.014,2.734-.021,4.102,.112,1.531,.224,3.062,.336,4.593,.05,.857,.1,1.714,.15,2.571,1.391,4.645-3.573,4.244-5.404,6.838,1.76,4.68,3.599,9.567,5.466,14.532,2.889-.927,4.536,.041,5.755,2.291,1.331,2.457,2.853,4.814,4.363,7.169,.391,.61,.966,1.214,1.601,1.537,3.205,1.629,3.812,3.013,2.483,6.279,8,7.472,17.491,11.684,28.4,12.783,.845,.109,1.689,.217,2.534,.326,1.361,.03,2.721,.061,4.081,.091,1.015-.141,2.03-.281,3.045-.422,1.198-.191,2.395-.382,3.593-.573,.856-.219,1.712-.438,2.569-.657,5.788-1.309,11.062-3.787,15.985-7.049,.558-.37,1.167-.815,1.478-1.376,1.356-2.447,1.933-5.677,5.814-5.385,3.91-3.416,7.618-6.956,8.338-12.513,.121-.935,.489-1.839,.792-2.934,1.15,.579,1.936,.975,3.016,1.52,1.089-2.071,2.15-3.988,3.094-5.961,.215-.449,.25-1.423-.005-1.591-2.644-1.746-.452-2.695,.529-3.91,.642-.796,1.133-1.714,1.734-2.644-3.763-.861-6.961-1.518-10.104-2.374-.651-.177-1.39-1.028-1.542-1.694-.1-.438,.673-1.26,1.239-1.631,1.472-.967,3.044-1.78,4.577-2.654,2.065,.361,3.115-.477,3.073-2.603,.044-1.521,.088-3.042,.132-4.563-.135-1.364-.27-2.728-.405-4.092-.301-1.552-.602-3.105-.904-4.657-.25-.829-.501-1.659-.751-2.489-1.425-2.663-2.52-5.581-4.339-7.94-5.019-6.512-11.026-12.073-17.741-16.829-1.911-1.354-3.986-2.477-6.004-3.718-1.794,3.545-2.024,3.479-5.047,1.368-2.823-1.971-2.326-4.831-2.559-7.552-.296-4.99-.758-9.978-.814-14.971-.027-2.364,.768-4.731,1.09-7.111,.089-.656,.027-1.526-.344-2.006-.603-.781-1.518-1.323-2.301-1.965-.106-.671-.212-1.342-.318-2.013,.152-.203,.262-.472,.461-.601,3.945-2.544,4.007-6.141,3.547-10.406-.912-8.469-1.231-17.002-1.727-25.513-.062-1.062,.282-2.148,.438-3.223,2.633-.409,2.139,1.912,2.454,3.142,.602,2.349,.757,4.813,1.116,7.366,3.07-.195,4.298,1.843,4.939,4.071,2.079,7.231,6.058,14.071,4.728,22.042-.328,1.969,.884,2.941,2.537,3.506,3.244,1.11,6.498,2.188,9.748,3.28,.852,.473,1.704,.945,2.556,1.418,5.426,3.769,10.853,7.538,16.279,11.308,.725,.656,1.45,1.311,2.176,1.967,6.881,7.444,13.045,15.4,17.366,24.718,2.228-1.234,3.002-2.749,1.831-4.921-1.313-2.437-.887-4.621,.525-6.944,.666-1.096,1.059-2.876,.652-4.015-1.503-4.201-3.391-8.264-5.135-12.379-1.051-1.818-2.168-3.602-3.135-5.464-.905-1.742-1.606-3.59-2.486-5.346-.401-.801-.886-1.651-1.556-2.211-3.563-2.982-7.284-5.781-10.755-8.862-1.147-1.018-2.158-2.601-2.458-4.082-.784-3.882-1.142-7.851-1.669-11.785,.226-1.278,.452-2.557,.723-4.092-4.203-.453-4.169-4.044-4.487-7.171-.368-3.622-.177-7.3-.499-10.929-1.23-13.856-2.57-27.702-3.869-41.552-.044-1.029-.088-2.059-.133-3.088,.021-.338,.061-.676,.06-1.014-.008-11.288-.045-22.576-.024-33.864,.018-9.824,1.638-19.656-.163-29.478-.119-.651,.194-1.51,.575-2.098,.78-1.204,1.839-2.227,2.606-3.437,1.176-1.855,2.498-1.921,3.699-.104,.488,.738,1.167,1.348,1.666,2.08,.556,.816,1.372,1.673,1.446,2.564,.754,9.046,1.407,18.101,2,27.159,.06,.914-.221,2.036-.752,2.762-1.067,1.46-.862,2.479,.592,3.36,1.69,1.023,2.188,2.442,1.536,4.396-1.444,.499-4.136-.746-3.965,2.059,.05,.819,2.108,1.515,3.867,2.679,.586,5.99,1.249,12.774,1.912,19.558-1.593,.787-3.365,1.663-5.136,2.538,.107,.223,.213,.446,.32,.669,1.071,.234,2.143,.467,3.214,.701,.478,.861,.957,1.721,1.435,2.581-.31,1.725-.433,3.512-.979,5.159-.618,1.862-.073,2.728,1.743,3.048,1.378,.243,2.752,.587,2.837,2.326,.083,1.694,.717,3.603-1.528,4.6-.413,.183-.612,.846-1.051,1.496,1.21,.13,2.091,.225,3.303,.355-1.277,4.688,1.308,7.65,4.333,10.423,.931,.853,1.811,1.761,2.714,2.644,.39,1.379,.781,2.757,1.171,4.136-.041,4.881,.64,9.578,3.147,13.906,2.754,4.753,5.367,9.587,8.075,14.367,1.688,2.981,3.437,5.927,5.159,8.889,.722,1.089,1.444,2.179,2.167,3.268,.772,1.369,1.436,2.813,2.333,4.094,4.957,7.077,9.753,14.19,8.414,23.518-.058,.403,.086,.834,.135,1.252,.013,1.204,.026,2.407,.04,3.611,.383,.204,.816,.642,1.142,.574,2.325-.489,2.962,.506,2.909,2.713-.118,4.901,.027,9.809-.092,14.71-.023,.942-.764,1.867-1.174,2.799-.807,.276-1.614,.552-2.72,.93,.783,.986,1.289,1.624,1.795,2.262-.416,.617-.719,1.371-1.269,1.826-1.552,1.285-1.079,2.569-.36,4.064,.747,1.552,1.454,3.179,1.808,4.852,.525,2.484,.724,5.036,1.062,7.56,.194,.868,.388,1.736,.582,2.603-1.163,.484-2.326,.968-3.667,1.525v3.011c0,1.374,0,2.748,0,4.121,0,1.517,0,3.033,0,4.55-.002,.862-.004,1.725-.006,2.587v14.409c2.652-1.949,4.977-3.598,7.235-5.334,1.918-1.474,4.734-2.414,3.289-6.111,3.471,.482,6.174-.151,8.24-2.52,1.044-.812,2.089-1.623,3.134-2.435,2.184-1.574,4.368-3.147,6.551-4.721,1.724-1.319,3.449-2.638,5.173-3.957,2.185-1.573,4.371-3.147,6.556-4.72,1.27-.967,2.54-1.934,3.809-2.901,5.363-3.957,10.725-7.914,16.088-11.872,1.039-.796,2.077-1.593,3.116-2.389,.451-1.072,1.203-2.123,1.283-3.222,.116-1.591,.341-2.597,2.254-2.56,1.584,.031,2.788-.495,3.514-2.268,1.068-2.607,5.956-4.895,8.667-4.376,1.905,.365,1.819-.655,1.355-1.894-.731-1.951-.017-3.271,1.691-4.241,2.283-1.298,4.552-2.622,6.826-3.935,2.609-1.376,5.261-2.678,7.815-4.15,2.528-1.457,3.601-1.278,4.452,1.602,1.313,4.444,2.305,8.982,3.435,13.48,.102,.406,.224,.806,.337,1.21,.227,1.167,.285,2.399,.714,3.486,.982,2.49,.155,3.985-1.967,5.513-4.75,3.42-9.283,7.141-13.905,10.74-4.661,3.538-9.322,7.076-13.981,10.614-1.514,.539-1.937,1.628-1.813,3.174,.07,.883-.091,1.861-.421,2.687-1.052,2.629-3.31,2.81-5.704,2.579-1.866-.18-3.753-.453-4.943,1.534-.72,.579-1.44,1.158-2.493,2.003,1.644,.463,2.746,.772,3.847,1.082-.365,.942-.73,1.885-1.096,2.827-.995,.935-1.99,1.869-2.984,2.804-1.265-.574-2.53-1.148-3.947-1.792-1.172,1.47-2.462,3.088-3.752,4.705-.853,.873-1.706,1.746-2.558,2.619-.204,1.111-.481,2.215-.595,3.335-.238,2.34-.706,4.485-3.663,5.468-.195-1.694-.365-3.168-.583-5.061-3.792,2.777-7.111,5.266-10.497,7.662-1.541,1.09-1.493,1.863-.111,3.147,.707,.657,1.265,2.186,.991,3.029-.461,1.417-1.638,2.601-2.714,4.176-1.201-2.407-2.215-4.442-3.344-6.706-1.225,.858-2.005,1.404-2.8,1.961,.404,.623,.655,.966,.859,1.334,.377,.68,.727,1.374,1.088,2.063-.776,.175-1.548,.47-2.33,.502-1.848,.075-3.701,.024-5.552,.024,.032,2.99-.668,3.694-3.244,2.818-2.253-.766-3.821-.149-5.54,1.23-3.239,2.6-6.624,5.018-9.948,7.512-.652,.394-1.304,.789-1.955,1.183-.562,.156-1.121,.322-1.686,.466-4.879,1.251-5.17,1.042-5.546-3.972-.161-1.04-.321-2.08-.482-3.12-.549-1.113-1.081-2.234-1.653-3.335-.701-1.35-1.648-2.617-2.091-4.044-.39-1.256-.169-2.69-.33-4.032-.232-1.923,.31-3.419,1.874-4.66,1.245-.988,2.293-2.223,3.652-3.569-3.834-.786-7.09,1.771-10.573,.225,.747,1.249,1.735,2.331,2.494,3.555,1.151,1.857,.653,2.814-1.534,3.067-1.389,.161-2.798,.157-4.426,.239q4.55,4.264,2.871,7.326c-.648,.418-1.295,.836-1.943,1.253-.125-.075-.261-.113-.406-.114-.254-.429-.505-.86-.764-1.286-.994-1.633-1.801-1.671-2.368,.283-.142,.09-.319,.15-.42,.273-3.201,3.945-6.39,7.9-9.592,11.846-1.464,1.804-2.949,3.591-4.485,5.46,.21,.293,.378,.749,.703,.949,3.67,2.256,5.308,7.087,10.538,7.573,2.458,.228,3.102,3.01,2.793,5.505,.141,1.535,.283,3.069,.424,4.604,.359,4.416,2.08,8.343,4.321,12.089,1.531,2.559,3.645,4.43,6.444,5.477,.989,.37,2.679,.359,2.925,.972,1.259,3.139,4.138,5.87,2.83,9.767-.116,.346,.026,.813,.14,1.197,1.159,3.89,4.215,6.183,7.262,8.94,.857-4.545,1.642-8.7,2.426-12.856,.23-1.049,.459-2.098,.689-3.147,.355-1.216,.747-2.422,1.058-3.649,2.927-11.543,7.05-22.47,15.895-30.975l1.491-1.483c3.652-2.743,7.239-5.58,10.993-8.177,1.341-.928,3.041-1.584,4.657-1.822,4.325-.635,7.237,3.079,5.767,7.08-1.458,3.97-2.87,7.957-4.302,11.936-.325,.851-.65,1.703-.975,2.554-2.529,8.234-5.501,16.365-7.458,24.733-1.859,7.952-2.656,16.152-3.92,24.244-.055,1.379-.111,2.758-.166,4.137,.525,9.849,1.049,19.698,1.574,29.548,.131,1.031,.262,2.063,.393,3.094-.008,5.933,.054,11.868-.06,17.8-.044,2.265,.963,3.191,3.222,3.468,.277-1.159,.447-2.223,.788-3.229,.864-2.552,2.063-2.758,3.973-.979,3.1,2.886,6.345,5.616,9.465,8.481,1.096,1.007,2.039,1.157,3.383,.433,1.658-.893,3.284-1.41,5.102,.217,1.742,1.559,1.978,3.052,1.421,5.177-.224,.854,.409,2.114,.996,2.947,.556,.789,1.563,1.261,2.371,1.873,1.159,.891,2.317,1.781,3.476,2.672,.501,.448,.983,.919,1.507,1.339,9.972,8.011,19.965,15.997,29.902,24.052,1.046,.847,1.766,2.097,2.637,3.159-.185,.134-.371,.269-.556,.403-1.208-.154-2.417-.308-3.625-.462-.057,.187-.113,.373-.17,.56,4.368,3.72,8.737,7.44,13.105,11.159,5.721,5.047,11.435,10.104,17.186,15.117,.304,.265,.928,.163,1.743,.281-.263-5.046-5.984-5.966-7.288-10.264,3.208,.222,5.701,1.03,7.046,3.994,.303,.667,.796,1.328,1.37,1.777,6.74,5.281,13.518,10.515,20.269,15.783,.731,.57,1.458,1.199,2.005,1.936,.822,1.106,1.204,2.27-.327,3.236-1.336,.843-1.695,1.654-.231,2.945,.545,.48,.684,2.13,.289,2.853-2.967,5.435-6.069,10.798-9.225,16.126-1.346,2.272-2.961,1.267-4.463,.061-6.551-5.262-13.082-10.551-19.652-15.789-9.622-7.669-19.271-15.303-28.909-22.952-7.504-5.962-15.008-11.923-22.513-17.885-1.029-.813-2.057-1.627-3.086-2.44-9.385-7.541-18.771-15.082-28.156-22.624-.289,.186-.577,.371-.866,.557,0,.96-.033,1.921,.006,2.88,.12,2.964,.503,5.939,.335,8.885-.153,2.685,.865,4.145,3.17,5.358,4.422,2.327,4.633,6.563,.6,9.505-.646,.472-1.645,.461-2.29,.932-.577,.422-.892,1.202-1.322,1.825,.676,.162,1.456,.619,2.009,.427,1.393-.485,2.478-.586,3.124,1.004-.197,1.367-.393,2.735-.59,4.102-1.017,1.459-2.637,2.814-2.911,4.401-.434,2.514,.032,5.183,.118,7.786,.083,1.547,.166,3.093,.249,4.64,.366,1.881,.789,3.754,1.071,5.648,.123,.825,.282,1.928-.132,2.504-2.973,4.142-4.108,8.757-3.944,13.77,.685,4.589,2.904,8.377,5.775,11.959,.908,1.132,1.077,3.056,1.137,4.634,.26,6.853,.153,13.725,.577,20.565,.321,5.175,2.536,9.827,5.334,14.159,12.598,19.499,27.652,36.975,44.088,53.295,5.484,5.445,11.149,10.709,16.685,16.102,.833,.812,1.414,1.884,2.111,2.836-.226,.284-.453,.568-.68,.852-1.503-.757-3.083-1.392-4.498-2.289-15.063-9.543-30.104-19.121-45.142-28.703-15.539-9.902-31.051-19.846-46.61-29.716-3.987-2.529-6.264-5.842-5.932-10.727,.132-1.945,.196-3.926-.032-5.853-.154-1.299-.89-2.524-1.332-3.795-.239-.687-.562-1.398-.572-2.102-.023-1.669,.112-3.341,.201-5.011,.022-.415-.032-1.053,.199-1.203,2.272-1.475,1.54-3.757,1.554-5.773,.042-6.026-.027-12.053-.052-18.079,.089-.498,.251-.995,.257-1.494,.115-9.344,.217-18.688,.297-28.033,.004-.442-.221-.886-.409-1.586-1.148,1.277-2.03,2.402-3.06,3.37-1.383,1.3-3.155,1.323-4.358,.084-.607-.626-.626-2.396-.21-3.338,1.405-3.176,3.16-6.195,4.715-9.307,3.032-6.066,6.018-12.155,9.024-18.234,.463-.865,.926-1.729,1.388-2.593,3.861-7.693,7.356-15.485,6.576-24.428,.035-1.38,.07-2.76,.105-4.14-.041-12.651-.133-25.303-.105-37.954,.016-7.269-4.241-12.641-7.71-18.698-.148,.495-.252,.652-.222,.779,.097,.411,.228,.815,.371,1.212,4.231,11.744,6.03,23.853,5.07,36.296-.304,3.934-1.285,7.815-1.956,11.721-.46,.865-.921,1.731-1.381,2.596-.38,2.046-.641,4.126-1.189,6.126-.298,1.085-.848,2.365-1.701,2.981-2.055,1.484-2.689,2.958-2.048,5.626,.141,.588-.142,1.603-.594,1.956-2.547,1.991-3.495,4.87-4.574,7.696l-.944,2.26c-1.917,3.958-3.834,7.916-5.758,11.888,3.669,.975,4.338,2.34,1.92,5.037-2.458,2.742-5.455,5-8.196,7.492-1.053,.958-2.227,1.854-3.031,2.999-1.147,1.633-.59,2.626,1.396,2.96,.486,.082,.978,.128,2.111,.274-1.033,1.606-1.642,3.129-2.728,4.141-4.882,4.553-9.872,8.992-14.903,13.38-.617,.538-1.903,.961-2.559,.683-2.296-.974-3.673,.491-5.234,1.561-1.542,1.055-3.144,2.047-4.565,3.25-4.265,3.611-10.305,5.076-12.936,10.675-.124,.264-.557,.576-.815,.551-1.042-.104-2.072-.332-3.107-.514,.15-.842,.02-1.931,.503-2.479,1.277-1.447,2.684-2.863,4.284-3.922,3.254-2.153,6.691-4.028,10.013-6.083,3.418-2.114,6.645-4.44,8.503-8.203,.274-.555,.927-1.35,1.365-1.326,2.548,.14,3.291-1.799,4.221-3.467,2.232-4.004,4.247-8.136,6.632-12.044,1.148-1.881,2.994-3.325,4.402-5.066,.581-.718,1.318-1.796,1.162-2.538-.588-2.798,.503-4.973,2-7.115,1.07-1.531,2.115-3.081,3.126-4.652,.944-1.467,1.131-2.902,.801-4.77-.293-1.662,.198-4.399,1.345-5.169,1.908-1.282,2.198-2.609,1.973-4.444-.25-2.039,.645-3.357,1.959-4.91,1.8-2.128,3.832-4.723,4.154-7.318,1.192-9.592,1.722-19.266,2.501-28.909,.03-1.385,.06-2.77,.091-4.155,.28-4.543-.173-8.83-2.537-12.974-2.118-3.714-3.506-7.844-5.482-12.404,0,4.365,0,7.993,0,11.621l2.09,9.721c-.043,5.257,.185,10.533-.187,15.766-.71,10.006-2.658,19.781-6.238,29.211-4.57,12.04-11.765,22.526-19.344,32.762-.924,1.248-3.216,2.135-4.775,2.004-.85-.072-1.556-2.606-2.194-4.087-.271-.63-.199-1.407-.283-2.118-.253,.036-.507,.072-.76,.108,.086,1.416,.069,2.847,.287,4.242,.215,1.374,.106,2.393-1.183,3.294-.516,.361-.717,1.549-.628,2.31,.134,1.143,.65,2.241,1.095,3.646-5.068,.175-8.314,3.568-12.162,5.806-1.075,.625-2.442,.749-3.675,1.102-.148-1.201-.527-2.426-.403-3.598,.492-4.638,1.356-9.246,1.669-13.892,.293-4.345,.063-8.726,.063-13.487-1.738,1.524-3.181,2.789-5.067,4.443-.378-3.079-.666-5.424-.954-7.769-.331-.022-.662-.044-.993-.067-.171,.953-.501,1.909-.476,2.857,.042,1.605,.498,3.217,.403,4.803-.052,.868-.879,1.689-1.357,2.531-.881-.79-1.929-1.467-2.577-2.417-.341-.5,.125-1.489,.037-2.235-.157-1.33-.459-2.642-.7-3.962-.373-.012-.745-.025-1.118-.037-.308,1.2-1.161,2.578-.838,3.573,2.475,7.615-1.194,14.719-1.699,22.068-.21,3.046-3.334,4.116-6.097,2.814-.63-.297-1.701-.226-2.281,.137-.392,.245-.436,1.317-.358,1.986,.17,1.442,.519,2.863,.852,4.591-1.238-.137-1.924-.12-2.553-.301-1.912-.551-2.737,.143-2.672,2.101,.034,1.015,.041,2.048-.101,3.05-.73,5.151-2.223,6.597-7.024,6.922-.845,.032-1.69,.063-2.536,.095-1.195,.31-2.391,.621-3.586,.931-1.007,.154-2.015,.309-3.023,.463-1.383,.149-2.766,.299-4.149,.448-.829,.039-1.658,.077-2.487,.116h-4.291c1.19,1.378,1.862,2.157,2.535,2.936l-.041-.083c-1.678-.423-3.34-.943-5.041-1.227-.877-.147-1.971-.143-2.713,.259-2.108,1.142-3.564,2.808-3.359,5.478,.057,.738-.093,1.553-.379,2.237-.272,.652-.752,1.506-1.311,1.664-.498,.14-1.347-.432-1.832-.905-.759-.741-1.341-1.662-1.998-2.508-.09,.248-.179,.496-.269,.743-1.918-.282-3.997-.194-5.715-.937-2.202-.954-4.216-2.448-6.12-3.952-1.539-1.216-2.915-1.954-4.69-.629-1.705-.136-3.41-.272-5.114-.408-3.649-.429-4.498-1.245-5.475-5.264,.432-1.137,1.433-2.34-.122-3.353-2.332-1.518-4.713-2.962-7.073-4.438-.89-.799-1.781-1.599-2.671-2.398-.12-.576-.544-1.39-.31-1.69,1.781-2.283-.344-3.237-1.489-4.366-4.736-4.673-9.556-9.263-14.344-13.883-.213-.26-.426-.52-.638-.78l-.878-1.253c-2.706-5.447-6.293-10.642-7.947-16.392-4.195-14.588-7.491-29.43-7.934-44.789-.954,4.065-2.179,8.153-2.312,12.276-.15,4.655,.466,9.372,1.133,14.007,1.155,8.032,3.095,15.896,5.953,23.515,.321,.855,.444,1.784,.659,2.678-.781,.328-1.562,.656-2.11,.886,1.7,2.179,3.318,4.254,4.936,6.329,.655,1.141,1.311,2.281,1.966,3.422-.185,.262-.37,.524-.555,.786-2.074-1.106-4.091-2.35-6.252-3.245-.754-.312-2.29-.078-2.698,.475-.449,.609-.386,2.377,.116,2.75,1.222,.907,2.78,1.539,4.289,1.832,1.555,.302,3.217,.007,4.826,.089,2.382,.122,3.696,1.519,4.574,3.816-.851,.183-1.392,.189-1.815,.415-.692,.37-1.308,.883-1.956,1.336,.645,.547,1.295,1.089,1.934,1.644,1.831,1.59,3.985,2.936,5.416,4.829,2.958,3.911,5.539,8.107,8.249,12.203,.359,.542,.568,1.183,.847,1.778-.189,.179-.379,.358-.568,.538-1.241-.623-2.583-1.103-3.706-1.893-10.502-7.387-18.584-17.074-25.79-27.544-.472-.686-.238-2.247,.222-3.103,.931-1.732-.176-5.506-2.087-5.661-1.695-.137-1.758-1.051-1.99-2.3-.494-2.667-1.17-5.3-1.901-8.518-1.66,2.485-3.305,4.098-2.284,6.739,1.514,3.915,2.558,8.039,4.355,11.81,1.434,3.009,1.442,6.587,3.849,9.202,.389,.422,.1,1.479,.103,2.243,.047,11.91,.09,23.82,.134,35.73-.039,12.995-.185,25.991-.073,38.985,.056,6.49-2.429,11.228-8.068,14.502-4.771,2.77-9.412,5.769-14.025,8.798-1.264,.83-2.177,2.178-3.33,3.199-.613,.542-1.358,.974-2.109,1.312-2.064,.93-4.327,1.522-6.222,2.71-22.015,13.801-43.974,27.691-65.959,41.541-1.399,.881-2.882,1.628-4.451,2.508-1.077-2.382,.26-3.502,1.457-4.676,10.919-10.703,21.836-21.408,32.757-32.11,10.73-10.515,19.936-22.251,27.979-34.918,.137-.215,.264-.438,.416-.641,5.623-7.514,8.097-15.926,7.394-25.308-.196-2.618,.205-5.287-.066-7.892-.473-4.556,.648-8.504,3.105-12.37,1.344-2.114,1.729-4.837,2.546-7.286-.345-3.524-.632-7.056-1.08-10.566-.095-.743-.609-1.731-1.221-2.056-2.29-1.215-2.193-3.008-1.472-4.985,1.972-5.406,2.414-11.048,2.632-16.722,.09-2.354,.031-4.713,.093-7.069,.111-4.223,.262-8.445,.396-12.668-.052-1.727-.104-3.453-.156-5.18-.33-3.072-1.21-6.247,1.907-8.595,.266-.2,.264-1.188,.011-1.538-.331-.456-1.143-.996-1.561-.871-1.048,.314-2.132,.819-2.95,1.535-2.654,2.324-5.154,4.822-7.789,7.168-3.435,3.058-6.842,6.162-10.454,9-2.148,1.687-3.9,4.547-7.547,3.139-1.628-.628-3.065,.423-4.091,1.807-.707,1.337-1.438,2.662-2.11,4.016-.351,.706-.598,1.463-.891,2.197-5.405,3.936-10.81,7.873-16.214,11.809-9.009,6.5-18.032,12.983-27.025,19.506-8.242,5.978-16.452,12.002-24.679,18-.681,.496-1.39,.953-2.264,1.55-.436-.607-.874-1.096-1.176-1.658-4.143-7.691-8.194-15.432-12.442-23.064-1.157-2.079-.79-3.13,1.045-4.529,13.357-10.183,26.625-20.482,39.921-30.745,3.649-2.741,7.325-5.447,10.941-8.23,10.686-8.223,21.349-16.476,32.021-24.717,1.18-.889,2.361-1.777,3.541-2.666,1.708-1.231,3.446-2.421,5.116-3.701,2.697-2.066,5.397-4.136,7.968-6.352,.385-.332,.074-1.469,.086-2.234-.268-1.489-.535-2.977-.803-4.466,1.435-1.043,2.834-2.14,4.313-3.115,2.452-1.615,4.81-1.772,7.248,.271,.527,.442,2.024,.191,2.803-.236,1.418-.777,2.632-1.926,3.989-2.963,1.589,1.981-.3,5.368,3.789,5.849,.147-1.343,.512-2.696,.399-4.008-.405-4.711-1.388-9.395,.298-14.087,.414-1.154,.254-2.514,.358-3.78,.111-1.04,.222-2.081,.333-3.121,.132-8.295,.265-16.59,.397-24.885-.262-3.603-.524-7.206-.786-10.809-.271-2.948-.541-5.895-.852-9.281-1.625,1.825-2.805,3.151-4.135,4.644-.462-.772-.765-1.048-.781-1.34-.257-4.659-.526-9.319-.63-13.983-.011-.478,.955-1.275,1.583-1.42,3.618-.832,4.073-2.163,1.421-5.229-1.482,1.225-2.97,2.455-4.458,3.685-.273-.091-.547-.181-.82-.272,3.728-8.164,1.371-15.925-.981-23.687-.417-1.212-.834-2.425-1.251-3.637-1.111-2.916-1.993-5.948-3.394-8.719-1.653-3.27-1.581-6.505-.732-9.856,.534-2.109,1.772-2.441,3.534-1.036,.92,.733,1.709,1.784,2.751,2.183,5.151,1.972,9.441,5.21,13.536,8.777,.825,.857,1.65,1.713,2.475,2.57,7.864,9.032,13.696,19.221,17.421,30.609,.194,1.042,.388,2.085,.582,3.127,.343,4.033,.686,8.066,1.03,12.114,2.691-.665,3.428-1.68,2.958-4.054-.36-1.818-.779-3.624-1.171-5.435l.083-.124c3.357,.728,5.265-.786,6.795-3.741,3.518-6.792,7.904-12.993,13.73-18.064,1.054-.918,2.123-1.818,3.351-2.869-.881-.804-1.554-1.418-2.228-2.033-.579-.613-1.158-1.226-1.736-1.839l-.013,.013c.332-.017,.671-.087,.995-.043,3.474,.467,4.78-1.21,3.546-4.57-.017-2.887-.034-5.774-.051-8.66,.151-1.362,.302-2.724,.452-4.086,.774-5.011,.04-9.776-2.336-14.271,.604,.071,1.208,.142,2.318,.272-.703-1.884-1.267-3.396-1.832-4.908-.696-3.916-2.266-7.365-5.124-10.64q-1.522,4.229-3.963,5.102c.73,1.057,1.432,2.073,1.877,2.717-1.599,3.169-3.061,6.068-4.523,8.966l-.308,4.642c1.706,4.69-1.631,9.171-.299,14.007-3.945-2.044-6.192-4.831-6.097-9.154,.007-.3-.226-.605-.347-.907-1.74-.644-3.48-1.287-5.22-1.93-1.451-1.16-2.864-2.371-4.359-3.471-13.834-10.188-27.694-20.339-41.518-30.54-3.949-2.914-7.804-5.955-11.702-8.937-2.826-2.267-5.651-4.534-8.477-6.801,0,0-.036-.006-.036-.006-2.302-1.853-4.603-3.706-6.905-5.559Zm114.716,166.079c2.575-4.025,3.49-12.208,1.71-13.959-.191,.143-.49,.249-.563,.441-.389,1.025-.743,2.065-1.071,3.112-1.541,4.931-3.251,5.79-8.082,4.031-.318-.116-.633-.247-.939-.393-1.306-.626-2.564-.831-2.993,.955-.402,1.674,.357,2.848,2.092,3.126,.994,.159,2.039-.021,3.046,.088,.609,.066,1.518,.243,1.698,.64,.215,.474-.039,1.35-.384,1.849-.583,.843-1.398,1.527-2.485,2.665,4.904,1.025,4.17-4.32,7.063-5.231,.277,.816,.536,1.579,.908,2.676Zm72.324,74.383c-.306,.132-.613,.263-.919,.395v17.108c.668-.967,1.256-1.436,1.314-1.964,.493-4.455,.969-8.917,1.229-13.389,.04-.683-1.054-1.432-1.624-2.151Zm-40.348-30.017c-.449-.946-.509-1.369-.745-1.527-3.356-2.241-6.728-4.46-10.132-6.627-.206-.131-.716,.214-1.085,.338,.152,.436,.17,1.045,.477,1.282,2.864,2.215,5.736,4.427,8.715,6.48,.558,.384,1.608,.055,2.771,.055Zm-36.766,51.132c-.143,1.047-.471,1.826-.291,2.461,.406,1.435,.995,2.832,1.648,4.177,.323,.667,.869,1.549,1.46,1.681,.701,.157,1.837-.167,2.265-.699,.372-.462,.286-1.663-.066-2.263-.891-1.521-2.012-2.914-3.115-4.299-.282-.354-.843-.486-1.901-1.057Zm7.7-116.206c1.509-1.818,3.018-3.636,4.725-5.693-2.886-.15-5.907,3.038-4.725,5.693Zm-57.091,94.155c.915-2.256,1.753-4.32,2.664-6.568-4.025,.123-4.977,3.871-2.664,6.568Zm8.103-1.949c.285,.118,.569,.237,.854,.355,.676-1.246,1.719-2.451,1.869-3.758,.073-.635-1.526-1.462-2.723-2.514v5.917Zm102.028-3.295c.195-.41,.39-.82,.585-1.23-.811-.378-1.692-1.142-2.411-1.011-.578,.105-1.275,1.273-1.324,2.008-.038,.568,.846,1.198,1.32,1.801,.61-.523,1.22-1.045,1.829-1.568Zm-85.564-71.516c1.316-1.256,2.333-2.227,3.696-3.528-3.57-.351-4.351,.408-3.696,3.528Z" fill="#b19043"/>
      <path d="M424.016,941.65c2.307-.332,8.508,2.937,9.18,4.87,.175,.505-.031,1.586-.364,1.736-.818,.37-2.144,.801-2.673,.409-1.723-1.279-3.238-2.861-4.712-4.44-.603-.646-.895-1.582-1.431-2.575Z" fill="#b19043"/>
      <path d="M419.517,928.08c2.507-.597,6.432,1.041,7.298,3.227,.169,.426-.422,1.588-.902,1.767-3.581,1.329-6.494-1.001-6.396-4.994Z" fill="#b19043"/>
      <path d="M94.591,894.741c1.053,.445,2.165,.79,3.142,1.365,.789,.465,1.539,1.126,2.028,1.88,.128,.198-.715,1.459-1.224,1.542-.961,.156-2.474,.171-2.911-.402-.867-1.136-1.159-2.711-1.689-4.104,.218-.094,.436-.188,.655-.281Z" fill="#b19043"/>
      <path d="M440.762,938.525c-1.468,.802-2.375,1.427-3.38,1.752-.234,.076-1.236-1.135-1.137-1.296,.547-.892,1.227-1.798,2.088-2.339,.236-.148,1.251,.945,2.429,1.883Z" fill="#b19043"/>
      <path d="M124.793,917.933c-.884,.478-1.631,1.088-1.82,.947-.785-.583-1.501-1.335-1.988-2.173-.089-.154,1.006-.996,1.554-1.52,.65,.793,1.301,1.585,2.253,2.746Z" fill="#b19043"/>
      <path d="M70.531,1016.499c1.792,.898,1.98,2.25,1.105,3.765-.171,.296-1.38,.435-1.59,.194-1.208-1.392-.906-2.73,.484-3.959Z" fill="#b19043"/>
      <path d="M143.368,889.577c-.062-1.573,.725-2.523,2.344-2.499,.378,.006,.743,.911,1.114,1.403-.932,.662-1.865,1.325-2.797,1.987-.22-.297-.441-.594-.661-.891Z" fill="#b19043"/>
      <path d="M94.896,1009.77c1.99-1.368,3.08-1.135,3.76,.207,.189,.373-.3,1.089-.478,1.648-.967-.547-1.935-1.094-3.282-1.855Z" fill="#b19043"/>
      <path d="M571.938,800.898c-.965,.661-1.522,1.314-2.111,1.345-.366,.019-1.177-.989-1.092-1.387,.165-.765,.824-1.424,1.278-2.128,.533,.601,1.066,1.201,1.925,2.169Z" fill="#b19043"/>
      <path d="M583.606,804.719c-1.357-1.129-1.856-2.372,.281-3.991,.215,1.256,.429,2.513,.644,3.769-.308,.074-.617,.148-.925,.222Z" fill="#b19043"/>
      <path d="M582.198,793.367c-.706-.631-1.411-1.262-2.117-1.892,.509-.477,1.018-.954,1.527-1.431,.557,.805,1.113,1.61,1.67,2.415-.36,.303-.72,.606-1.08,.909Z" fill="#b19043"/>
      <path d="M117.904,720.979c-.722,.432-1.443,.864-2.165,1.296-.234-.357-.467-.714-.701-1.07,1.813-1.73,.567-3.183-.424-4.658,1.804-1.14,2.531,.528,3.423,1.432,.911,.923,1.079,2.053-.133,3.001Z" fill="#b19043"/>
      <path d="M334.351,902.132c-.05-.018-.101-.036-.151-.053,.033-.012,.065-.023,.104-.032,.006,.003,.047,.086,.047,.086Z" fill="#b19043"/>
      <path d="M319.574,391.191c-.969,.619-1.62,1.034-2.271,1.45-.356-.563-1.116-1.273-.977-1.657,.228-.63,.978-1.282,1.632-1.456,.314-.083,.912,.908,1.615,1.662Z" fill="#b19043"/>
      <path d="M334.675,534.822c-.924,.775-1.675,1.663-1.899,1.546-.707-.371-1.479-1.039-1.695-1.753-.114-.378,.985-1.615,1.337-1.539,.711,.153,1.285,.938,2.256,1.746Z" fill="#b19043"/>
      <path d="M80.551,603.298c-.63,.166-1.259,.333-1.889,.499-.499-1.671-.247-2.962,2.362-3.621-.19,1.253-.331,2.188-.472,3.122Z" fill="#b19043"/>
      <path d="M162.792,710.422c-.161,.564-.257,1.156-.494,1.686-1.214,2.71-2.486,2.912-4.628,.77,.883-1.24,1.741-2.499,2.669-3.705,.222-.288,.907-.63,.988-.551,.547,.541,.99,1.187,1.466,1.8Z" fill="#b19043"/>
      <path d="M203.725,663.228c-1.35,.963-2.555,2.284-3.024,2.06-.947-.451-1.495-1.741-2.208-2.685,.967-.636,1.879-1.593,2.923-1.77,.514-.087,1.272,1.27,2.308,2.394Z" fill="#b19043"/>
      <path d="M194.892,651.155c.843,1.159,1.733,1.849,1.703,2.495-.029,.614-.963,1.552-1.606,1.651-.48,.074-1.558-.937-1.593-1.512-.041-.681,.753-1.412,1.496-2.633Z" fill="#b19043"/>
      <path d="M419.833,665.258c-.957-1.007-1.559-1.639-2.161-2.272,.892-.517,1.744-1.302,2.693-1.448,.545-.084,1.249,.87,1.882,1.357-.68,.666-1.361,1.332-2.414,2.363Z" fill="#b19043"/>
      <path d="M246.759,716.671c-.059-.033-.119-.067-.178-.1,.087-.008,.174-.016,.261-.023l-.083,.124Z" fill="#b19043"/>
    </g>
  </g>
</svg>