<?xml version="1.0" encoding="UTF-8"?>
<svg id="b" data-name="Layer 2" xmlns="http://www.w3.org/2000/svg" width="688.5" height="1224" viewBox="0 0 688.5 1224">
  <g id="c" data-name="Layer 1">
    <g>
      <path d="M0,1224V0c229.5,0,459,0,688.5,0V1224H0Z" fill="#171722"/>
      <path d="M215.828,750.172c-1.215-5.878-6.029-6.6-10.736-7.594-7.855-1.658-14.061-5.947-18.753-12.375-3.035-4.158-4.544-8.949-5.244-14.039-.107-.78-.925-1.862-1.643-2.093-5.677-1.828-11.085-4.243-15.434-8.341-4.404-4.15-7.127-9.429-7.807-15.495-.361-3.224-.007-6.522-.147-9.779-.036-.844-.495-2.08-1.14-2.425-6.037-3.224-11.548-7.353-15.302-12.903-2.372-3.507-3.149-8.32-3.84-12.675-.756-4.769,.701-9.452,2.585-13.873,.683-1.604,.29-2.543-.823-3.788-3.047-3.407-6.218-6.784-8.717-10.582-3.969-6.032-5.097-12.795-4.047-20.017,.727-4.995,2.925-9.307,5.363-13.541,.858-1.491,.769-2.496-.107-3.902-5.339-8.561-8.51-17.704-7.742-28.019,.578-7.762,3.987-14.065,9.278-19.47,1.198-1.224,1.509-2.068,.82-3.688-2.203-5.181-3.75-10.538-3.951-16.244-.344-9.764,3.721-17.438,11.014-23.571,2.137-1.797,4.482-3.373,6.854-4.855,1.265-.79,1.747-1.622,1.549-3.09-1.117-8.279-1.003-16.546,2.208-24.343,1.569-3.811,3.948-7.411,6.529-10.654,3.928-4.936,9.28-7.99,15.311-9.881,.639-.2,1.303-1.17,1.469-1.895,.955-4.174,1.691-8.397,2.634-12.574,3.049-13.511,16.162-25.602,30.087-26.874,4.38-.4,5.369-3.005,6.679-5.902,1.091-2.414,1.564-5.149,2.88-7.41,1.714-2.945,3.788-5.743,6.066-8.282,4.924-5.488,10.173-10.928,17.883-11.95,5.217-.692,10.601-.275,15.9-.075,1.301,.049,2.012-.015,2.644-1.148,3.557-6.376,7.748-12.274,13.193-17.205,5.282-4.785,11.384-7.805,18.545-8.4,6.104-.507,11.982,.555,17.653,2.84,4.291,1.729,4.404,1.644,7.508-1.891,4.299-4.895,9.238-9.076,14.98-12.151,13.484-7.22,26.684-6.428,39.37,2.01,1.971,1.311,3.251,1.38,5.258,.021,8.436-5.715,17.531-9.994,27.937-10.192,10.448-.198,19.53,3.609,27.381,10.448,12.506,10.894,20.56,24.868,27.23,39.732,7.578,16.886,11.884,34.693,14.028,53.024,.914,7.816,1.654,15.669,2.021,23.526,.4,8.552,.277,17.128,.382,25.693-1.845-2.371-3.689-4.741-5.534-7.112-.13-4.241-.2-8.486-.398-12.724-1.405-30.093-7.722-59.068-20.128-86.586-5.122-11.362-11.351-22.084-20.565-30.736-4.861-4.564-10.325-8.216-17.208-8.589-8.567-.463-16.71,1.523-24.402,5.274-12.964,6.321-23.12,16.088-32.185,26.996-21.276,25.603-38.876,53.643-53.825,83.324-20.216,40.137-35.417,82.245-46.684,125.659-8.642,33.3-1.957,63.729,21.571,89.622,28.411,31.264,73.777,35.607,106.922,10.055,10.945-8.438,18.468-19.56,22.301-32.998,.371-1.301,.83-2.595,1.425-3.805,.256-.52,1.058-1.213,1.446-1.123,.607,.142,1.434,.822,1.532,1.384,.316,1.82,.686,3.74,.428,5.533-2.776,19.258-6.21,38.395-11.025,57.263-5.352,20.974-12.118,41.416-22.893,60.328-4.565,8.013-9.723,15.585-17.044,21.405-8.957,7.122-18.482,8.085-28.211,2.555-2.3-1.307-3.804-1.094-5.926,.211-11.979,7.367-22.504,6.522-32.638-2.668-1.737-1.575-3.072-1.65-5.151-.981-14.234,4.579-26.5,1.494-35.128-10.764-1.156-1.642-2.556-1.39-4.046-1.208-9.331,1.141-17.72-.894-24.845-7.271l-5.593-7.157Zm164.608-72.921l.133-.036s-.086,.078-.086,.079c-.219,.123-.438,.245-.656,.367-1.636,1.464-3.356,2.845-4.895,4.404-19.497,19.755-39.997,38.365-63.287,53.592-17.458,11.413-35.72,21.355-55.912,27.247-.442,.129-.829,.45-1.804,.997,2.255,2.219,4.086,4.475,6.344,6.159,7.241,5.4,15.38,5.54,23.241,2.187,6.98-2.977,13.8-6.637,20.078-10.899,18.625-12.645,34.5-28.413,48.65-45.788,9.853-12.097,18.726-24.992,28.034-37.531,.053-.26,.107-.519,.16-.779Zm-17.854,11.22c.115-.079,.229-.158,.343-.237-.099,.093-.198,.187-.297,.28-.219,.121-.437,.243-.656,.364l-1.148,.442c.213,.209,.425,.418,.638,.626,.276-.251,.551-.502,.826-.754,.098-.24,.196-.48,.294-.721Zm27.579-14.744c-2.886,3.66-5.796,7.301-8.655,10.982-15.64,20.143-31.239,40.331-48.947,58.735-11.422,11.871-23.922,22.448-38.81,29.869-.346,.173-.628,.475-1.058,.809,.524,.559,.879,1.025,1.318,1.391,6.991,5.833,14.762,6.952,23.135,3.576,8.302-3.347,14.455-9.521,20.021-16.206,21.804-26.189,38.698-55.377,52.324-86.524,.361-.826,.428-1.781,.632-2.675,.052-.048,.104-.097,.156-.145-.039,.063-.077,.126-.116,.189Zm-58.144,17.848c-1.264,.089-2.541,.09-3.789,.281-21.442,3.278-43,5.238-64.69,5.668-18.148,.36-36.154-1.266-54.062-4.071-16.393-2.568-32.608-5.859-47.955-12.472-.357-.154-.793-.127-1.363-.209-.063,.885-.19,1.636-.155,2.379,.079,1.695,.091,3.412,.386,5.074,2.149,12.117,10.116,19.679,23.16,22.191,22.874,4.404,45.797,3.868,68.751,.772,22.113-2.982,43.71-8.278,65.047-14.684,4.933-1.481,9.764-3.301,14.642-4.965,.279-.023,.558-.047,.097-.008,.396-.246,.163-.101-.07,.044Zm-84.387-56.365c.181-.002,.363-.004,.544-.006-.074-.113-.148-.226-.222-.338-.282-.519-.527-1.062-.851-1.554-23.582-35.822-43.018-73.793-58.712-113.68-8.757-22.256-15.241-45.052-15.292-69.251,0-.454-.244-.907-.425-1.538-1.127,.348-2.11,.585-3.042,.951-8.23,3.229-12.966,9.527-15.571,17.72-2.882,9.063-1.552,18.048,.814,26.884,7.502,28.018,20.587,53.364,37.978,76.429,10.174,13.493,20.913,26.58,31.815,39.497,7.274,8.618,15.283,16.616,22.964,24.888Zm-5.153-19.379c.177,.141,.354,.283,.531,.424-.03-.274-.059-.549-.089-.823-.274-.891-.516-1.793-.826-2.671-17.534-49.721-31.328-100.34-36.227-153.037-1.572-16.912-.897-33.777,2.89-50.424,.189-.833,.227-1.701,.35-2.673-12.122,2.348-24.009,10.03-27.673,23.219-2.302,8.285-3.041,16.706-2.742,25.226,.618,17.643,4.2,34.756,10.513,51.188,10.21,26.575,21.998,52.48,34.99,77.802,5.571,10.858,12.157,21.197,18.283,31.769Zm123.928-277.833c-1.012-.619-1.816-1.204-2.695-1.634-13.939-6.816-26.876-4.702-38.882,4.582-7.707,5.96-13.45,13.643-18.453,21.912-8.777,14.507-16.004,29.776-22.147,45.557-15.165,38.956-24.241,79.368-28.66,120.876-.303,2.842-.457,5.7-.681,8.55,.213,.026,.426,.052,.638,.078,.268-.781,.562-1.555,.802-2.344,15.539-51.091,37.367-99.329,65.884-144.487,12.065-19.105,25.639-37.031,42.995-51.779,.368-.313,.659-.716,1.199-1.311Zm-121.994,230.772c.167-.011,.334-.021,.501-.032,.102-.564,.237-1.124,.302-1.692,2.252-19.743,3.998-39.559,6.856-59.214,4.58-31.493,11.694-62.446,22.519-92.445,8.044-22.293,17.662-43.813,31.806-63.04,.226-.307,.297-.728,.496-1.238-6.353-2.88-12.796-3.883-19.498-2.48-9.412,1.97-15.999,7.889-21.174,15.624-5.925,8.855-9.479,18.784-12.703,28.825-6.703,20.879-10.472,42.365-12.718,64.125-1.554,15.052-2.637,30.151-1.691,45.296,.795,12.718,1.786,25.424,2.796,38.127,.747,9.389,1.665,18.764,2.507,28.145Zm-2.171,28.94c.177-.048,.354-.097,.531-.145-.068-.805-.084-1.618-.212-2.413-3.839-23.732-7.053-47.535-8.622-71.544-1.978-30.268-1.794-60.436,3.72-90.391,3.635-19.747,8.156-39.242,16.313-57.712,.265-.6,.409-1.254,.601-1.859-2.569-1.279-7.783-1.484-12.117-.55-10.004,2.155-16.534,8.595-21.158,17.296-5.474,10.301-7.803,21.516-9.078,32.962-2.405,21.594-1.149,43.118,2.202,64.498,5.64,35.989,14.936,71.098,26.266,105.687,.461,1.408,1.034,2.78,1.554,4.169Zm-93.453-102.517c-.515,.239-1.013,.366-1.383,.656-9.334,7.314-13.914,16.749-12.5,28.706,1.109,9.374,5.413,17.451,10.709,25.055,13.948,20.028,30.156,38.089,47.872,54.827,19.831,18.736,41.195,35.48,64.559,49.619,.697,.422,1.443,.76,2.618,1.373-.342-.794-.371-.982-.478-1.089-.541-.539-1.102-1.058-1.658-1.582-32.458-30.551-61.28-64.125-84.504-102.285-10.4-17.088-19.892-34.645-24.696-54.306-.075-.307-.313-.574-.54-.975Zm122.061,174.949c.072-.189,.144-.377,.216-.566-.608-.418-1.205-.852-1.824-1.252-12.555-8.113-25.33-15.907-37.621-24.401-22.916-15.836-44.562-33.16-62.171-55.066-11.497-14.302-23.514-28.196-32.717-44.189-.153-.266-.47-.439-.841-.772-3.787,3.643-6.201,7.96-7.343,12.938-2.126,9.266,.432,17.662,5.15,25.56,6.518,10.912,15.687,19.41,25.55,27.128,33.205,25.981,70.069,45.355,109.475,60.063,.683,.255,1.417,.375,2.127,.558Zm17.902,12.387c-.444-.545-.521-.73-.651-.783-.786-.317-1.581-.614-2.379-.9-35.824-12.824-70.59-27.949-103.06-47.951-17.478-10.767-34.218-22.522-47.369-38.635-.147-.18-.403-.27-.74-.487-.339,.378-.716,.704-.978,1.106-5.508,8.44-5.576,17.058-.68,25.75,3.138,5.571,7.648,9.943,12.654,13.819,12.201,9.447,25.926,16.145,40.119,21.927,29.959,12.204,61.091,20.082,93.037,24.879,3.209,.482,6.439,.821,10.046,1.276Zm18.848,7.233c-.039-.242-.079-.485-.118-.727-6.678-.561-13.369-1.002-20.033-1.704-31.312-3.297-61.841-9.959-91.286-21.302-18.258-7.034-36.392-14.285-52.358-25.933-.256-.187-.585-.274-.906-.42-.219,.253-.435,.413-.525,.626-.23,.546-.435,1.108-.596,1.679-2.61,9.267-.295,17.288,6.241,24.174,4.703,4.956,10.49,8.331,16.704,11,10.599,4.552,21.741,7.221,33.032,9.326,26.938,5.022,54.136,6.408,81.462,5.421,9.474-.342,18.922-1.406,28.382-2.14Zm-120.966,26.308c0,.882-.087,1.469,.013,2.023,1.573,8.742,6.145,15.403,14.519,18.569,4.359,1.647,9.207,2.505,13.879,2.717,11.117,.505,21.998-1.627,32.739-4.297,34.838-8.66,67.113-23.439,98.077-41.311,.377-.217,.67-.579,1.002-.874-.881-.114-1.604,.043-2.295,.289-29.291,10.425-59.212,18.376-90.052,22.585-18.224,2.487-36.528,3.59-54.905,1.875-4.213-.393-8.404-1.014-12.977-1.576Zm31.797,28.601c.252,.71,.366,1.288,.644,1.772,5.067,8.827,12.568,13.87,22.827,14.49,9.737,.588,18.627-2.641,27.224-6.604,33.762-15.564,63.296-37.303,90.484-62.419,.429-.397,.701-.965,1.046-1.453-.143-.163-.286-.327-.43-.49-.914,.521-1.844,1.017-2.74,1.568-26.428,16.246-54.112,29.927-83.227,40.669-14.29,5.272-28.749,9.96-43.995,11.605-3.862,.417-7.753,.573-11.832,.863Zm112.578,31.462c5.892,3.268,12.603,3.949,19.563,.926,5.053-2.195,9.117-5.766,12.142-10.232,3.992-5.893,7.935-11.899,11.112-18.25,11.748-23.48,19.171-48.442,24.488-74.073,.776-3.74,1.398-7.512,2.092-11.269-.906,.61-1.244,1.362-1.591,2.111-7.101,15.336-13.83,30.858-21.397,45.96-10.011,19.981-22.245,38.555-37.586,54.953-3.006,3.213-5.868,6.559-8.823,9.875Zm-76.243-236.505c-.039,.066-.079,.132-.118,.198,.076,0,.153,.001,.229,.002-.037-.067-.074-.133-.111-.2Zm6.577,115.9l-.074,.11,.123,.014-.048-.124Zm10.725,14.969l.093-.136-.151-.018,.058,.154Z" fill="#9e3f37"/>
      <path d="M215.828,750.172l5.593,7.157c-.021,.849-.069,1.699-.059,2.548,.321,26.273,4.473,51.921,12.74,76.869,4.802,14.49,10.866,28.399,19.857,40.864,3.748,5.196,8.002,9.914,13.285,13.631,5.364,3.775,11.249,5.342,17.815,4.717,8.616-.82,16.591-3.454,23.993-7.891,10.713-6.422,19.541-15.003,27.425-24.538,21.158-25.587,38.746-53.529,53.655-83.136,20.246-40.207,35.473-82.381,46.738-125.874,8.498-32.809,2.018-62.908-20.895-88.633-28.492-31.989-74.525-36.684-107.604-10.887-10.974,8.558-18.583,19.682-22.394,33.224-.344,1.221-.748,2.452-1.341,3.563-.302,.565-1.143,1.262-1.64,1.191-.553-.079-1.313-.906-1.419-1.506-.307-1.738-.72-3.599-.406-5.285,3.448-18.526,6.546-37.135,10.693-55.507,4.895-21.683,12.111-42.639,23.171-62.083,4.688-8.242,9.975-16.041,17.61-21.91,8.688-6.678,17.976-7.686,27.593-2.261,2.344,1.322,3.888,1.193,6.099-.164,11.577-7.103,22.13-6.52,31.657,1.918,2.337,2.07,4.178,2.418,7.102,1.517,13.954-4.296,25.413-.756,33.509,10.221,1.291,1.75,2.55,2.324,4.65,2.044,9.314-1.242,17.713,.842,24.842,7.211,1.845,2.371,3.689,4.741,5.534,7.112,.788,1.681,1.369,3.512,2.442,4.985,.62,.851,1.981,1.419,3.095,1.612,10.724,1.855,20.051,6.008,25.374,16.133,1.703,3.24,2.556,6.974,3.463,10.566,.441,1.747,1.096,2.594,2.793,3.365,4.452,2.021,9.054,3.99,12.979,6.832,6.585,4.768,9.305,11.845,9.67,19.838,.127,2.79-.829,6.039,.312,8.253,1.075,2.086,4.336,2.98,6.5,4.582,6.702,4.965,12.093,10.846,13.362,19.566,.796,5.469-.41,10.616-2.43,15.601-.717,1.769-.765,2.743,.836,4.224,7.474,6.916,12.941,14.999,13.073,25.677,.064,5.133-1.153,10.129-3.77,14.452-2.488,4.111-2.728,7.251,.095,11.508,4.712,7.106,6.491,15.421,5.83,23.888-.547,7.001-3.116,13.523-8.218,18.646-1.962,1.97-2.727,3.166-1.271,6.3,1.955,4.209,2.76,9.153,3.139,13.856,1.074,13.341-6.15,22.235-16.812,28.766-2.547,1.56-2.751,3.222-2.315,5.594,.184,.998,.3,2.008,.447,3.012,.015,.356,.031,.713,.046,1.069,.231,7.633-.77,15.157-4.37,21.875-2.122,3.961-5.202,7.723-8.68,10.558-3.527,2.874-8.105,4.443-12.145,6.72-.686,.386-1.3,1.417-1.412,2.224-1.245,8.977-3.593,17.565-9.073,24.957-6.036,8.143-14.058,13.135-24.247,14.161-2.939,.296-4.443,1.345-5.49,4.294-3.483,9.808-8.714,18.512-17.463,24.667-5.786,4.071-12.237,5.921-19.258,5.724-1.817-.051-3.669-.441-5.417-.969-2.15-.65-3.195,.15-4.335,1.957-2.476,3.922-5.026,7.85-8.003,11.391-6.366,7.572-14.141,12.538-24.453,13.29-6.532,.476-12.344-1.311-18.157-3.644-1.618-.65-2.559-.581-3.866,.873-6.467,7.196-13.879,13.145-23.076,16.62-11.908,4.501-22.833,1.915-33.069-4.71-2.201-1.425-3.49-1.456-5.619,.008-7.02,4.825-14.672,8.475-23.125,9.856-5.35,.874-10.761,.15-16.015-1.319-7.399-2.069-13.27-6.454-18.73-11.737-7.044-6.818-12.565-14.702-17.328-23.157-9.585-17.012-15.851-35.219-18.935-54.486-1.279-7.988-2.258-16.028-3.203-24.065-1.466-12.47-1.319-24.994-.974-37.518Zm225.312-161.111c.146,.193,.291,.385,.437,.578,.419,.732,.802,1.487,1.262,2.192,25.085,38.401,45.772,79.039,61.63,122.082,7.141,19.382,11.989,39.3,11.895,60.155-.002,.479,.182,.959,.292,1.499,.443-.051,.784-.047,1.1-.135,.653-.182,1.303-.384,1.936-.627,8.35-3.207,13.164-9.545,15.786-17.831,2.866-9.059,1.481-18.03-.825-26.883-6.431-24.689-17.46-47.378-32.089-68.086-11.109-15.726-23.466-30.602-35.755-45.453-7.837-9.471-16.565-18.206-24.894-27.27-.273-.054-.547-.108-.82-.161,.014-.019,.029-.038,.045-.059Zm-113.926-53.773c-.09,.25-.181,.499-.271,.749-.128-.009-.255-.017-.383-.026,.026,.099,.051,.198,.077,.297,.085-.105,.169-.209,.254-.314,.222-.12,.444-.241,.665-.361,.133-.155,.266-.309,.399-.464-.247,.04-.494,.08-.741,.119Zm-27.854,15.496c.87-1.025,1.761-2.033,2.608-3.076,16.114-19.857,31.96-39.938,48.423-59.501,11.149-13.248,24.121-24.653,39.078-33.602,2.382-1.425,4.863-2.683,7.592-4.18-4.49-4.333-9.479-6.8-15.576-6.838-6.814-.043-12.732,2.612-17.645,6.952-5.262,4.648-10.403,9.594-14.769,15.069-20.079,25.182-36.137,52.81-48.945,82.339-.39,.899-.488,1.925-.723,2.891-.1,.05-.199,.1-.299,.15,.056,.005,.141,.034,.162,.01,.048-.058,.064-.141,.093-.214Zm10.339-3.931c1.632-1.466,3.345-2.851,4.884-4.409,19.679-19.922,40.376-38.672,63.902-54.001,16.535-10.774,33.854-20.114,52.791-26.1,1.261-.398,2.533-.759,4.572-1.368-2.358-2.399-4.082-4.617-6.241-6.268-7.792-5.959-16.437-5.727-24.848-2.008-6.633,2.933-13.165,6.431-19.067,10.626-31.346,22.281-55.376,51.383-76.479,83.137,.026,.21,.052,.42,.079,.63,.136-.08,.272-.16,.407-.24Zm47.803-13.922c1.176-.071,2.367-.049,3.527-.226,18.321-2.796,36.732-4.595,55.25-5.434,21.219-.962,42.282,.415,63.238,3.7,16.553,2.595,32.937,5.865,48.434,12.55,.372,.16,.792,.208,1.682,.432-.175-2.766-.089-5.306-.531-7.75-2.205-12.186-10.16-19.631-23.198-22.128-22.877-4.382-45.796-3.861-68.744-.74-26.424,3.594-52.089,10.368-77.406,18.579-.773,.251-1.48,.704-2.218,1.062l-.939,.081c.036,.109,.073,.218,.109,.327,.265-.151,.531-.303,.796-.454Zm89.562,75.729c-.224-.146-.448-.292-.671-.437l.194,.874c.308,.969,.589,1.948,.927,2.906,17.535,49.797,31.335,100.488,36.179,153.267,1.418,15.451,.899,30.893-2.159,46.176-.423,2.114-.843,4.229-1.344,6.744,13.996-3.643,24.477-10.414,28.264-24.802,2.139-8.128,2.709-16.409,2.358-24.764-.727-17.288-4.239-34.062-10.417-50.169-10.284-26.811-22.182-52.935-35.299-78.471-5.499-10.704-11.991-20.898-18.031-31.324Zm-12.272,77.883c-.255-.046-.51-.093-.764-.139-.331,1.017-.679,2.029-.991,3.052-15.567,50.978-37.375,99.121-65.864,144.18-12.122,19.173-25.779,37.144-43.246,51.903-.29,.245-.454,.64-.697,.993,.39,.299,.641,.534,.929,.704,.659,.387,1.321,.776,2.01,1.103,13.698,6.518,26.416,4.464,38.233-4.551,7.823-5.967,13.632-13.699,18.682-22.044,11.887-19.642,20.908-40.596,28.303-62.273,10.512-30.813,17.459-62.447,21.5-94.731,.757-6.051,1.276-12.132,1.905-18.199Zm10.379-30.865l-.514-.078c-.114,.549-.274,1.094-.337,1.649-2.242,19.654-4.017,39.375-6.815,58.95-4.248,29.717-10.866,58.943-20.646,87.378-8.402,24.426-18.579,47.994-33.999,68.97-.134,.182-.131,.464-.23,.849,6.309,2.875,12.811,3.919,19.602,2.464,9.403-2.014,15.94-7.968,21.134-15.679,4.74-7.036,7.898-14.835,10.631-22.794,11.308-32.938,15.963-67.022,16.575-101.668,.22-12.452-.958-24.946-1.831-37.397-.997-14.228-2.364-28.43-3.57-42.644Zm-10.273,195.434c.613,.207,1.073,.444,1.557,.513,7.626,1.09,14.721-.246,21.065-4.772,6.768-4.829,10.76-11.681,13.684-19.234,5.035-13.003,6.65-26.644,7.131-40.445,.725-20.802-1.296-41.403-5.091-61.835-6.039-32.511-14.417-64.421-24.896-95.781-.33-.988-.749-1.946-1.126-2.918-.433,.991-.394,1.826-.286,2.652,2.525,19.444,5.425,38.848,7.497,58.339,2.68,25.213,3.214,50.518,1.071,75.824-2.042,24.119-6.711,47.726-14.264,70.73-1.848,5.628-4.148,11.108-6.342,16.926Zm105.788-121.722c9.488-4.987,15.587-18.139,13.97-29.526-1.352-9.517-5.586-17.764-11.079-25.43-30.394-42.419-68.183-76.871-112.523-104.242-.608-.375-1.283-.644-2.043-1.02,.025,.41-.027,.618,.053,.703,.461,.497,.942,.977,1.437,1.44,29.164,27.25,55.259,57.135,77.262,90.485,11.191,16.963,21.446,34.467,28.49,53.641,1.659,4.516,2.929,9.176,4.434,13.949Zm12.879-48.549c5.762-6.082,8.533-12.948,8.116-21.033-.441-8.57-4.183-15.842-9.094-22.603-6.351-8.743-14.253-15.987-22.724-22.573-33.148-25.769-69.849-45.089-109.102-59.725-.756-.282-1.559-.441-2.34-.657,.416,.98,1.084,1.439,1.765,1.876,11.439,7.341,22.928,14.605,34.313,22.03,40.478,26.401,72.749,60.751,98.235,101.65,.171,.274,.406,.508,.831,1.033Zm-152.509-138.943l-.046,.565c.122,.104,.229,.251,.37,.306,.79,.306,1.588,.594,2.386,.88,37.648,13.516,74.147,29.481,107.985,51.036,15.81,10.072,30.807,21.172,42.773,35.86,.084,.103,.302,.096,.463,.136,.135-.092,.298-.161,.4-.281,.219-.258,.422-.533,.606-.817,5.484-8.453,5.534-17.062,.619-25.743-3.15-5.564-7.654-9.935-12.661-13.81-12.131-9.388-25.777-16.05-39.876-21.819-27.06-11.073-55.15-18.536-83.93-23.476-6.339-1.088-12.725-1.899-19.089-2.837Zm145.89,42.796c1.762-4.089,2.303-8.42,1.564-12.856-1.447-8.689-6.917-14.558-13.926-19.217-9.344-6.211-19.894-9.484-30.671-11.982-35.978-8.338-72.424-9.829-109.128-7.057-4.328,.327-8.632,.968-12.947,1.464,.519,.491,1.013,.542,1.507,.598,14.587,1.648,29.252,2.798,43.747,5.045,34.988,5.424,68.19,16.673,99.878,32.354,6.815,3.372,13.179,7.655,19.977,11.651Zm-43.686-76.11c-1.428-9.995-5.905-17.288-14.97-20.777-4.265-1.642-9.035-2.463-13.623-2.678-11.11-.521-21.992,1.578-32.724,4.243-34.975,8.684-67.382,23.502-98.45,41.478-.359,.208-.636,.556-1.521,1.35,1.463-.424,2.187-.595,2.885-.843,32.021-11.347,64.719-19.911,98.558-23.628,17.087-1.877,34.217-2.505,51.346-.351,2.663,.335,5.315,.752,8.498,1.206Zm-174.657,25.63c.114,.149,.227,.299,.341,.448,.921-.492,1.871-.938,2.759-1.484,28.223-17.363,57.842-31.829,89.106-42.865,14.773-5.215,29.759-9.513,45.555-10.162,1.56-.064,3.119-.151,4.929-.239-.345-.791-.502-1.265-.745-1.69-5.251-9.193-13.049-14.284-23.738-14.683-9.362-.35-17.923,2.743-26.199,6.549-33.913,15.594-63.556,37.428-90.846,62.65-.454,.42-.777,.982-1.161,1.478Zm-39.725,27.078c.241,.085,.482,.17,.723,.255,.318-.667,.648-1.328,.953-2.001,5.803-12.839,11.304-25.826,17.472-38.487,10.149-20.833,22.007-40.647,37.452-58.077,4.318-4.873,9.143-9.296,13.903-14.095-.868-.46-1.583-.888-2.337-1.232-9.007-4.102-18.372-2.204-26.157,5.38-5.797,5.647-9.889,12.515-13.583,19.614-10.488,20.157-17.574,41.565-22.965,63.56-2.036,8.308-3.652,16.72-5.46,25.084Zm146.001,123.492v-.244c-.084,.052-.187,.09-.243,.164-.024,.031,.053,.138,.084,.21,.053-.043,.106-.087,.159-.13Zm-17.451-130.521c.054-.043,.108-.086,.162-.129-.045-.052-.086-.142-.136-.147-.049-.005-.107,.076-.161,.119,.045,.052,.09,.105,.135,.157Zm10.896,14.633l-.166-.093-.01,.164,.176-.072Z" fill="#3c9e99"/>
      <path d="M468.098,467.171c-7.129-6.369-15.528-8.453-24.842-7.211-2.101,.28-3.359-.293-4.65-2.044-8.097-10.977-19.555-14.517-33.509-10.221-2.925,.9-4.765,.553-7.102-1.517-9.527-8.438-20.079-9.021-31.657-1.918-2.211,1.356-3.755,1.486-6.099,.164-9.617-5.426-18.905-4.418-27.593,2.261-7.634,5.869-12.921,13.667-17.61,21.91-11.06,19.444-18.276,40.4-23.171,62.083-4.147,18.372-7.246,36.981-10.693,55.507-.314,1.685,.099,3.546,.406,5.285,.106,.601,.866,1.427,1.419,1.506,.496,.071,1.338-.626,1.64-1.191,.593-1.11,.998-2.342,1.341-3.563,3.811-13.542,11.421-24.666,22.394-33.224,33.078-25.797,79.112-21.102,107.604,10.887,22.913,25.725,29.393,55.824,20.895,88.633-11.265,43.493-26.492,85.667-46.738,125.874-14.909,29.607-32.497,57.549-53.655,83.136-7.885,9.535-16.712,18.117-27.425,24.538-7.402,4.437-15.377,7.071-23.993,7.891-6.565,.624-12.451-.942-17.815-4.717-5.282-3.718-9.537-8.435-13.285-13.631-8.99-12.464-15.055-26.374-19.857-40.864-8.268-24.947-12.42-50.595-12.74-76.869-.01-.849,.038-1.699,.059-2.548,7.125,6.377,15.514,8.412,24.845,7.271,1.49-.182,2.89-.435,4.046,1.208,8.628,12.257,20.894,15.343,35.128,10.764,2.079-.669,3.413-.594,5.151,.981,10.134,9.19,20.659,10.035,32.638,2.668,2.122-1.305,3.626-1.519,5.926-.211,9.729,5.53,19.254,4.567,28.211-2.555,7.321-5.821,12.479-13.393,17.044-21.405,10.775-18.912,17.541-39.354,22.893-60.328,4.815-18.868,8.249-38.005,11.025-57.263,.259-1.794-.112-3.713-.428-5.533-.098-.562-.925-1.242-1.532-1.384-.389-.091-1.191,.603-1.446,1.123-.595,1.21-1.054,2.504-1.425,3.805-3.833,13.438-11.356,24.56-22.301,32.998-33.144,25.552-78.511,21.21-106.922-10.055-23.529-25.892-30.213-56.321-21.571-89.622,11.267-43.414,26.467-85.522,46.684-125.659,14.949-29.681,32.549-57.721,53.825-83.324,9.065-10.908,19.221-20.675,32.185-26.996,7.693-3.751,15.835-5.738,24.402-5.274,6.883,.372,12.348,4.025,17.208,8.589,9.214,8.652,15.443,19.374,20.565,30.736,12.406,27.518,18.724,56.493,20.128,86.586,.198,4.238,.269,8.482,.398,12.724Zm-128.965,94.998c-28.235-.032-51.195,22.981-51.169,51.289,.026,28.514,22.821,51.167,51.441,51.185,27.622,.017,51.15-22.714,50.938-51.37-.212-28.477-22.825-50.871-51.21-51.104Z" fill="#171722"/>
      <path d="M366.404,337.999c-.539,.595-.83,.998-1.199,1.311-17.356,14.748-30.931,32.674-42.995,51.779-28.517,45.158-50.345,93.396-65.884,144.487-.24,.79-.533,1.563-.802,2.344-.213-.026-.426-.052-.638-.078,.223-2.85,.378-5.708,.681-8.55,4.418-41.508,13.495-81.92,28.66-120.876,6.143-15.781,13.37-31.05,22.147-45.557,5.003-8.27,10.746-15.952,18.453-21.912,12.006-9.284,24.943-11.398,38.882-4.582,.879,.43,1.683,1.015,2.695,1.634Z" fill="#171722"/>
      <path d="M244.41,568.771c-.842-9.381-1.76-18.756-2.507-28.145-1.011-12.703-2.001-25.409-2.796-38.127-.947-15.144,.137-30.244,1.691-45.296,2.246-21.76,6.015-43.245,12.718-64.125,3.224-10.041,6.777-19.97,12.703-28.825,5.176-7.734,11.762-13.653,21.174-15.624,6.702-1.403,13.146-.4,19.498,2.48-.199,.51-.27,.931-.496,1.238-14.145,19.227-23.762,40.747-31.806,63.04-10.825,30-17.939,60.952-22.519,92.445-2.858,19.655-4.605,39.471-6.856,59.214-.065,.568-.2,1.128-.302,1.692-.167,.011-.334,.021-.501,.032Z" fill="#171722"/>
      <path d="M242.239,597.711c-.521-1.389-1.093-2.761-1.554-4.169-11.331-34.589-20.627-69.698-26.266-105.687-3.35-21.38-4.606-42.903-2.202-64.498,1.275-11.447,3.604-22.661,9.078-32.962,4.624-8.701,11.154-15.141,21.158-17.296,4.334-.934,9.549-.728,12.117,.55-.192,.604-.336,1.258-.601,1.859-8.157,18.469-12.678,37.964-16.313,57.712-5.514,29.955-5.698,60.123-3.72,90.391,1.569,24.008,4.783,47.812,8.622,71.544,.129,.795,.144,1.608,.212,2.413-.177,.048-.354,.097-.531,.145Z" fill="#171722"/>
      <path d="M242.476,615.833c-6.125-10.574-12.71-20.913-18.282-31.771-12.993-25.322-24.78-51.227-34.99-77.802-6.313-16.432-9.896-33.544-10.513-51.188-.298-8.52,.44-16.942,2.742-25.226,3.665-13.189,15.551-20.871,27.673-23.219-.124,.972-.161,1.84-.35,2.673-3.786,16.647-4.462,33.512-2.89,50.424,4.899,52.697,18.693,103.316,36.227,153.037,.31,.878,.552,1.78,.826,2.671-.148,.134-.296,.267-.443,.401Z" fill="#171722"/>
      <path d="M247.628,635.213c-7.68-8.275-15.689-16.273-22.963-24.891-10.902-12.917-21.641-26.004-31.815-39.497-17.391-23.065-30.477-48.411-37.978-76.429-2.366-8.836-3.696-17.821-.814-26.884,2.605-8.193,7.34-14.491,15.571-17.72,.932-.366,1.915-.602,3.042-.951,.181,.632,.424,1.085,.425,1.538,.051,24.199,6.536,46.996,15.292,69.251,15.694,39.887,35.13,77.858,58.712,113.68,.324,.492,.569,1.035,.851,1.554-.111,.113-.219,.229-.323,.347Z" fill="#171722"/>
      <path d="M148.786,495.194c.227,.401,.465,.668,.54,.975,4.804,19.661,14.296,37.218,24.696,54.306,23.224,38.16,52.046,71.734,84.504,102.285,.556,.524,1.117,1.043,1.658,1.582,.108,.107,.136,.295,.478,1.089-1.175-.612-1.921-.951-2.618-1.373-23.364-14.139-44.728-30.883-64.559-49.619-17.717-16.739-33.925-34.8-47.872-54.827-5.296-7.605-9.601-15.681-10.709-25.055-1.414-11.957,3.166-21.392,12.5-28.706,.37-.29,.867-.417,1.383-.656Z" fill="#171722"/>
      <path d="M270.847,670.142c-.71-.183-1.443-.303-2.127-.558-39.406-14.708-76.27-34.082-109.475-60.063-9.864-7.718-19.032-16.216-25.55-27.128-4.717-7.897-7.276-16.293-5.15-25.56,1.142-4.977,3.557-9.295,7.343-12.938,.371,.334,.688,.506,.841,.772,9.203,15.993,21.22,29.887,32.717,44.189,17.609,21.905,39.254,39.23,62.171,55.066,12.291,8.494,25.066,16.287,37.621,24.401,.619,.4,1.217,.834,1.824,1.252-.072,.189-.144,.377-.216,.566Z" fill="#171722"/>
      <path d="M288.748,682.53c-3.608-.454-6.837-.794-10.046-1.276-31.946-4.796-63.078-12.674-93.037-24.879-14.193-5.782-27.918-12.481-40.119-21.927-5.006-3.876-9.516-8.248-12.654-13.819-4.896-8.691-4.828-17.309,.68-25.75,.262-.402,.64-.728,.978-1.106,.337,.217,.594,.308,.74,.487,13.151,16.113,29.89,27.868,47.369,38.635,32.469,20.002,67.236,35.126,103.06,47.951,.798,.286,1.593,.583,2.379,.9,.13,.053,.206,.238,.651,.783Z" fill="#171722"/>
      <path d="M307.596,689.763c-9.46,.734-18.908,1.798-28.382,2.14-27.326,.987-54.524-.399-81.462-5.421-11.292-2.105-22.433-4.774-33.032-9.326-6.215-2.669-12.001-6.044-16.704-11-6.536-6.886-8.851-14.907-6.241-24.174,.161-.571,.366-1.132,.596-1.679,.09-.213,.307-.373,.525-.626,.321,.145,.649,.233,.906,.42,15.966,11.648,34.101,18.9,52.358,25.933,29.445,11.343,59.974,18.005,91.286,21.302,6.664,.702,13.355,1.143,20.033,1.704,.039,.242,.079,.485,.118,.727Z" fill="#171722"/>
      <path d="M331.99,691.539c-4.878,1.664-9.708,3.485-14.641,4.966-21.338,6.406-42.934,11.701-65.047,14.684-22.954,3.096-45.877,3.632-68.751-.772-13.044-2.511-21.012-10.074-23.16-22.191-.295-1.663-.307-3.38-.386-5.074-.035-.743,.092-1.494,.155-2.379,.57,.082,1.006,.055,1.363,.209,15.347,6.613,31.561,9.904,47.955,12.472,17.908,2.805,35.914,4.431,54.062,4.071,21.69-.43,43.247-2.39,64.69-5.668,1.248-.191,2.525-.192,3.789-.281,0,0-.027-.036-.027-.036Z" fill="#171722"/>
      <path d="M186.63,716.071c4.573,.562,8.765,1.183,12.977,1.576,18.378,1.715,36.681,.612,54.905-1.875,30.84-4.209,60.761-12.16,90.052-22.585,.691-.246,1.414-.404,2.295-.289-.332,.294-.626,.656-1.002,.874-30.964,17.873-63.239,32.652-98.077,41.311-10.74,2.67-21.622,4.802-32.739,4.297-4.672-.212-9.52-1.07-13.879-2.717-8.375-3.166-12.946-9.826-14.519-18.569-.1-.554-.013-1.142-.013-2.023Z" fill="#171722"/>
      <path d="M218.427,744.672c4.079-.29,7.969-.447,11.832-.863,15.245-1.645,29.704-6.333,43.995-11.605,29.115-10.741,56.799-24.422,83.227-40.669,.896-.551,1.826-1.046,2.74-1.568,.143,.163,.286,.327,.43,.49-.345,.488-.616,1.056-1.046,1.453-27.188,25.116-56.722,46.855-90.484,62.419-8.597,3.963-17.486,7.193-27.224,6.604-10.259-.619-17.76-5.663-22.827-14.49-.278-.484-.391-1.062-.644-1.772Z" fill="#171722"/>
      <path d="M380.279,678.03c-9.311,12.538-18.185,25.433-28.037,37.53-14.151,17.375-30.025,33.144-48.65,45.788-6.278,4.262-13.097,7.922-20.078,10.899-7.86,3.352-15.999,3.213-23.241-2.187-2.258-1.684-4.089-3.94-6.344-6.159,.975-.547,1.362-.868,1.804-.997,20.192-5.892,38.454-15.834,55.912-27.247,23.291-15.227,43.79-33.837,63.287-53.592,1.539-1.56,3.259-2.94,4.895-4.404,.151,.123,.301,.246,.452,.369Z" fill="#171722"/>
      <path d="M390.12,673.682c-.204,.895-.271,1.85-.632,2.676-13.626,31.147-30.521,60.335-52.324,86.524-5.566,6.685-11.718,12.859-20.021,16.206-8.373,3.375-16.144,2.257-23.135-3.576-.439-.366-.793-.832-1.318-1.391,.43-.334,.711-.637,1.058-.809,14.888-7.421,27.388-17.998,38.81-29.869,17.709-18.404,33.308-38.592,48.947-58.735,2.858-3.681,5.769-7.323,8.655-10.982,0,0-.04-.044-.04-.044Z" fill="#171722"/>
      <path d="M331.005,776.134c2.956-3.315,5.818-6.662,8.823-9.875,15.341-16.397,27.574-34.971,37.586-54.953,7.567-15.102,14.296-30.624,21.397-45.96,.347-.749,.685-1.501,1.591-2.111-.693,3.757-1.316,7.529-2.092,11.269-5.317,25.631-12.74,50.593-24.488,74.073-3.178,6.351-7.121,12.357-11.112,18.25-3.025,4.466-7.089,8.037-12.142,10.232-6.96,3.023-13.671,2.342-19.563-.926Z" fill="#171722"/>
      <path d="M362.289,689.192c-.276,.251-.551,.502-.827,.753-.213-.209-.425-.418-.638-.626,.383-.147,.765-.295,1.148-.442,.106,.105,.211,.21,.317,.315Z" fill="#171722"/>
      <path d="M254.762,539.629c.037,.067,.074,.133,.111,.2-.076,0-.153-.001-.229-.002,.039-.066,.079-.132,.118-.198Z" fill="#171722"/>
      <path d="M332.017,691.575c.233-.145,.466-.29,.07-.044,.461-.039,.182-.015-.097,.008,0,0,.027,.036,.027,.036Z" fill="#171722"/>
      <path d="M242.919,615.432c.03,.274,.059,.549,.089,.823-.177-.141-.354-.283-.532-.423,.147-.133,.295-.266,.443-.4Z" fill="#171722"/>
      <path d="M362.628,688.513c.099-.093,.198-.187,.297-.28-.114,.079-.229,.158-.343,.237,0,0,.046,.043,.046,.043Z" fill="#171722"/>
      <polygon points="380.483 677.293 380.569 677.215 380.436 677.251 380.483 677.293" fill="#171722"/>
      <path d="M379.827,677.661c.219-.123,.438-.245,.656-.368,0,0-.047-.042-.047-.042-.053,.259-.107,.519-.159,.779-.149-.123-.3-.246-.45-.369Z" fill="#171722"/>
      <path d="M390.161,673.726c.039-.063,.077-.126,.116-.189-.052,.048-.104,.097-.156,.145,0,0,.04,.044,.04,.044Z" fill="#171722"/>
      <path d="M247.952,634.866c.074,.113,.148,.226,.222,.338-.181,.002-.363,.004-.545,.007,.104-.117,.212-.233,.323-.346Z" fill="#171722"/>
      <polygon points="261.339 655.529 261.388 655.653 261.265 655.639 261.339 655.529" fill="#171722"/>
      <polygon points="272.064 670.498 272.005 670.344 272.156 670.362 272.064 670.498" fill="#171722"/>
      <path d="M362.582,688.47c-.098,.24-.196,.48-.293,.721-.105-.104-.211-.209-.316-.314,.218-.122,.437-.243,.656-.364,0,0-.046-.043-.046-.043Z" fill="#171722"/>
      <path d="M434.79,686.544c-.629,6.067-1.147,12.148-1.905,18.199-4.041,32.284-10.988,63.918-21.5,94.731-7.396,21.678-16.417,42.631-28.303,62.273-5.05,8.344-10.859,16.076-18.682,22.044-11.817,9.014-24.535,11.069-38.233,4.551-.689-.328-1.351-.717-2.01-1.103-.289-.17-.539-.405-.929-.704,.243-.354,.406-.748,.697-.993,17.467-14.759,31.124-32.73,43.246-51.903,28.488-45.059,50.297-93.202,65.864-144.18,.312-1.023,.66-2.035,.991-3.052,.255,.046,.51,.093,.764,.139Z" fill="#171722"/>
      <path d="M445.169,655.679c1.206,14.213,2.573,28.416,3.57,42.644,.872,12.451,2.051,24.945,1.831,37.397-.612,34.646-5.267,68.73-16.575,101.668-2.733,7.959-5.891,15.758-10.631,22.794-5.194,7.711-11.731,13.665-21.134,15.679-6.791,1.454-13.294,.411-19.602-2.464,.1-.385,.097-.667,.23-.849,15.42-20.976,25.597-44.544,33.999-68.97,9.781-28.435,16.398-57.662,20.646-87.378,2.798-19.575,4.573-39.295,6.815-58.95,.063-.555,.222-1.1,.337-1.649l.514,.078Z" fill="#171722"/>
      <path d="M434.897,851.113c2.194-5.817,4.494-11.297,6.342-16.926,7.553-23.004,12.222-46.61,14.264-70.73,2.143-25.307,1.609-50.612-1.071-75.824-2.072-19.492-4.972-38.896-7.497-58.339-.107-.826-.147-1.661,.286-2.652,.377,.972,.796,1.93,1.126,2.918,10.479,31.36,18.857,63.27,24.896,95.781,3.795,20.432,5.816,41.033,5.091,61.835-.481,13.801-2.096,27.442-7.131,40.445-2.924,7.553-6.916,14.405-13.684,19.234-6.344,4.526-13.44,5.862-21.065,4.772-.484-.069-.944-.306-1.557-.513Z" fill="#171722"/>
      <path d="M447.063,608.66c6.04,10.426,12.532,20.62,18.031,31.324,13.117,25.535,25.015,51.66,35.299,78.471,6.178,16.106,9.69,32.881,10.417,50.169,.351,8.355-.218,16.636-2.358,24.764-3.787,14.388-14.268,21.159-28.264,24.802,.501-2.515,.921-4.63,1.344-6.744,3.058-15.282,3.577-30.724,2.159-46.176-4.844-52.778-18.644-103.469-36.179-153.267-.338-.959-.619-1.937-.927-2.906,.159-.146,.318-.291,.477-.437Z" fill="#171722"/>
      <path d="M441.916,589.28c8.328,9.065,17.056,17.799,24.893,27.271,12.289,14.851,24.645,29.727,35.755,45.453,14.629,20.708,25.658,43.397,32.089,68.086,2.306,8.854,3.691,17.824,.825,26.883-2.622,8.286-7.435,14.624-15.786,17.831-.633,.243-1.283,.445-1.936,.627-.316,.088-.657,.084-1.1,.135-.11-.54-.294-1.02-.292-1.499,.094-20.855-4.754-40.773-11.895-60.155-15.858-43.043-36.544-83.681-61.63-122.082-.46-.705-.843-1.46-1.262-2.192,.115-.118,.228-.237,.339-.358Z" fill="#171722"/>
      <path d="M540.685,729.39c-1.506-4.773-2.775-9.433-4.434-13.949-7.044-19.174-17.299-36.678-28.49-53.641-22.002-33.35-48.097-63.235-77.262-90.485-.495-.463-.976-.944-1.437-1.44-.08-.086-.028-.293-.053-.703,.761,.376,1.435,.645,2.043,1.02,44.34,27.371,82.129,61.823,112.523,104.242,5.493,7.666,9.727,15.913,11.079,25.43,1.617,11.387-4.482,24.539-13.97,29.526Z" fill="#171722"/>
      <path d="M553.564,680.841c-.425-.524-.66-.759-.831-1.033-25.486-40.899-57.757-75.249-98.235-101.65-11.384-7.425-22.873-14.69-34.313-22.03-.681-.437-1.349-.897-1.765-1.876,.781,.216,1.583,.375,2.34,.657,39.253,14.636,75.954,33.956,109.102,59.725,8.471,6.585,16.373,13.83,22.724,22.573,4.911,6.761,8.653,14.033,9.094,22.603,.416,8.085-2.355,14.951-8.116,21.033Z" fill="#171722"/>
      <path d="M401.054,541.898c6.364,.938,12.751,1.749,19.089,2.837,28.78,4.941,56.87,12.403,83.93,23.476,14.098,5.769,27.744,12.431,39.876,21.819,5.007,3.875,9.511,8.246,12.661,13.81,4.915,8.682,4.865,17.29-.619,25.743-.184,.284-.387,.559-.606,.817-.102,.12-.265,.189-.403,.283-.158-.042-.377-.035-.46-.138-11.965-14.688-26.963-25.789-42.773-35.86-33.837-21.556-70.337-37.521-107.985-51.036-.798-.287-1.596-.574-2.386-.88-.142-.055-.248-.202-.37-.306l.046-.565Z" fill="#171722"/>
      <path d="M546.944,584.694c-6.798-3.996-13.162-8.279-19.977-11.651-31.688-15.68-64.89-26.929-99.878-32.354-14.495-2.247-29.159-3.397-43.747-5.045-.494-.056-.988-.107-1.507-.598,4.315-.496,8.619-1.137,12.947-1.464,36.704-2.772,73.15-1.281,109.128,7.057,10.778,2.498,21.327,5.771,30.671,11.982,7.009,4.659,12.48,10.528,13.926,19.217,.739,4.436,.198,8.767-1.564,12.856Z" fill="#171722"/>
      <path d="M357.536,532.977c.738-.359,1.445-.812,2.218-1.063,25.317-8.21,50.983-14.985,77.406-18.579,22.947-3.121,45.867-3.642,68.744,.74,13.038,2.497,20.993,9.942,23.198,22.128,.442,2.444,.357,4.983,.531,7.75-.89-.224-1.31-.271-1.682-.432-15.497-6.685-31.882-9.955-48.434-12.55-20.957-3.285-42.02-4.662-63.238-3.7-18.519,.839-36.93,2.638-55.25,5.434-1.16,.177-2.351,.155-3.527,.226l.035,.046Z" fill="#171722"/>
      <path d="M503.258,508.584c-3.184-.454-5.836-.871-8.498-1.206-17.13-2.154-34.259-1.526-51.346,.351-33.839,3.717-66.537,12.281-98.558,23.628-.698,.247-1.423,.418-2.885,.843,.885-.793,1.162-1.142,1.521-1.35,31.068-17.976,63.476-32.794,98.45-41.478,10.732-2.665,21.614-4.764,32.724-4.243,4.587,.215,9.358,1.036,13.623,2.678,9.064,3.489,13.542,10.782,14.97,20.777Z" fill="#171722"/>
      <path d="M328.601,534.214c.384-.496,.707-1.058,1.161-1.478,27.29-25.222,56.933-47.055,90.846-62.65,8.276-3.806,16.837-6.898,26.199-6.549,10.689,.399,18.487,5.491,23.738,14.683,.243,.425,.4,.9,.745,1.69-1.809,.088-3.368,.175-4.929,.239-15.796,.649-30.782,4.947-45.555,10.162-31.264,11.036-60.883,25.502-89.106,42.865-.888,.546-1.838,.992-2.759,1.484-.114-.149-.227-.299-.341-.448Z" fill="#171722"/>
      <path d="M309.211,546.462c21.103-31.753,45.134-60.855,76.48-83.136,5.902-4.196,12.434-7.693,19.067-10.626,8.411-3.719,17.056-3.952,24.848,2.008,2.158,1.651,3.883,3.869,6.241,6.268-2.039,.609-3.312,.969-4.572,1.368-18.938,5.986-36.256,15.327-52.791,26.1-23.526,15.328-44.222,34.079-63.902,54.001-1.539,1.558-3.252,2.943-4.884,4.409-.162-.13-.325-.26-.487-.39Z" fill="#171722"/>
      <path d="M299.404,550.838c.234-.967,.333-1.992,.723-2.892,12.809-29.529,28.866-57.157,48.945-82.339,4.366-5.476,9.507-10.421,14.769-15.069,4.912-4.339,10.831-6.994,17.645-6.952,6.097,.038,11.086,2.505,15.576,6.838-2.729,1.497-5.211,2.755-7.592,4.18-14.957,8.949-27.93,20.354-39.078,33.602-16.463,19.563-32.309,39.644-48.423,59.501-.847,1.044-1.738,2.052-2.608,3.076l.045,.055Z" fill="#171722"/>
      <path d="M288.876,561.292c1.808-8.364,3.423-16.776,5.46-25.084,5.391-21.995,12.478-43.403,22.965-63.56,3.694-7.099,7.786-13.967,13.583-19.614,7.785-7.584,17.15-9.482,26.157-5.38,.754,.343,1.47,.772,2.337,1.232-4.761,4.799-9.585,9.223-13.903,14.095-15.445,17.429-27.303,37.244-37.452,58.077-6.168,12.661-11.669,25.648-17.472,38.487-.304,.673-.635,1.335-.953,2.001-.241-.085-.482-.17-.723-.255Z" fill="#171722"/>
      <path d="M357.501,532.931c-.265,.151-.531,.303-.796,.454-.036-.109-.073-.218-.109-.327,.313-.027,.626-.054,.94-.081,0,0-.034-.046-.034-.046Z" fill="#171722"/>
      <path d="M434.876,684.783c-.053,.043-.106,.087-.159,.13-.031-.072-.107-.179-.084-.21,.056-.074,.159-.112,.243-.164,0,.081,0,.163,0,.244Z" fill="#171722"/>
      <path d="M446.585,609.097l-.194-.874c.224,.146,.448,.292,.671,.437-.159,.145-.318,.291-.477,.436Z" fill="#171722"/>
      <path d="M326.891,535.993c-.085,.105-.169,.209-.254,.314-.026-.099-.051-.198-.077-.297,.127,.009,.255,.018,.382,.026,0,0-.051-.043-.051-.043Z" fill="#171722"/>
      <path d="M417.425,554.263c-.045-.052-.09-.105-.135-.157,.054-.043,.111-.124,.161-.119,.049,.005,.091,.094,.136,.147-.054,.043-.108,.086-.162,.129Z" fill="#171722"/>
      <path d="M299.359,550.783c-.029,.073-.046,.156-.093,.214-.02,.025-.106-.005-.162-.01,.1-.05,.199-.1,.299-.15,0,0-.045-.054-.045-.054Z" fill="#171722"/>
      <path d="M327.556,535.632c-.222,.12-.444,.241-.665,.361,0,0,.051,.043,.051,.043,.091-.249,.181-.499,.271-.749,.114,.115,.228,.23,.342,.345Z" fill="#171722"/>
      <path d="M309.698,546.853c-.136,.08-.271,.16-.407,.24-.026-.21-.052-.42-.079-.631,.162,.13,.324,.26,.486,.39Z" fill="#171722"/>
      <path d="M441.138,589.063c-.014,.019-.029,.038-.043,.057,0,0,.043-.057,.043-.057Z" fill="#171722"/>
      <path d="M327.214,535.288c.247-.04,.494-.08,.741-.119-.133,.155-.266,.309-.399,.464-.115-.114-.229-.229-.342-.345Z" fill="#171722"/>
      <path d="M441.095,589.12c.273,.054,.547,.108,.82,.161-.111,.121-.224,.24-.339,.358-.146-.193-.291-.385-.438-.577,0,.001-.044,.058-.044,.058Z" fill="#171722"/>
      <polygon points="428.321 568.895 428.145 568.967 428.155 568.803 428.321 568.895" fill="#171722"/>
      <path d="M339.133,562.169c28.385,.233,50.998,22.626,51.21,51.104,.213,28.655-23.316,51.386-50.938,51.37-28.621-.017-51.415-22.671-51.441-51.185-.026-28.307,22.934-51.321,51.169-51.289Z" fill="#c6ae69"/>
    </g>
  </g>
</svg>